; NON-PLATED HOLES START AT T1
; THROUGH (PLATED) HOLES START AT T100
M48
INCH
T1C0.125984
T100C0.031496
T101C0.035050
T102C0.043307
T103C0.131984
T104C0.015748
T105C0.042000
T106C0.035000
T107C0.038000
T108C0.040000
%
T1
X040438Y000935
T100
X036538Y004610
X036538Y002610
X036538Y018610
X036538Y011610
X036538Y009610
X036538Y016610
T101
X018538Y003593
X018538Y007599
X018538Y010603
X008524Y012606
X018538Y011604
X008524Y016612
X008524Y009602
X018538Y006597
X008524Y005596
X008524Y002592
X008524Y004594
X018538Y008600
X018538Y005596
X008524Y008600
X008524Y011604
X008524Y007599
X008524Y010603
X008524Y013607
X018538Y015610
X018538Y016612
X008524Y015610
X008524Y003593
X018538Y009602
X018538Y002592
X018538Y004594
X018538Y014609
X018538Y012606
X008524Y014609
X008524Y006597
X018538Y013607
T102
X026538Y011610
X031066Y004610
X034316Y004610
X034316Y011610
X025538Y004610
X034316Y018610
X025538Y011610
X026538Y004610
X026538Y018610
X031066Y018610
X025538Y018610
X031066Y011610
T103
X000863Y000960
X000863Y022710
X040438Y022685
T104
X007538Y018610
X004046Y009102
X020538Y017610
X020538Y011610
X007538Y017610
X021049Y007121
X023538Y014610
X021049Y015099
T105
X003038Y019110
X003038Y016610
X003038Y021110
X003038Y014610
X003038Y020110
X003038Y015610
T106
X023038Y020610
X021038Y020610
T107
X003538Y005610
X006538Y005610
X004038Y008110
X005038Y006610
X003538Y003610
X015038Y022610
X002038Y005610
X010538Y019610
X005038Y004610
X002038Y003610
X016538Y019610
X005038Y008110
X001538Y020110
X005038Y005610
X006538Y003610
X006538Y006610
X012038Y022610
X001538Y016610
X001538Y015610
X016538Y022610
X012038Y021610
X007038Y008110
X013538Y021610
X010538Y022610
X005038Y010610
X016538Y021610
X002038Y009610
X006538Y004610
X002038Y006610
X010538Y021610
X001538Y019110
X013538Y022610
X016538Y016010
X006538Y010610
X010538Y016010
X002038Y010610
X005038Y003610
X003538Y004610
X015038Y021610
X005038Y011610
X002038Y004610
X006038Y008110
X003538Y006610
X006538Y011610
X002038Y008610
T108
X039538Y018610
X039538Y009642
X030570Y001610
X039538Y002642
X032538Y001610
X039538Y016642
X039538Y011610
X039538Y004610
T00
M30
