M48
; DRILL file {KiCad 5.1.9-73d0e3b20d~88~ubuntu18.04.1} date Sat Jan 30 02:03:24 2021
; FORMAT={-:-/ absolute / inch / decimal}
; #@! TF.CreationDate,2021-01-30T02:03:24+01:00
; #@! TF.GenerationSoftware,Kicad,Pcbnew,5.1.9-73d0e3b20d~88~ubuntu18.04.1
; #@! TF.FileFunction,Plated,1,2,PTH
FMAT,2
INCH
T1C0.0138
T2C0.0157
T3C0.0276
T4C0.0320
T5C0.0394
T6C0.0400
T7C0.0440
T8C0.0591
%
G90
G05
T1
X3.5469Y-3.4525
X3.7467Y-3.9027
X4.0469Y-3.4525
X4.1469Y-3.9025
X4.1969Y-4.3525
X4.2969Y-4.3525
X4.3969Y-4.3025
X4.3969Y-4.3525
X4.3969Y-4.4025
X4.3969Y-4.5525
X4.3969Y-4.6525
X4.4969Y-4.1525
X4.6469Y-3.4025
X4.6469Y-3.5525
X4.8366Y-3.4025
X4.8469Y-3.5525
X4.9469Y-4.0525
X4.9997Y-4.6997
X5.0469Y-3.8525
X5.0469Y-4.0525
X5.0469Y-4.4525
X5.0469Y-4.7525
X5.0469Y-4.8525
X5.1969Y-3.5025
X5.2469Y-4.2525
X5.2469Y-4.3025
X5.2469Y-4.3525
X5.2469Y-4.4025
X6.0469Y-3.6025
X6.0469Y-4.0025
X6.0469Y-4.4025
X6.0469Y-4.8025
T2
X4.3Y-4.28
X5.6Y-3.11
X5.65Y-3.11
X5.71Y-3.11
X5.86Y-4.23
X5.89Y-4.19
X5.93Y-4.15
T3
X5.467Y-4.023
X5.567Y-4.023
X5.667Y-4.023
T4
X7.3969Y-3.8525
X7.3969Y-4.2525
X7.3969Y-4.6525
X7.3969Y-5.0525
X7.7969Y-3.8525
X7.7969Y-4.2525
X7.7969Y-4.6525
X7.7969Y-5.0525
T5
X3.4469Y-3.3025
X3.5469Y-3.3025
X3.6969Y-3.3025
X3.7969Y-3.3025
X3.7969Y-4.1025
X3.7969Y-4.4025
X3.7969Y-4.7025
X3.7969Y-5.0025
X3.8969Y-4.1025
X3.8969Y-4.4025
X3.8969Y-4.7025
X3.8969Y-5.0025
X3.9469Y-3.3025
X3.9969Y-4.1025
X3.9969Y-4.4025
X3.9969Y-4.7025
X3.9969Y-5.0025
X4.0469Y-3.3025
X4.0969Y-4.1025
X4.0969Y-4.4025
X4.0969Y-4.7025
X4.0969Y-5.0025
X4.1969Y-3.3025
X4.2969Y-3.3025
X4.7469Y-3.3025
X4.7469Y-3.4025
X4.7469Y-3.5025
X4.7469Y-3.6025
X5.0469Y-3.3025
X5.0469Y-3.4025
X5.0469Y-3.5025
X5.0469Y-3.6025
X5.5969Y-3.2025
X5.5969Y-3.3025
X5.8969Y-3.2025
X5.8969Y-3.3025
X6.1969Y-3.2025
X6.1969Y-3.3025
X6.4969Y-3.2025
X6.4969Y-3.3025
X6.7469Y-3.7076
X6.7469Y-4.1076
X6.7469Y-4.5076
X6.7469Y-4.9076
X6.8469Y-3.7076
X6.8469Y-4.1076
X6.8469Y-4.5076
X6.8469Y-4.9076
X7.2469Y-3.7076
X7.2469Y-4.1076
X7.2469Y-4.5076
X7.2469Y-4.9076
X7.5469Y-3.7076
X7.5469Y-4.1076
X7.5469Y-4.5076
X7.5469Y-4.9076
T6
X4.2969Y-4.4525
X4.2969Y-4.5525
X4.2969Y-4.7525
X4.2969Y-4.8525
X4.2969Y-4.9525
X4.2969Y-5.0525
X4.4469Y-3.9525
X4.5469Y-3.9525
X4.6969Y-3.9525
X4.7969Y-3.9525
X5.4469Y-4.4525
X5.4969Y-3.5525
X5.4969Y-3.7025
X5.5969Y-3.5525
X5.5969Y-3.7025
X5.6469Y-4.4525
T7
X4.4469Y-3.2025
X4.4469Y-3.6025
T8
X7.2485Y-3.2525
X7.4453Y-3.2525
X8.1469Y-3.3041
X8.1469Y-3.5009
X8.1469Y-3.8041
X8.1469Y-4.0009
X8.1469Y-4.3041
X8.1469Y-4.5009
X8.1469Y-4.8041
X8.1469Y-5.0009
T0
M30
