%TF.GenerationSoftware,KiCad,Pcbnew,5.1.9-73d0e3b20d~88~ubuntu18.04.1*%
%TF.CreationDate,2021-01-30T02:03:27+01:00*%
%TF.ProjectId,terraesp,74657272-6165-4737-902e-6b696361645f,rev?*%
%TF.SameCoordinates,Original*%
%TF.FileFunction,Copper,L2,Bot*%
%TF.FilePolarity,Positive*%
%FSLAX46Y46*%
G04 Gerber Fmt 4.6, Leading zero omitted, Abs format (unit mm)*
G04 Created by KiCad (PCBNEW 5.1.9-73d0e3b20d~88~ubuntu18.04.1) date 2021-01-30 02:03:27*
%MOMM*%
%LPD*%
G01*
G04 APERTURE LIST*
%TA.AperFunction,ComponentPad*%
%ADD10R,1.508000X1.508000*%
%TD*%
%TA.AperFunction,ComponentPad*%
%ADD11C,1.508000*%
%TD*%
%TA.AperFunction,ComponentPad*%
%ADD12C,1.422400*%
%TD*%
%TA.AperFunction,ComponentPad*%
%ADD13C,2.250000*%
%TD*%
%TA.AperFunction,ComponentPad*%
%ADD14C,1.320800*%
%TD*%
%TA.AperFunction,ComponentPad*%
%ADD15O,3.048000X1.524000*%
%TD*%
%TA.AperFunction,SMDPad,CuDef*%
%ADD16R,2.000000X1.600000*%
%TD*%
%TA.AperFunction,ComponentPad*%
%ADD17O,1.524000X3.048000*%
%TD*%
%TA.AperFunction,ComponentPad*%
%ADD18C,2.540000*%
%TD*%
%TA.AperFunction,ComponentPad*%
%ADD19O,3.016000X1.508000*%
%TD*%
%TA.AperFunction,ComponentPad*%
%ADD20O,1.508000X3.016000*%
%TD*%
%TA.AperFunction,ComponentPad*%
%ADD21C,1.676400*%
%TD*%
%TA.AperFunction,ViaPad*%
%ADD22C,0.756400*%
%TD*%
%TA.AperFunction,ViaPad*%
%ADD23C,0.800000*%
%TD*%
%TA.AperFunction,Conductor*%
%ADD24C,0.152400*%
%TD*%
%TA.AperFunction,Conductor*%
%ADD25C,0.508000*%
%TD*%
%TA.AperFunction,Conductor*%
%ADD26C,0.812800*%
%TD*%
%TA.AperFunction,Conductor*%
%ADD27C,0.304800*%
%TD*%
%TA.AperFunction,Conductor*%
%ADD28C,0.076200*%
%TD*%
%TA.AperFunction,Conductor*%
%ADD29C,0.100000*%
%TD*%
G04 APERTURE END LIST*
D10*
%TO.P,K1,1*%
%TO.N,Net-(K1-Pad1)*%
X191691100Y-94173600D03*
D11*
%TO.P,K1,2*%
%TO.N,Net-(K1-Pad2)*%
X184071100Y-94173600D03*
%TO.P,K1,3*%
%TO.N,+5V*%
X173911100Y-94173600D03*
%TO.P,K1,4*%
%TO.N,Net-(K1-Pad4)*%
X171371100Y-94173600D03*
%TD*%
D12*
%TO.P,U$1,1*%
%TO.N,+12V*%
X138861100Y-102183600D03*
%TO.P,U$1,2*%
%TO.N,GND*%
X141401100Y-102183600D03*
%TO.P,U$1,3*%
%TO.N,+5V*%
X143941100Y-102183600D03*
%TD*%
D13*
%TO.P,SSR_0,1*%
%TO.N,Net-(K1-Pad1)*%
X206931100Y-83923600D03*
%TO.P,SSR_0,2*%
%TO.N,Net-(F1-Pad2)*%
X206931100Y-88923600D03*
%TD*%
%TO.P,SSR_IN1,1*%
%TO.N,Net-(F1-Pad1)*%
X189111100Y-82613600D03*
%TO.P,SSR_IN1,2*%
%TO.N,Net-(K1-Pad2)*%
X184111100Y-82613600D03*
%TD*%
D14*
%TO.P,F1,2*%
%TO.N,Net-(F1-Pad2)*%
X198041100Y-97853600D03*
%TO.P,F1,1*%
%TO.N,Net-(F1-Pad1)*%
X187881100Y-97853600D03*
%TD*%
D15*
%TO.P,EN1,2*%
%TO.N,GND*%
X109141100Y-115633600D03*
%TO.P,EN1,1*%
%TO.N,/EN*%
X109141100Y-113093600D03*
%TD*%
D16*
%TO.P,R5,2*%
%TO.N,/EN*%
X125651100Y-120583600D03*
%TO.P,R5,1*%
%TO.N,+3V3*%
X125651100Y-123383600D03*
%TD*%
D17*
%TO.P,BOOT1,2*%
%TO.N,GND*%
X121841100Y-100393600D03*
%TO.P,BOOT1,1*%
%TO.N,/BOOT*%
X119301100Y-100393600D03*
%TD*%
D18*
%TO.P,C1,-*%
%TO.N,GND*%
X138351100Y-113093600D03*
%TO.P,C1,+*%
%TO.N,+5V*%
X143431100Y-113093600D03*
%TD*%
D10*
%TO.P,K2,1*%
%TO.N,Net-(K2-Pad1)*%
X191691100Y-104333600D03*
D11*
%TO.P,K2,2*%
%TO.N,Net-(K1-Pad2)*%
X184071100Y-104333600D03*
%TO.P,K2,3*%
%TO.N,+5V*%
X173911100Y-104333600D03*
%TO.P,K2,4*%
%TO.N,Net-(K2-Pad4)*%
X171371100Y-104333600D03*
%TD*%
D13*
%TO.P,SSR_1,1*%
%TO.N,Net-(K2-Pad1)*%
X206931100Y-96623600D03*
%TO.P,SSR_1,2*%
%TO.N,Net-(F2-Pad2)*%
X206931100Y-101623600D03*
%TD*%
D14*
%TO.P,F2,2*%
%TO.N,Net-(F2-Pad2)*%
X198041100Y-108013600D03*
%TO.P,F2,1*%
%TO.N,Net-(F1-Pad1)*%
X187881100Y-108013600D03*
%TD*%
D10*
%TO.P,K3,1*%
%TO.N,Net-(K3-Pad1)*%
X191691100Y-114493600D03*
D11*
%TO.P,K3,2*%
%TO.N,Net-(K1-Pad2)*%
X184071100Y-114493600D03*
%TO.P,K3,3*%
%TO.N,+5V*%
X173911100Y-114493600D03*
%TO.P,K3,4*%
%TO.N,Net-(K3-Pad4)*%
X171371100Y-114493600D03*
%TD*%
D13*
%TO.P,SSR_2,1*%
%TO.N,Net-(K3-Pad1)*%
X206931100Y-109323600D03*
%TO.P,SSR_2,2*%
%TO.N,Net-(F3-Pad2)*%
X206931100Y-114323600D03*
%TD*%
D14*
%TO.P,F3,2*%
%TO.N,Net-(F3-Pad2)*%
X198041100Y-118173600D03*
%TO.P,F3,1*%
%TO.N,Net-(F1-Pad1)*%
X187881100Y-118173600D03*
%TD*%
D10*
%TO.P,K4,1*%
%TO.N,Net-(K4-Pad1)*%
X191691100Y-124653600D03*
D11*
%TO.P,K4,2*%
%TO.N,Net-(K1-Pad2)*%
X184071100Y-124653600D03*
%TO.P,K4,3*%
%TO.N,+5V*%
X173911100Y-124653600D03*
%TO.P,K4,4*%
%TO.N,Net-(K4-Pad4)*%
X171371100Y-124653600D03*
%TD*%
D13*
%TO.P,SSR_3,1*%
%TO.N,Net-(K4-Pad1)*%
X206931100Y-122023600D03*
%TO.P,SSR_3,2*%
%TO.N,Net-(F4-Pad2)*%
X206931100Y-127023600D03*
%TD*%
D14*
%TO.P,F4,2*%
%TO.N,Net-(F4-Pad2)*%
X198041100Y-128333600D03*
%TO.P,F4,1*%
%TO.N,Net-(F1-Pad1)*%
X187881100Y-128333600D03*
%TD*%
D19*
%TO.P,X1,2*%
%TO.N,GND*%
X165021100Y-81343600D03*
%TO.P,X1,1*%
%TO.N,+12V*%
X165021100Y-83883600D03*
%TD*%
%TO.P,X2,2*%
%TO.N,GND*%
X157401100Y-81343600D03*
%TO.P,X2,1*%
%TO.N,+12V*%
X157401100Y-83883600D03*
%TD*%
%TO.P,X3,2*%
%TO.N,GND*%
X149781100Y-81343600D03*
%TO.P,X3,1*%
%TO.N,+12V*%
X149781100Y-83883600D03*
%TD*%
%TO.P,+12V-1,2*%
%TO.N,GND*%
X142161100Y-81343600D03*
%TO.P,+12V-1,1*%
%TO.N,+12V*%
X142161100Y-83883600D03*
%TD*%
D20*
%TO.P,I2C1,4*%
%TO.N,GND*%
X104061100Y-104203600D03*
%TO.P,I2C1,3*%
%TO.N,+3V3*%
X101521100Y-104203600D03*
%TO.P,I2C1,2*%
%TO.N,/SDA0*%
X98981100Y-104203600D03*
%TO.P,I2C1,1*%
%TO.N,/SCL0*%
X96441100Y-104203600D03*
%TD*%
%TO.P,X6,4*%
%TO.N,GND*%
X104061100Y-111823600D03*
%TO.P,X6,3*%
%TO.N,+3V3*%
X101521100Y-111823600D03*
%TO.P,X6,2*%
%TO.N,/SDA0*%
X98981100Y-111823600D03*
%TO.P,X6,1*%
%TO.N,/SCL0*%
X96441100Y-111823600D03*
%TD*%
%TO.P,X7,4*%
%TO.N,GND*%
X104061100Y-119443600D03*
%TO.P,X7,3*%
%TO.N,+3V3*%
X101521100Y-119443600D03*
%TO.P,X7,2*%
%TO.N,/SDA0*%
X98981100Y-119443600D03*
%TO.P,X7,1*%
%TO.N,/SCL0*%
X96441100Y-119443600D03*
%TD*%
%TO.P,X8,4*%
%TO.N,GND*%
X104061100Y-127063600D03*
%TO.P,X8,3*%
%TO.N,+3V3*%
X101521100Y-127063600D03*
%TO.P,X8,2*%
%TO.N,/SDA0*%
X98981100Y-127063600D03*
%TO.P,X8,1*%
%TO.N,/SCL0*%
X96441100Y-127063600D03*
%TD*%
D19*
%TO.P,A0,4*%
%TO.N,+5V*%
X128191100Y-83883600D03*
%TO.P,A0,3*%
%TO.N,GND*%
X128191100Y-86423600D03*
%TO.P,A0,2*%
%TO.N,+3V3*%
X128191100Y-88963600D03*
%TO.P,A0,1*%
%TO.N,/IO_A0*%
X128191100Y-91503600D03*
%TD*%
D16*
%TO.P,R15,2*%
%TO.N,/IO_A0*%
X124381100Y-91633600D03*
%TO.P,R15,1*%
%TO.N,+3V3*%
X124381100Y-88833600D03*
%TD*%
%TO.P,R16,2*%
%TO.N,/IO_A0*%
X124381100Y-83753600D03*
%TO.P,R16,1*%
%TO.N,GND*%
X124381100Y-86553600D03*
%TD*%
D19*
%TO.P,A1,4*%
%TO.N,+5V*%
X120571100Y-91503600D03*
%TO.P,A1,3*%
%TO.N,GND*%
X120571100Y-88963600D03*
%TO.P,A1,2*%
%TO.N,+3V3*%
X120571100Y-86423600D03*
%TO.P,A1,1*%
%TO.N,/IO_A1*%
X120571100Y-83883600D03*
%TD*%
D16*
%TO.P,R17,2*%
%TO.N,/IO_A1*%
X115491100Y-91633600D03*
%TO.P,R17,1*%
%TO.N,+3V3*%
X115491100Y-88833600D03*
%TD*%
%TO.P,R18,2*%
%TO.N,/IO_A1*%
X115491100Y-83753600D03*
%TO.P,R18,1*%
%TO.N,GND*%
X115491100Y-86553600D03*
%TD*%
D17*
%TO.P,CON0_5V1,2*%
%TO.N,GND*%
X139621100Y-94043600D03*
%TO.P,CON0_5V1,1*%
%TO.N,+5V*%
X142161100Y-94043600D03*
%TD*%
%TO.P,-5V+1,2*%
%TO.N,GND*%
X139621100Y-90233600D03*
%TO.P,-5V+1,1*%
%TO.N,+5V*%
X142161100Y-90233600D03*
%TD*%
%TO.P,OTA1,2*%
%TO.N,GND*%
X112951100Y-100393600D03*
%TO.P,OTA1,1*%
%TO.N,/IO_OTA*%
X115491100Y-100393600D03*
%TD*%
D20*
%TO.P,PWM0,2*%
%TO.N,+12V*%
X87551100Y-83883600D03*
%TO.P,PWM0,1*%
%TO.N,Net-(PWM0-Pad1)*%
X90091100Y-83883600D03*
%TD*%
%TO.P,PWM1,2*%
%TO.N,+12V*%
X93901100Y-83883600D03*
%TO.P,PWM1,1*%
%TO.N,Net-(PWM1-Pad1)*%
X96441100Y-83883600D03*
%TD*%
%TO.P,PWM2,2*%
%TO.N,+12V*%
X100251100Y-83883600D03*
%TO.P,PWM2,1*%
%TO.N,Net-(PWM2-Pad1)*%
X102791100Y-83883600D03*
%TD*%
%TO.P,PWM3,2*%
%TO.N,+12V*%
X106601100Y-83883600D03*
%TO.P,PWM3,1*%
%TO.N,Net-(PWM3-Pad1)*%
X109141100Y-83883600D03*
%TD*%
D15*
%TO.P,UART0,4*%
%TO.N,+3V3*%
X109141100Y-120713600D03*
%TO.P,UART0,3*%
%TO.N,/RX0*%
X109141100Y-123253600D03*
%TO.P,UART0,2*%
%TO.N,/TX0*%
X109141100Y-125793600D03*
%TO.P,UART0,1*%
%TO.N,GND*%
X109141100Y-128333600D03*
%TD*%
D21*
%TO.P,D2,C*%
%TO.N,+12V*%
X112951100Y-81343600D03*
%TO.P,D2,A*%
%TO.N,Net-(D2-PadA)*%
X112951100Y-91503600D03*
%TD*%
D22*
%TO.N,GND*%
X118031100Y-86423600D03*
D23*
X148844000Y-107442000D03*
X149606000Y-106426000D03*
X150622000Y-105410000D03*
X109220000Y-108712000D03*
X142240000Y-78994000D03*
X143510000Y-78994000D03*
X145034000Y-78994000D03*
D22*
%TO.N,+3V3*%
X128191100Y-123253600D03*
X125651100Y-102933600D03*
X126991290Y-119373410D03*
X118031100Y-90233600D03*
%TO.N,/SDA0*%
X111681100Y-118173600D03*
%TO.N,/PWM3*%
X105331100Y-99123600D03*
X111681100Y-115633600D03*
%TO.N,/PWM2*%
X102791100Y-87693600D03*
X111681100Y-111823600D03*
%TO.N,/PWM1*%
X95165684Y-99129016D03*
X106601100Y-110553600D03*
X109141100Y-110553600D03*
X111681100Y-110553600D03*
%TO.N,/PWM0*%
X90091100Y-87693600D03*
X111681100Y-109283600D03*
%TO.N,/BOOT*%
X114221100Y-105473600D03*
%TO.N,/IO_STATUS*%
X128191100Y-97853600D03*
X128191100Y-102933600D03*
%TO.N,/IO_SSR0*%
X153591100Y-91503600D03*
X133271100Y-108013600D03*
%TO.N,/IO_SSR1*%
X133271100Y-109283600D03*
X153591100Y-101663600D03*
%TO.N,/IO_SSR2*%
X133271100Y-110553600D03*
X153591100Y-111823600D03*
%TO.N,/IO_SSR3*%
X133271100Y-111823600D03*
X153591100Y-121983600D03*
%TO.N,/IO_A1*%
X128191100Y-113093600D03*
%TO.N,/IO_A0*%
X123111100Y-90233600D03*
X122850500Y-86423600D03*
X132001100Y-88963600D03*
%TO.N,/EN*%
X128191100Y-120713600D03*
%TD*%
D24*
%TO.N,GND*%
X124381100Y-86553600D02*
X128061100Y-86553600D01*
X128061100Y-86553600D02*
X128191100Y-86423600D01*
X115491100Y-86553600D02*
X115621100Y-86423600D01*
X115621100Y-86423600D02*
X118031100Y-86423600D01*
D25*
X107871100Y-115633600D02*
X109141100Y-115633600D01*
D26*
%TO.N,+5V*%
X140408500Y-87211000D02*
X137081100Y-83883600D01*
X137081100Y-83883600D02*
X128191100Y-83883600D01*
X120571100Y-91503600D02*
X120857812Y-91503600D01*
X120857812Y-91503600D02*
X123286412Y-93932200D01*
X137940775Y-87211000D02*
X140408500Y-87211000D01*
X142161100Y-88963600D02*
X140408500Y-87211000D01*
X142161100Y-88963600D02*
X142161100Y-90233600D01*
X123286412Y-93932200D02*
X131219575Y-93932200D01*
X131219575Y-93932200D02*
X137940775Y-87211000D01*
D27*
%TO.N,+3V3*%
X115491100Y-88833600D02*
X118161100Y-88833600D01*
X118161100Y-88833600D02*
X120571100Y-86423600D01*
X128191100Y-88963600D02*
X124511100Y-88963600D01*
X124511100Y-88963600D02*
X124381100Y-88833600D01*
X124381100Y-88833600D02*
X122981100Y-88833600D01*
X122981100Y-88833600D02*
X120571100Y-86423600D01*
X125781100Y-123253600D02*
X128191100Y-123253600D01*
X126991290Y-104273791D02*
X125651100Y-102933600D01*
X126991290Y-104273791D02*
X126991290Y-119373410D01*
X118031100Y-90233600D02*
X116891100Y-90233600D01*
X116891100Y-90233600D02*
X115491100Y-88833600D01*
X109141100Y-120713600D02*
X122981100Y-120713600D01*
X122981100Y-120713600D02*
X125651100Y-123383600D01*
X125651100Y-123383600D02*
X125781100Y-123253600D01*
X109141100Y-120713600D02*
X105042475Y-120713600D01*
X105042475Y-120713600D02*
X104499675Y-121256400D01*
X104499675Y-121256400D02*
X103333900Y-121256400D01*
X103333900Y-121256400D02*
X101521100Y-119443600D01*
D24*
%TO.N,/SDA0*%
X111681100Y-118173600D02*
X104934706Y-118173600D01*
X104934706Y-118173600D02*
X104468106Y-117707000D01*
X104468106Y-117707000D02*
X100717700Y-117707000D01*
X100717700Y-117707000D02*
X98981100Y-119443600D01*
%TO.N,/PWM3*%
X107388500Y-113503925D02*
X107968775Y-114084200D01*
X107968775Y-114084200D02*
X110131700Y-114084200D01*
X110131700Y-114084200D02*
X111681100Y-115633600D01*
X105331100Y-99123600D02*
X107388500Y-101181000D01*
X107388500Y-101181000D02*
X107388500Y-113503925D01*
%TO.N,/PWM2*%
X107871100Y-92773600D02*
X102791100Y-87693600D01*
X107871100Y-92773600D02*
X107871100Y-110553600D01*
X107871100Y-110553600D02*
X109141100Y-111823600D01*
X109141100Y-111823600D02*
X111681100Y-111823600D01*
%TO.N,/PWM1*%
X106601100Y-102944432D02*
X106601100Y-110553600D01*
X95165684Y-99129016D02*
X102785684Y-99129016D01*
X106601100Y-102944432D02*
X102785684Y-99129016D01*
X109141100Y-110553600D02*
X111681100Y-110553600D01*
%TO.N,/PWM0*%
X108175900Y-105778400D02*
X111681100Y-109283600D01*
X103042450Y-87086800D02*
X108175900Y-92220250D01*
X108175900Y-92220250D02*
X108175900Y-105778400D01*
X90091100Y-87693600D02*
X90697900Y-87086800D01*
X90697900Y-87086800D02*
X103042450Y-87086800D01*
%TO.N,/BOOT*%
X114221100Y-105473600D02*
X119301100Y-100393600D01*
%TO.N,/IO_STATUS*%
X128191100Y-102933600D02*
X128191100Y-97853600D01*
%TO.N,/IO_SSR0*%
X133271100Y-108013600D02*
X145971100Y-108013600D01*
X145971100Y-108013600D02*
X152321100Y-101663600D01*
X152321100Y-92773600D02*
X153591100Y-91503600D01*
X152321100Y-92773600D02*
X152321100Y-101663600D01*
%TO.N,/IO_SSR1*%
X153591100Y-101663600D02*
X152321100Y-102933600D01*
X152321100Y-106743600D02*
X152321100Y-102933600D01*
X133271100Y-109283600D02*
X149781100Y-109283600D01*
X149781100Y-109283600D02*
X152321100Y-106743600D01*
%TO.N,/IO_SSR2*%
X153591100Y-111823600D02*
X153591100Y-111392538D01*
X153591100Y-111392538D02*
X152752159Y-110553600D01*
X133271100Y-110553600D02*
X152752159Y-110553600D01*
%TO.N,/IO_SSR3*%
X149781100Y-115633600D02*
X149781100Y-118173600D01*
X149781100Y-118173600D02*
X153591100Y-121983600D01*
X133271100Y-111823600D02*
X137501756Y-111823600D01*
X137501756Y-111823600D02*
X137730356Y-111595000D01*
X137730356Y-111595000D02*
X145742500Y-111595000D01*
X145742500Y-111595000D02*
X149781100Y-115633600D01*
%TO.N,/IO_A1*%
X115491100Y-91633600D02*
X115491100Y-90956888D01*
X115491100Y-84430313D02*
X115491100Y-83753600D01*
X115491100Y-90956888D02*
X114262500Y-89728288D01*
X114262500Y-85658913D02*
X115491100Y-84430313D01*
X114262500Y-89728288D02*
X114262500Y-85658913D01*
X115491100Y-83753600D02*
X120441100Y-83753600D01*
X120441100Y-83753600D02*
X120571100Y-83883600D01*
X115491100Y-91633600D02*
X128191100Y-104333600D01*
X128191100Y-104333600D02*
X128191100Y-113093600D01*
%TO.N,/IO_A0*%
X128191100Y-91503600D02*
X128061100Y-91633600D01*
X128061100Y-91633600D02*
X124381100Y-91633600D01*
X124381100Y-91633600D02*
X123111100Y-90363600D01*
X123111100Y-90363600D02*
X123111100Y-90233600D01*
X122850500Y-86423600D02*
X123152500Y-86121600D01*
X123152500Y-86121600D02*
X123152500Y-85658913D01*
X124381100Y-84430313D02*
X124381100Y-83753600D01*
X123152500Y-85658913D02*
X124381100Y-84430313D01*
X129461100Y-91503600D02*
X128191100Y-91503600D01*
X129461100Y-91503600D02*
X132001100Y-88963600D01*
%TO.N,/EN*%
X125651100Y-120583600D02*
X125781100Y-120713600D01*
X125781100Y-120713600D02*
X128191100Y-120713600D01*
X109141100Y-113093600D02*
X118161100Y-113093600D01*
X118161100Y-113093600D02*
X125651100Y-120583600D01*
%TD*%
D28*
%TO.N,GND*%
X177761900Y-131674100D02*
X85480600Y-131674100D01*
X85480600Y-128132234D01*
X86776600Y-128132234D01*
X86776600Y-128534966D01*
X86855169Y-128929959D01*
X87009288Y-129302034D01*
X87233034Y-129636892D01*
X87517808Y-129921666D01*
X87852666Y-130145412D01*
X88224741Y-130299531D01*
X88619734Y-130378100D01*
X89022466Y-130378100D01*
X89417459Y-130299531D01*
X89789534Y-130145412D01*
X90124392Y-129921666D01*
X90409166Y-129636892D01*
X90565960Y-129402234D01*
X171866600Y-129402234D01*
X171866600Y-129804966D01*
X171945169Y-130199959D01*
X172099288Y-130572034D01*
X172323034Y-130906892D01*
X172607808Y-131191666D01*
X172942666Y-131415412D01*
X173314741Y-131569531D01*
X173709734Y-131648100D01*
X174112466Y-131648100D01*
X174507459Y-131569531D01*
X174879534Y-131415412D01*
X175214392Y-131191666D01*
X175499166Y-130906892D01*
X175722912Y-130572034D01*
X175877031Y-130199959D01*
X175955600Y-129804966D01*
X175955600Y-129402234D01*
X175877031Y-129007241D01*
X175722912Y-128635166D01*
X175499166Y-128300308D01*
X175214392Y-128015534D01*
X174879534Y-127791788D01*
X174507459Y-127637669D01*
X174112466Y-127559100D01*
X173709734Y-127559100D01*
X173314741Y-127637669D01*
X172942666Y-127791788D01*
X172607808Y-128015534D01*
X172323034Y-128300308D01*
X172099288Y-128635166D01*
X171945169Y-129007241D01*
X171866600Y-129402234D01*
X90565960Y-129402234D01*
X90632912Y-129302034D01*
X90787031Y-128929959D01*
X90865600Y-128534966D01*
X90865600Y-128132234D01*
X90787031Y-127737241D01*
X90632912Y-127365166D01*
X90409166Y-127030308D01*
X90124392Y-126745534D01*
X89789534Y-126521788D01*
X89417459Y-126367669D01*
X89022466Y-126289100D01*
X88619734Y-126289100D01*
X88224741Y-126367669D01*
X87852666Y-126521788D01*
X87517808Y-126745534D01*
X87233034Y-127030308D01*
X87009288Y-127365166D01*
X86855169Y-127737241D01*
X86776600Y-128132234D01*
X85480600Y-128132234D01*
X85480600Y-126250722D01*
X95242600Y-126250722D01*
X95242600Y-127876479D01*
X95259941Y-128052547D01*
X95328474Y-128278465D01*
X95439763Y-128486673D01*
X95589533Y-128669168D01*
X95772028Y-128818938D01*
X95980236Y-128930227D01*
X96206154Y-128998759D01*
X96441100Y-129021899D01*
X96676047Y-128998759D01*
X96901965Y-128930227D01*
X97110173Y-128818938D01*
X97292668Y-128669168D01*
X97442438Y-128486673D01*
X97553727Y-128278465D01*
X97622259Y-128052547D01*
X97639600Y-127876479D01*
X97639600Y-126250722D01*
X97782600Y-126250722D01*
X97782600Y-127876479D01*
X97799941Y-128052547D01*
X97868474Y-128278465D01*
X97979763Y-128486673D01*
X98129533Y-128669168D01*
X98312028Y-128818938D01*
X98520236Y-128930227D01*
X98746154Y-128998759D01*
X98981100Y-129021899D01*
X99216047Y-128998759D01*
X99441965Y-128930227D01*
X99650173Y-128818938D01*
X99832668Y-128669168D01*
X99982438Y-128486673D01*
X100093727Y-128278465D01*
X100162259Y-128052547D01*
X100179600Y-127876479D01*
X100179600Y-126250722D01*
X100322600Y-126250722D01*
X100322600Y-127876479D01*
X100339941Y-128052547D01*
X100408474Y-128278465D01*
X100519763Y-128486673D01*
X100669533Y-128669168D01*
X100852028Y-128818938D01*
X101060236Y-128930227D01*
X101286154Y-128998759D01*
X101521100Y-129021899D01*
X101756047Y-128998759D01*
X101981965Y-128930227D01*
X102190173Y-128818938D01*
X102372668Y-128669168D01*
X102522438Y-128486673D01*
X102633727Y-128278465D01*
X102702259Y-128052547D01*
X102719600Y-127876479D01*
X102719600Y-126250721D01*
X102702259Y-126074653D01*
X102633727Y-125848735D01*
X102604257Y-125793600D01*
X107166763Y-125793600D01*
X107190058Y-126030115D01*
X107259047Y-126257541D01*
X107371079Y-126467138D01*
X107521848Y-126650852D01*
X107705562Y-126801621D01*
X107915159Y-126913653D01*
X108142585Y-126982642D01*
X108319837Y-127000100D01*
X109962363Y-127000100D01*
X110139615Y-126982642D01*
X110367041Y-126913653D01*
X110576638Y-126801621D01*
X110760352Y-126650852D01*
X110911121Y-126467138D01*
X111023153Y-126257541D01*
X111092142Y-126030115D01*
X111115437Y-125793600D01*
X111092142Y-125557085D01*
X111023153Y-125329659D01*
X110911121Y-125120062D01*
X110760352Y-124936348D01*
X110576638Y-124785579D01*
X110367041Y-124673547D01*
X110139615Y-124604558D01*
X109962363Y-124587100D01*
X108319837Y-124587100D01*
X108142585Y-124604558D01*
X107915159Y-124673547D01*
X107705562Y-124785579D01*
X107521848Y-124936348D01*
X107371079Y-125120062D01*
X107259047Y-125329659D01*
X107190058Y-125557085D01*
X107166763Y-125793600D01*
X102604257Y-125793600D01*
X102522438Y-125640527D01*
X102372668Y-125458032D01*
X102190172Y-125308262D01*
X101981964Y-125196973D01*
X101756046Y-125128441D01*
X101521100Y-125105301D01*
X101286153Y-125128441D01*
X101060235Y-125196973D01*
X100852027Y-125308262D01*
X100669532Y-125458032D01*
X100519762Y-125640528D01*
X100408473Y-125848736D01*
X100339941Y-126074654D01*
X100322600Y-126250722D01*
X100179600Y-126250722D01*
X100179600Y-126250721D01*
X100162259Y-126074653D01*
X100093727Y-125848735D01*
X99982438Y-125640527D01*
X99832668Y-125458032D01*
X99650172Y-125308262D01*
X99441964Y-125196973D01*
X99216046Y-125128441D01*
X98981100Y-125105301D01*
X98746153Y-125128441D01*
X98520235Y-125196973D01*
X98312027Y-125308262D01*
X98129532Y-125458032D01*
X97979762Y-125640528D01*
X97868473Y-125848736D01*
X97799941Y-126074654D01*
X97782600Y-126250722D01*
X97639600Y-126250722D01*
X97639600Y-126250721D01*
X97622259Y-126074653D01*
X97553727Y-125848735D01*
X97442438Y-125640527D01*
X97292668Y-125458032D01*
X97110172Y-125308262D01*
X96901964Y-125196973D01*
X96676046Y-125128441D01*
X96441100Y-125105301D01*
X96206153Y-125128441D01*
X95980235Y-125196973D01*
X95772027Y-125308262D01*
X95589532Y-125458032D01*
X95439762Y-125640528D01*
X95328473Y-125848736D01*
X95259941Y-126074654D01*
X95242600Y-126250722D01*
X85480600Y-126250722D01*
X85480600Y-123253600D01*
X107166763Y-123253600D01*
X107190058Y-123490115D01*
X107259047Y-123717541D01*
X107371079Y-123927138D01*
X107521848Y-124110852D01*
X107705562Y-124261621D01*
X107915159Y-124373653D01*
X108142585Y-124442642D01*
X108319837Y-124460100D01*
X109962363Y-124460100D01*
X110139615Y-124442642D01*
X110367041Y-124373653D01*
X110576638Y-124261621D01*
X110760352Y-124110852D01*
X110911121Y-123927138D01*
X111023153Y-123717541D01*
X111092142Y-123490115D01*
X111115437Y-123253600D01*
X111092142Y-123017085D01*
X111023153Y-122789659D01*
X110911121Y-122580062D01*
X110760352Y-122396348D01*
X110576638Y-122245579D01*
X110367041Y-122133547D01*
X110139615Y-122064558D01*
X109962363Y-122047100D01*
X108319837Y-122047100D01*
X108142585Y-122064558D01*
X107915159Y-122133547D01*
X107705562Y-122245579D01*
X107521848Y-122396348D01*
X107371079Y-122580062D01*
X107259047Y-122789659D01*
X107190058Y-123017085D01*
X107166763Y-123253600D01*
X85480600Y-123253600D01*
X85480600Y-118630722D01*
X95242600Y-118630722D01*
X95242600Y-120256479D01*
X95259941Y-120432547D01*
X95328474Y-120658465D01*
X95439763Y-120866673D01*
X95589533Y-121049168D01*
X95772028Y-121198938D01*
X95980236Y-121310227D01*
X96206154Y-121378759D01*
X96441100Y-121401899D01*
X96676047Y-121378759D01*
X96901965Y-121310227D01*
X97110173Y-121198938D01*
X97292668Y-121049168D01*
X97442438Y-120866673D01*
X97553727Y-120658465D01*
X97622259Y-120432547D01*
X97639600Y-120256479D01*
X97639600Y-118630721D01*
X97622259Y-118454653D01*
X97553727Y-118228735D01*
X97442438Y-118020527D01*
X97292668Y-117838032D01*
X97110172Y-117688262D01*
X96901964Y-117576973D01*
X96676046Y-117508441D01*
X96441100Y-117485301D01*
X96206153Y-117508441D01*
X95980235Y-117576973D01*
X95772027Y-117688262D01*
X95589532Y-117838032D01*
X95439762Y-118020528D01*
X95328473Y-118228736D01*
X95259941Y-118454654D01*
X95242600Y-118630722D01*
X85480600Y-118630722D01*
X85480600Y-111010722D01*
X95242600Y-111010722D01*
X95242600Y-112636479D01*
X95259941Y-112812547D01*
X95328474Y-113038465D01*
X95439763Y-113246673D01*
X95589533Y-113429168D01*
X95772028Y-113578938D01*
X95980236Y-113690227D01*
X96206154Y-113758759D01*
X96441100Y-113781899D01*
X96676047Y-113758759D01*
X96901965Y-113690227D01*
X97110173Y-113578938D01*
X97292668Y-113429168D01*
X97442438Y-113246673D01*
X97553727Y-113038465D01*
X97622259Y-112812547D01*
X97639600Y-112636479D01*
X97639600Y-111010722D01*
X97782600Y-111010722D01*
X97782600Y-112636479D01*
X97799941Y-112812547D01*
X97868474Y-113038465D01*
X97979763Y-113246673D01*
X98129533Y-113429168D01*
X98312028Y-113578938D01*
X98520236Y-113690227D01*
X98746154Y-113758759D01*
X98981100Y-113781899D01*
X99216047Y-113758759D01*
X99441965Y-113690227D01*
X99650173Y-113578938D01*
X99832668Y-113429168D01*
X99982438Y-113246673D01*
X100093727Y-113038465D01*
X100162259Y-112812547D01*
X100179600Y-112636479D01*
X100179600Y-111010722D01*
X100322600Y-111010722D01*
X100322600Y-112636479D01*
X100339941Y-112812547D01*
X100408474Y-113038465D01*
X100519763Y-113246673D01*
X100669533Y-113429168D01*
X100852028Y-113578938D01*
X101060236Y-113690227D01*
X101286154Y-113758759D01*
X101521100Y-113781899D01*
X101756047Y-113758759D01*
X101981965Y-113690227D01*
X102190173Y-113578938D01*
X102372668Y-113429168D01*
X102522438Y-113246673D01*
X102633727Y-113038465D01*
X102702259Y-112812547D01*
X102719600Y-112636479D01*
X102719600Y-111010721D01*
X102702259Y-110834653D01*
X102633727Y-110608735D01*
X102522438Y-110400527D01*
X102372668Y-110218032D01*
X102190172Y-110068262D01*
X101981964Y-109956973D01*
X101756046Y-109888441D01*
X101521100Y-109865301D01*
X101286153Y-109888441D01*
X101060235Y-109956973D01*
X100852027Y-110068262D01*
X100669532Y-110218032D01*
X100519762Y-110400528D01*
X100408473Y-110608736D01*
X100339941Y-110834654D01*
X100322600Y-111010722D01*
X100179600Y-111010722D01*
X100179600Y-111010721D01*
X100162259Y-110834653D01*
X100093727Y-110608735D01*
X99982438Y-110400527D01*
X99832668Y-110218032D01*
X99650172Y-110068262D01*
X99441964Y-109956973D01*
X99216046Y-109888441D01*
X98981100Y-109865301D01*
X98746153Y-109888441D01*
X98520235Y-109956973D01*
X98312027Y-110068262D01*
X98129532Y-110218032D01*
X97979762Y-110400528D01*
X97868473Y-110608736D01*
X97799941Y-110834654D01*
X97782600Y-111010722D01*
X97639600Y-111010722D01*
X97639600Y-111010721D01*
X97622259Y-110834653D01*
X97553727Y-110608735D01*
X97442438Y-110400527D01*
X97292668Y-110218032D01*
X97110172Y-110068262D01*
X96901964Y-109956973D01*
X96676046Y-109888441D01*
X96441100Y-109865301D01*
X96206153Y-109888441D01*
X95980235Y-109956973D01*
X95772027Y-110068262D01*
X95589532Y-110218032D01*
X95439762Y-110400528D01*
X95328473Y-110608736D01*
X95259941Y-110834654D01*
X95242600Y-111010722D01*
X85480600Y-111010722D01*
X85480600Y-102732234D01*
X86776600Y-102732234D01*
X86776600Y-103134966D01*
X86855169Y-103529959D01*
X87009288Y-103902034D01*
X87233034Y-104236892D01*
X87517808Y-104521666D01*
X87852666Y-104745412D01*
X88224741Y-104899531D01*
X88619734Y-104978100D01*
X89022466Y-104978100D01*
X89417459Y-104899531D01*
X89789534Y-104745412D01*
X90124392Y-104521666D01*
X90409166Y-104236892D01*
X90632912Y-103902034D01*
X90787031Y-103529959D01*
X90814726Y-103390722D01*
X95242600Y-103390722D01*
X95242600Y-105016479D01*
X95259941Y-105192547D01*
X95328474Y-105418465D01*
X95439763Y-105626673D01*
X95589533Y-105809168D01*
X95772028Y-105958938D01*
X95980236Y-106070227D01*
X96206154Y-106138759D01*
X96441100Y-106161899D01*
X96676047Y-106138759D01*
X96901965Y-106070227D01*
X97110173Y-105958938D01*
X97292668Y-105809168D01*
X97442438Y-105626673D01*
X97553727Y-105418465D01*
X97622259Y-105192547D01*
X97639600Y-105016479D01*
X97639600Y-103390722D01*
X97782600Y-103390722D01*
X97782600Y-105016479D01*
X97799941Y-105192547D01*
X97868474Y-105418465D01*
X97979763Y-105626673D01*
X98129533Y-105809168D01*
X98312028Y-105958938D01*
X98520236Y-106070227D01*
X98746154Y-106138759D01*
X98981100Y-106161899D01*
X99216047Y-106138759D01*
X99441965Y-106070227D01*
X99650173Y-105958938D01*
X99832668Y-105809168D01*
X99982438Y-105626673D01*
X100093727Y-105418465D01*
X100162259Y-105192547D01*
X100179600Y-105016479D01*
X100179600Y-103390722D01*
X100322600Y-103390722D01*
X100322600Y-105016479D01*
X100339941Y-105192547D01*
X100408474Y-105418465D01*
X100519763Y-105626673D01*
X100669533Y-105809168D01*
X100852028Y-105958938D01*
X101060236Y-106070227D01*
X101286154Y-106138759D01*
X101521100Y-106161899D01*
X101756047Y-106138759D01*
X101981965Y-106070227D01*
X102190173Y-105958938D01*
X102372668Y-105809168D01*
X102522438Y-105626673D01*
X102633727Y-105418465D01*
X102702259Y-105192547D01*
X102719600Y-105016479D01*
X102719600Y-103390721D01*
X102702259Y-103214653D01*
X102633727Y-102988735D01*
X102522438Y-102780527D01*
X102372668Y-102598032D01*
X102190172Y-102448262D01*
X101981964Y-102336973D01*
X101756046Y-102268441D01*
X101521100Y-102245301D01*
X101286153Y-102268441D01*
X101060235Y-102336973D01*
X100852027Y-102448262D01*
X100669532Y-102598032D01*
X100519762Y-102780528D01*
X100408473Y-102988736D01*
X100339941Y-103214654D01*
X100322600Y-103390722D01*
X100179600Y-103390722D01*
X100179600Y-103390721D01*
X100162259Y-103214653D01*
X100093727Y-102988735D01*
X99982438Y-102780527D01*
X99832668Y-102598032D01*
X99650172Y-102448262D01*
X99441964Y-102336973D01*
X99216046Y-102268441D01*
X98981100Y-102245301D01*
X98746153Y-102268441D01*
X98520235Y-102336973D01*
X98312027Y-102448262D01*
X98129532Y-102598032D01*
X97979762Y-102780528D01*
X97868473Y-102988736D01*
X97799941Y-103214654D01*
X97782600Y-103390722D01*
X97639600Y-103390722D01*
X97639600Y-103390721D01*
X97622259Y-103214653D01*
X97553727Y-102988735D01*
X97442438Y-102780527D01*
X97292668Y-102598032D01*
X97110172Y-102448262D01*
X96901964Y-102336973D01*
X96676046Y-102268441D01*
X96441100Y-102245301D01*
X96206153Y-102268441D01*
X95980235Y-102336973D01*
X95772027Y-102448262D01*
X95589532Y-102598032D01*
X95439762Y-102780528D01*
X95328473Y-102988736D01*
X95259941Y-103214654D01*
X95242600Y-103390722D01*
X90814726Y-103390722D01*
X90865600Y-103134966D01*
X90865600Y-102732234D01*
X90787031Y-102337241D01*
X90632912Y-101965166D01*
X90409166Y-101630308D01*
X90124392Y-101345534D01*
X89789534Y-101121788D01*
X89417459Y-100967669D01*
X89022466Y-100889100D01*
X88619734Y-100889100D01*
X88224741Y-100967669D01*
X87852666Y-101121788D01*
X87517808Y-101345534D01*
X87233034Y-101630308D01*
X87009288Y-101965166D01*
X86855169Y-102337241D01*
X86776600Y-102732234D01*
X85480600Y-102732234D01*
X85480600Y-87612571D01*
X89268400Y-87612571D01*
X89268400Y-87774629D01*
X89300016Y-87933573D01*
X89362032Y-88083295D01*
X89452067Y-88218041D01*
X89566659Y-88332633D01*
X89701405Y-88422668D01*
X89851127Y-88484684D01*
X90010071Y-88516300D01*
X90172129Y-88516300D01*
X90331073Y-88484684D01*
X90480795Y-88422668D01*
X90615541Y-88332633D01*
X90730133Y-88218041D01*
X90820168Y-88083295D01*
X90882184Y-87933573D01*
X90913800Y-87774629D01*
X90913800Y-87612571D01*
X90912922Y-87608158D01*
X90913581Y-87607500D01*
X101969409Y-87607500D01*
X101968400Y-87612571D01*
X101968400Y-87774629D01*
X102000016Y-87933573D01*
X102062032Y-88083295D01*
X102152067Y-88218041D01*
X102266659Y-88332633D01*
X102401405Y-88422668D01*
X102551127Y-88484684D01*
X102710071Y-88516300D01*
X102872129Y-88516300D01*
X102876542Y-88515422D01*
X107350400Y-92989281D01*
X107350400Y-100406520D01*
X106152922Y-99209042D01*
X106153800Y-99204629D01*
X106153800Y-99042571D01*
X106122184Y-98883627D01*
X106060168Y-98733905D01*
X105970133Y-98599159D01*
X105855541Y-98484567D01*
X105720795Y-98394532D01*
X105571073Y-98332516D01*
X105412129Y-98300900D01*
X105250071Y-98300900D01*
X105091127Y-98332516D01*
X104941405Y-98394532D01*
X104806659Y-98484567D01*
X104692067Y-98599159D01*
X104602032Y-98733905D01*
X104540016Y-98883627D01*
X104508400Y-99042571D01*
X104508400Y-99204629D01*
X104540016Y-99363573D01*
X104602032Y-99513295D01*
X104692067Y-99648041D01*
X104806659Y-99762633D01*
X104941405Y-99852668D01*
X105091127Y-99914684D01*
X105250071Y-99946300D01*
X105412129Y-99946300D01*
X105416542Y-99945422D01*
X106867800Y-101396681D01*
X106867800Y-102474751D01*
X103171967Y-98778919D01*
X103155656Y-98759044D01*
X103076369Y-98693975D01*
X102985911Y-98645625D01*
X102887759Y-98615851D01*
X102811259Y-98608316D01*
X102785684Y-98605797D01*
X102760109Y-98608316D01*
X95807217Y-98608316D01*
X95804717Y-98604575D01*
X95690125Y-98489983D01*
X95555379Y-98399948D01*
X95405657Y-98337932D01*
X95246713Y-98306316D01*
X95084655Y-98306316D01*
X94925711Y-98337932D01*
X94775989Y-98399948D01*
X94641243Y-98489983D01*
X94526651Y-98604575D01*
X94436616Y-98739321D01*
X94374600Y-98889043D01*
X94342984Y-99047987D01*
X94342984Y-99210045D01*
X94374600Y-99368989D01*
X94436616Y-99518711D01*
X94526651Y-99653457D01*
X94641243Y-99768049D01*
X94775989Y-99858084D01*
X94925711Y-99920100D01*
X95084655Y-99951716D01*
X95246713Y-99951716D01*
X95405657Y-99920100D01*
X95555379Y-99858084D01*
X95690125Y-99768049D01*
X95804717Y-99653457D01*
X95807217Y-99649716D01*
X102570004Y-99649716D01*
X106080400Y-103160113D01*
X106080401Y-109912067D01*
X106076659Y-109914567D01*
X105962067Y-110029159D01*
X105872032Y-110163905D01*
X105810016Y-110313627D01*
X105778400Y-110472571D01*
X105778400Y-110634629D01*
X105810016Y-110793573D01*
X105872032Y-110943295D01*
X105962067Y-111078041D01*
X106076659Y-111192633D01*
X106211405Y-111282668D01*
X106361127Y-111344684D01*
X106520071Y-111376300D01*
X106682129Y-111376300D01*
X106841073Y-111344684D01*
X106867801Y-111333613D01*
X106867801Y-113478340D01*
X106865281Y-113503925D01*
X106875335Y-113606000D01*
X106888428Y-113649159D01*
X106905110Y-113704152D01*
X106953460Y-113794610D01*
X107018529Y-113873897D01*
X107038398Y-113890203D01*
X107582497Y-114434303D01*
X107598803Y-114454172D01*
X107678090Y-114519241D01*
X107737039Y-114550749D01*
X107768547Y-114567591D01*
X107866700Y-114597365D01*
X107968775Y-114607419D01*
X107994350Y-114604900D01*
X109916020Y-114604900D01*
X110859278Y-115548158D01*
X110858400Y-115552571D01*
X110858400Y-115714629D01*
X110890016Y-115873573D01*
X110952032Y-116023295D01*
X111042067Y-116158041D01*
X111156659Y-116272633D01*
X111291405Y-116362668D01*
X111441127Y-116424684D01*
X111600071Y-116456300D01*
X111762129Y-116456300D01*
X111921073Y-116424684D01*
X112070795Y-116362668D01*
X112205541Y-116272633D01*
X112320133Y-116158041D01*
X112410168Y-116023295D01*
X112472184Y-115873573D01*
X112503800Y-115714629D01*
X112503800Y-115552571D01*
X112472184Y-115393627D01*
X112410168Y-115243905D01*
X112320133Y-115109159D01*
X112205541Y-114994567D01*
X112070795Y-114904532D01*
X111921073Y-114842516D01*
X111762129Y-114810900D01*
X111600071Y-114810900D01*
X111595658Y-114811778D01*
X110746280Y-113962400D01*
X110760352Y-113950852D01*
X110911121Y-113767138D01*
X110992815Y-113614300D01*
X117945420Y-113614300D01*
X124204450Y-119873331D01*
X124204450Y-121092807D01*
X123423909Y-120312266D01*
X123405214Y-120289486D01*
X123314324Y-120214895D01*
X123210629Y-120159468D01*
X123098113Y-120125337D01*
X123010422Y-120116700D01*
X123010411Y-120116700D01*
X122981100Y-120113813D01*
X122951789Y-120116700D01*
X110952085Y-120116700D01*
X110911121Y-120040062D01*
X110760352Y-119856348D01*
X110576638Y-119705579D01*
X110367041Y-119593547D01*
X110139615Y-119524558D01*
X109962363Y-119507100D01*
X108319837Y-119507100D01*
X108142585Y-119524558D01*
X107915159Y-119593547D01*
X107705562Y-119705579D01*
X107521848Y-119856348D01*
X107371079Y-120040062D01*
X107330115Y-120116700D01*
X105071786Y-120116700D01*
X105042474Y-120113813D01*
X105013163Y-120116700D01*
X105013153Y-120116700D01*
X104925462Y-120125337D01*
X104812946Y-120159468D01*
X104764677Y-120185269D01*
X104709250Y-120214895D01*
X104658580Y-120256479D01*
X104618361Y-120289486D01*
X104599671Y-120312260D01*
X104252432Y-120659500D01*
X103581144Y-120659500D01*
X102719600Y-119797957D01*
X102719600Y-118630721D01*
X102702259Y-118454653D01*
X102633727Y-118228735D01*
X102633174Y-118227700D01*
X104252426Y-118227700D01*
X104548428Y-118523702D01*
X104564734Y-118543572D01*
X104644021Y-118608641D01*
X104734479Y-118656991D01*
X104802856Y-118677733D01*
X104832630Y-118686765D01*
X104934705Y-118696819D01*
X104960280Y-118694300D01*
X111039567Y-118694300D01*
X111042067Y-118698041D01*
X111156659Y-118812633D01*
X111291405Y-118902668D01*
X111441127Y-118964684D01*
X111600071Y-118996300D01*
X111762129Y-118996300D01*
X111921073Y-118964684D01*
X112070795Y-118902668D01*
X112205541Y-118812633D01*
X112320133Y-118698041D01*
X112410168Y-118563295D01*
X112472184Y-118413573D01*
X112503800Y-118254629D01*
X112503800Y-118092571D01*
X112472184Y-117933627D01*
X112410168Y-117783905D01*
X112320133Y-117649159D01*
X112205541Y-117534567D01*
X112070795Y-117444532D01*
X111921073Y-117382516D01*
X111762129Y-117350900D01*
X111600071Y-117350900D01*
X111441127Y-117382516D01*
X111291405Y-117444532D01*
X111156659Y-117534567D01*
X111042067Y-117649159D01*
X111039567Y-117652900D01*
X105150387Y-117652900D01*
X104854388Y-117356902D01*
X104838078Y-117337028D01*
X104758791Y-117271959D01*
X104668333Y-117223609D01*
X104570181Y-117193835D01*
X104493681Y-117186300D01*
X104468106Y-117183781D01*
X104442531Y-117186300D01*
X100743274Y-117186300D01*
X100717699Y-117183781D01*
X100615624Y-117193835D01*
X100585850Y-117202867D01*
X100517473Y-117223609D01*
X100427015Y-117271959D01*
X100347728Y-117337028D01*
X100331422Y-117356897D01*
X99840610Y-117847709D01*
X99832668Y-117838032D01*
X99650172Y-117688262D01*
X99441964Y-117576973D01*
X99216046Y-117508441D01*
X98981100Y-117485301D01*
X98746153Y-117508441D01*
X98520235Y-117576973D01*
X98312027Y-117688262D01*
X98129532Y-117838032D01*
X97979762Y-118020528D01*
X97868473Y-118228736D01*
X97799941Y-118454654D01*
X97782600Y-118630722D01*
X97782600Y-120256479D01*
X97799941Y-120432547D01*
X97868474Y-120658465D01*
X97979763Y-120866673D01*
X98129533Y-121049168D01*
X98312028Y-121198938D01*
X98520236Y-121310227D01*
X98746154Y-121378759D01*
X98981100Y-121401899D01*
X99216047Y-121378759D01*
X99441965Y-121310227D01*
X99650173Y-121198938D01*
X99832668Y-121049168D01*
X99982438Y-120866673D01*
X100093727Y-120658465D01*
X100162259Y-120432547D01*
X100179600Y-120256479D01*
X100179600Y-118981480D01*
X100322600Y-118838481D01*
X100322600Y-120256479D01*
X100339941Y-120432547D01*
X100408474Y-120658465D01*
X100519763Y-120866673D01*
X100669533Y-121049168D01*
X100852028Y-121198938D01*
X101060236Y-121310227D01*
X101286154Y-121378759D01*
X101521100Y-121401899D01*
X101756047Y-121378759D01*
X101981965Y-121310227D01*
X102190173Y-121198938D01*
X102323157Y-121089801D01*
X102891096Y-121657740D01*
X102909786Y-121680514D01*
X102932560Y-121699204D01*
X102932561Y-121699205D01*
X103000675Y-121755105D01*
X103053561Y-121783373D01*
X103104371Y-121810532D01*
X103216887Y-121844663D01*
X103304578Y-121853300D01*
X103304588Y-121853300D01*
X103333899Y-121856187D01*
X103363211Y-121853300D01*
X104470364Y-121853300D01*
X104499675Y-121856187D01*
X104528986Y-121853300D01*
X104528997Y-121853300D01*
X104616688Y-121844663D01*
X104729204Y-121810532D01*
X104832899Y-121755105D01*
X104923789Y-121680514D01*
X104942483Y-121657735D01*
X105289719Y-121310500D01*
X107330115Y-121310500D01*
X107371079Y-121387138D01*
X107521848Y-121570852D01*
X107705562Y-121721621D01*
X107915159Y-121833653D01*
X108142585Y-121902642D01*
X108319837Y-121920100D01*
X109962363Y-121920100D01*
X110139615Y-121902642D01*
X110367041Y-121833653D01*
X110576638Y-121721621D01*
X110760352Y-121570852D01*
X110911121Y-121387138D01*
X110952085Y-121310500D01*
X122733857Y-121310500D01*
X124204450Y-122781094D01*
X124204450Y-124183600D01*
X124213032Y-124270737D01*
X124238449Y-124354526D01*
X124279724Y-124431745D01*
X124335271Y-124499429D01*
X124402955Y-124554976D01*
X124480174Y-124596251D01*
X124563963Y-124621668D01*
X124651100Y-124630250D01*
X126651100Y-124630250D01*
X126738237Y-124621668D01*
X126822026Y-124596251D01*
X126899245Y-124554976D01*
X126922905Y-124535558D01*
X170172600Y-124535558D01*
X170172600Y-124771642D01*
X170218658Y-125003190D01*
X170309003Y-125221303D01*
X170440164Y-125417599D01*
X170607101Y-125584536D01*
X170803397Y-125715697D01*
X171021510Y-125806042D01*
X171253058Y-125852100D01*
X171489142Y-125852100D01*
X171720690Y-125806042D01*
X171938803Y-125715697D01*
X172135099Y-125584536D01*
X172302036Y-125417599D01*
X172433197Y-125221303D01*
X172523542Y-125003190D01*
X172569600Y-124771642D01*
X172569600Y-124535558D01*
X172712600Y-124535558D01*
X172712600Y-124771642D01*
X172758658Y-125003190D01*
X172849003Y-125221303D01*
X172980164Y-125417599D01*
X173147101Y-125584536D01*
X173343397Y-125715697D01*
X173561510Y-125806042D01*
X173793058Y-125852100D01*
X174029142Y-125852100D01*
X174260690Y-125806042D01*
X174478803Y-125715697D01*
X174675099Y-125584536D01*
X174842036Y-125417599D01*
X174973197Y-125221303D01*
X175063542Y-125003190D01*
X175109600Y-124771642D01*
X175109600Y-124535558D01*
X175063542Y-124304010D01*
X174973197Y-124085897D01*
X174842036Y-123889601D01*
X174675099Y-123722664D01*
X174478803Y-123591503D01*
X174260690Y-123501158D01*
X174029142Y-123455100D01*
X173793058Y-123455100D01*
X173561510Y-123501158D01*
X173343397Y-123591503D01*
X173147101Y-123722664D01*
X172980164Y-123889601D01*
X172849003Y-124085897D01*
X172758658Y-124304010D01*
X172712600Y-124535558D01*
X172569600Y-124535558D01*
X172523542Y-124304010D01*
X172433197Y-124085897D01*
X172302036Y-123889601D01*
X172135099Y-123722664D01*
X171938803Y-123591503D01*
X171720690Y-123501158D01*
X171489142Y-123455100D01*
X171253058Y-123455100D01*
X171021510Y-123501158D01*
X170803397Y-123591503D01*
X170607101Y-123722664D01*
X170440164Y-123889601D01*
X170309003Y-124085897D01*
X170218658Y-124304010D01*
X170172600Y-124535558D01*
X126922905Y-124535558D01*
X126966929Y-124499429D01*
X127022476Y-124431745D01*
X127063751Y-124354526D01*
X127089168Y-124270737D01*
X127097750Y-124183600D01*
X127097750Y-123850500D01*
X127624526Y-123850500D01*
X127666659Y-123892633D01*
X127801405Y-123982668D01*
X127951127Y-124044684D01*
X128110071Y-124076300D01*
X128272129Y-124076300D01*
X128431073Y-124044684D01*
X128580795Y-123982668D01*
X128715541Y-123892633D01*
X128830133Y-123778041D01*
X128920168Y-123643295D01*
X128982184Y-123493573D01*
X129013800Y-123334629D01*
X129013800Y-123172571D01*
X128982184Y-123013627D01*
X128920168Y-122863905D01*
X128830133Y-122729159D01*
X128715541Y-122614567D01*
X128580795Y-122524532D01*
X128431073Y-122462516D01*
X128272129Y-122430900D01*
X128110071Y-122430900D01*
X127951127Y-122462516D01*
X127801405Y-122524532D01*
X127666659Y-122614567D01*
X127624526Y-122656700D01*
X127097750Y-122656700D01*
X127097750Y-122583600D01*
X127089168Y-122496463D01*
X127063751Y-122412674D01*
X127022476Y-122335455D01*
X126966929Y-122267771D01*
X126899245Y-122212224D01*
X126822026Y-122170949D01*
X126738237Y-122145532D01*
X126651100Y-122136950D01*
X125248594Y-122136950D01*
X124941894Y-121830250D01*
X126651100Y-121830250D01*
X126738237Y-121821668D01*
X126822026Y-121796251D01*
X126899245Y-121754976D01*
X126966929Y-121699429D01*
X127022476Y-121631745D01*
X127063751Y-121554526D01*
X127089168Y-121470737D01*
X127097750Y-121383600D01*
X127097750Y-121234300D01*
X127549567Y-121234300D01*
X127552067Y-121238041D01*
X127666659Y-121352633D01*
X127801405Y-121442668D01*
X127951127Y-121504684D01*
X128110071Y-121536300D01*
X128272129Y-121536300D01*
X128431073Y-121504684D01*
X128580795Y-121442668D01*
X128715541Y-121352633D01*
X128830133Y-121238041D01*
X128920168Y-121103295D01*
X128982184Y-120953573D01*
X129013800Y-120794629D01*
X129013800Y-120632571D01*
X128982184Y-120473627D01*
X128920168Y-120323905D01*
X128830133Y-120189159D01*
X128715541Y-120074567D01*
X128580795Y-119984532D01*
X128431073Y-119922516D01*
X128272129Y-119890900D01*
X128110071Y-119890900D01*
X127951127Y-119922516D01*
X127801405Y-119984532D01*
X127666659Y-120074567D01*
X127552067Y-120189159D01*
X127549567Y-120192900D01*
X127097750Y-120192900D01*
X127097750Y-120191051D01*
X127231263Y-120164494D01*
X127380985Y-120102478D01*
X127515731Y-120012443D01*
X127630323Y-119897851D01*
X127720358Y-119763105D01*
X127782374Y-119613383D01*
X127813990Y-119454439D01*
X127813990Y-119292381D01*
X127782374Y-119133437D01*
X127720358Y-118983715D01*
X127630323Y-118848969D01*
X127588190Y-118806836D01*
X127588190Y-113654164D01*
X127666659Y-113732633D01*
X127801405Y-113822668D01*
X127951127Y-113884684D01*
X128110071Y-113916300D01*
X128272129Y-113916300D01*
X128431073Y-113884684D01*
X128580795Y-113822668D01*
X128715541Y-113732633D01*
X128830133Y-113618041D01*
X128920168Y-113483295D01*
X128982184Y-113333573D01*
X129013800Y-113174629D01*
X129013800Y-113012571D01*
X128982184Y-112853627D01*
X128920168Y-112703905D01*
X128830133Y-112569159D01*
X128715541Y-112454567D01*
X128711800Y-112452067D01*
X128711800Y-107932571D01*
X132448400Y-107932571D01*
X132448400Y-108094629D01*
X132480016Y-108253573D01*
X132542032Y-108403295D01*
X132632067Y-108538041D01*
X132742626Y-108648600D01*
X132632067Y-108759159D01*
X132542032Y-108893905D01*
X132480016Y-109043627D01*
X132448400Y-109202571D01*
X132448400Y-109364629D01*
X132480016Y-109523573D01*
X132542032Y-109673295D01*
X132632067Y-109808041D01*
X132742626Y-109918600D01*
X132632067Y-110029159D01*
X132542032Y-110163905D01*
X132480016Y-110313627D01*
X132448400Y-110472571D01*
X132448400Y-110634629D01*
X132480016Y-110793573D01*
X132542032Y-110943295D01*
X132632067Y-111078041D01*
X132742626Y-111188600D01*
X132632067Y-111299159D01*
X132542032Y-111433905D01*
X132480016Y-111583627D01*
X132448400Y-111742571D01*
X132448400Y-111904629D01*
X132480016Y-112063573D01*
X132542032Y-112213295D01*
X132632067Y-112348041D01*
X132746659Y-112462633D01*
X132881405Y-112552668D01*
X133031127Y-112614684D01*
X133190071Y-112646300D01*
X133352129Y-112646300D01*
X133511073Y-112614684D01*
X133660795Y-112552668D01*
X133795541Y-112462633D01*
X133910133Y-112348041D01*
X133912633Y-112344300D01*
X137476181Y-112344300D01*
X137501756Y-112346819D01*
X137603831Y-112336765D01*
X137701983Y-112306991D01*
X137792441Y-112258641D01*
X137871728Y-112193572D01*
X137888039Y-112173697D01*
X137946036Y-112115700D01*
X142022501Y-112115700D01*
X141911730Y-112281480D01*
X141782487Y-112593499D01*
X141716600Y-112924736D01*
X141716600Y-113262464D01*
X141782487Y-113593701D01*
X141911730Y-113905720D01*
X142099361Y-114186530D01*
X142338170Y-114425339D01*
X142618980Y-114612970D01*
X142930999Y-114742213D01*
X143262236Y-114808100D01*
X143599964Y-114808100D01*
X143931201Y-114742213D01*
X144243220Y-114612970D01*
X144524030Y-114425339D01*
X144762839Y-114186530D01*
X144950470Y-113905720D01*
X145079713Y-113593701D01*
X145145600Y-113262464D01*
X145145600Y-112924736D01*
X145079713Y-112593499D01*
X144950470Y-112281480D01*
X144839699Y-112115700D01*
X145526820Y-112115700D01*
X149260400Y-115849281D01*
X149260401Y-118148015D01*
X149257881Y-118173600D01*
X149267935Y-118275675D01*
X149297710Y-118373827D01*
X149346060Y-118464285D01*
X149411129Y-118543572D01*
X149430998Y-118559878D01*
X152769278Y-121898159D01*
X152768400Y-121902571D01*
X152768400Y-122064629D01*
X152800016Y-122223573D01*
X152862032Y-122373295D01*
X152952067Y-122508041D01*
X153066659Y-122622633D01*
X153201405Y-122712668D01*
X153351127Y-122774684D01*
X153510071Y-122806300D01*
X153672129Y-122806300D01*
X153831073Y-122774684D01*
X153980795Y-122712668D01*
X154115541Y-122622633D01*
X154230133Y-122508041D01*
X154320168Y-122373295D01*
X154382184Y-122223573D01*
X154413800Y-122064629D01*
X154413800Y-121902571D01*
X154382184Y-121743627D01*
X154320168Y-121593905D01*
X154230133Y-121459159D01*
X154115541Y-121344567D01*
X153980795Y-121254532D01*
X153831073Y-121192516D01*
X153672129Y-121160900D01*
X153510071Y-121160900D01*
X153505659Y-121161778D01*
X150301800Y-117957920D01*
X150301800Y-115659175D01*
X150304319Y-115633600D01*
X150294265Y-115531524D01*
X150264491Y-115433374D01*
X150264491Y-115433373D01*
X150216141Y-115342915D01*
X150151072Y-115263628D01*
X150131203Y-115247322D01*
X149259439Y-114375558D01*
X170172600Y-114375558D01*
X170172600Y-114611642D01*
X170218658Y-114843190D01*
X170309003Y-115061303D01*
X170440164Y-115257599D01*
X170607101Y-115424536D01*
X170803397Y-115555697D01*
X171021510Y-115646042D01*
X171253058Y-115692100D01*
X171489142Y-115692100D01*
X171720690Y-115646042D01*
X171938803Y-115555697D01*
X172135099Y-115424536D01*
X172302036Y-115257599D01*
X172433197Y-115061303D01*
X172523542Y-114843190D01*
X172569600Y-114611642D01*
X172569600Y-114375558D01*
X172712600Y-114375558D01*
X172712600Y-114611642D01*
X172758658Y-114843190D01*
X172849003Y-115061303D01*
X172980164Y-115257599D01*
X173147101Y-115424536D01*
X173343397Y-115555697D01*
X173561510Y-115646042D01*
X173793058Y-115692100D01*
X174029142Y-115692100D01*
X174260690Y-115646042D01*
X174478803Y-115555697D01*
X174675099Y-115424536D01*
X174842036Y-115257599D01*
X174973197Y-115061303D01*
X175063542Y-114843190D01*
X175109600Y-114611642D01*
X175109600Y-114375558D01*
X175063542Y-114144010D01*
X174973197Y-113925897D01*
X174842036Y-113729601D01*
X174675099Y-113562664D01*
X174478803Y-113431503D01*
X174260690Y-113341158D01*
X174029142Y-113295100D01*
X173793058Y-113295100D01*
X173561510Y-113341158D01*
X173343397Y-113431503D01*
X173147101Y-113562664D01*
X172980164Y-113729601D01*
X172849003Y-113925897D01*
X172758658Y-114144010D01*
X172712600Y-114375558D01*
X172569600Y-114375558D01*
X172523542Y-114144010D01*
X172433197Y-113925897D01*
X172302036Y-113729601D01*
X172135099Y-113562664D01*
X171938803Y-113431503D01*
X171720690Y-113341158D01*
X171489142Y-113295100D01*
X171253058Y-113295100D01*
X171021510Y-113341158D01*
X170803397Y-113431503D01*
X170607101Y-113562664D01*
X170440164Y-113729601D01*
X170309003Y-113925897D01*
X170218658Y-114144010D01*
X170172600Y-114375558D01*
X149259439Y-114375558D01*
X146128783Y-111244903D01*
X146112472Y-111225028D01*
X146033185Y-111159959D01*
X145942727Y-111111609D01*
X145844575Y-111081835D01*
X145768075Y-111074300D01*
X152536479Y-111074300D01*
X152875672Y-111413492D01*
X152862032Y-111433905D01*
X152800016Y-111583627D01*
X152768400Y-111742571D01*
X152768400Y-111904629D01*
X152800016Y-112063573D01*
X152862032Y-112213295D01*
X152952067Y-112348041D01*
X153066659Y-112462633D01*
X153201405Y-112552668D01*
X153351127Y-112614684D01*
X153510071Y-112646300D01*
X153672129Y-112646300D01*
X153831073Y-112614684D01*
X153980795Y-112552668D01*
X154115541Y-112462633D01*
X154230133Y-112348041D01*
X154320168Y-112213295D01*
X154382184Y-112063573D01*
X154413800Y-111904629D01*
X154413800Y-111742571D01*
X154382184Y-111583627D01*
X154320168Y-111433905D01*
X154230133Y-111299159D01*
X154115541Y-111184567D01*
X154045246Y-111137597D01*
X154026141Y-111101853D01*
X153961072Y-111022566D01*
X153941202Y-111006259D01*
X153138441Y-110203502D01*
X153122131Y-110183628D01*
X153042844Y-110118559D01*
X152952386Y-110070209D01*
X152854234Y-110040435D01*
X152777734Y-110032900D01*
X152777733Y-110032900D01*
X152752159Y-110030381D01*
X152726584Y-110032900D01*
X133912633Y-110032900D01*
X133910133Y-110029159D01*
X133799574Y-109918600D01*
X133910133Y-109808041D01*
X133912633Y-109804300D01*
X149755525Y-109804300D01*
X149781100Y-109806819D01*
X149883175Y-109796765D01*
X149981327Y-109766991D01*
X150071785Y-109718641D01*
X150151072Y-109653572D01*
X150167383Y-109633697D01*
X152671203Y-107129878D01*
X152691072Y-107113572D01*
X152756141Y-107034285D01*
X152804491Y-106943827D01*
X152834265Y-106845675D01*
X152841800Y-106769175D01*
X152841800Y-106769174D01*
X152844319Y-106743601D01*
X152841800Y-106718026D01*
X152841800Y-104215558D01*
X170172600Y-104215558D01*
X170172600Y-104451642D01*
X170218658Y-104683190D01*
X170309003Y-104901303D01*
X170440164Y-105097599D01*
X170607101Y-105264536D01*
X170803397Y-105395697D01*
X171021510Y-105486042D01*
X171253058Y-105532100D01*
X171489142Y-105532100D01*
X171720690Y-105486042D01*
X171938803Y-105395697D01*
X172135099Y-105264536D01*
X172302036Y-105097599D01*
X172433197Y-104901303D01*
X172523542Y-104683190D01*
X172569600Y-104451642D01*
X172569600Y-104215558D01*
X172712600Y-104215558D01*
X172712600Y-104451642D01*
X172758658Y-104683190D01*
X172849003Y-104901303D01*
X172980164Y-105097599D01*
X173147101Y-105264536D01*
X173343397Y-105395697D01*
X173561510Y-105486042D01*
X173793058Y-105532100D01*
X174029142Y-105532100D01*
X174260690Y-105486042D01*
X174478803Y-105395697D01*
X174675099Y-105264536D01*
X174842036Y-105097599D01*
X174973197Y-104901303D01*
X175063542Y-104683190D01*
X175109600Y-104451642D01*
X175109600Y-104215558D01*
X175063542Y-103984010D01*
X174973197Y-103765897D01*
X174842036Y-103569601D01*
X174675099Y-103402664D01*
X174478803Y-103271503D01*
X174260690Y-103181158D01*
X174029142Y-103135100D01*
X173793058Y-103135100D01*
X173561510Y-103181158D01*
X173343397Y-103271503D01*
X173147101Y-103402664D01*
X172980164Y-103569601D01*
X172849003Y-103765897D01*
X172758658Y-103984010D01*
X172712600Y-104215558D01*
X172569600Y-104215558D01*
X172523542Y-103984010D01*
X172433197Y-103765897D01*
X172302036Y-103569601D01*
X172135099Y-103402664D01*
X171938803Y-103271503D01*
X171720690Y-103181158D01*
X171489142Y-103135100D01*
X171253058Y-103135100D01*
X171021510Y-103181158D01*
X170803397Y-103271503D01*
X170607101Y-103402664D01*
X170440164Y-103569601D01*
X170309003Y-103765897D01*
X170218658Y-103984010D01*
X170172600Y-104215558D01*
X152841800Y-104215558D01*
X152841800Y-103149280D01*
X153505658Y-102485422D01*
X153510071Y-102486300D01*
X153672129Y-102486300D01*
X153831073Y-102454684D01*
X153980795Y-102392668D01*
X154115541Y-102302633D01*
X154230133Y-102188041D01*
X154320168Y-102053295D01*
X154382184Y-101903573D01*
X154413800Y-101744629D01*
X154413800Y-101582571D01*
X154382184Y-101423627D01*
X154320168Y-101273905D01*
X154230133Y-101139159D01*
X154115541Y-101024567D01*
X153980795Y-100934532D01*
X153831073Y-100872516D01*
X153672129Y-100840900D01*
X153510071Y-100840900D01*
X153351127Y-100872516D01*
X153201405Y-100934532D01*
X153066659Y-101024567D01*
X152952067Y-101139159D01*
X152862032Y-101273905D01*
X152841800Y-101322750D01*
X152841800Y-94055558D01*
X170172600Y-94055558D01*
X170172600Y-94291642D01*
X170218658Y-94523190D01*
X170309003Y-94741303D01*
X170440164Y-94937599D01*
X170607101Y-95104536D01*
X170803397Y-95235697D01*
X171021510Y-95326042D01*
X171253058Y-95372100D01*
X171489142Y-95372100D01*
X171720690Y-95326042D01*
X171938803Y-95235697D01*
X172135099Y-95104536D01*
X172302036Y-94937599D01*
X172433197Y-94741303D01*
X172523542Y-94523190D01*
X172569600Y-94291642D01*
X172569600Y-94055558D01*
X172712600Y-94055558D01*
X172712600Y-94291642D01*
X172758658Y-94523190D01*
X172849003Y-94741303D01*
X172980164Y-94937599D01*
X173147101Y-95104536D01*
X173343397Y-95235697D01*
X173561510Y-95326042D01*
X173793058Y-95372100D01*
X174029142Y-95372100D01*
X174260690Y-95326042D01*
X174478803Y-95235697D01*
X174675099Y-95104536D01*
X174842036Y-94937599D01*
X174973197Y-94741303D01*
X175063542Y-94523190D01*
X175109600Y-94291642D01*
X175109600Y-94055558D01*
X175063542Y-93824010D01*
X174973197Y-93605897D01*
X174842036Y-93409601D01*
X174675099Y-93242664D01*
X174478803Y-93111503D01*
X174260690Y-93021158D01*
X174029142Y-92975100D01*
X173793058Y-92975100D01*
X173561510Y-93021158D01*
X173343397Y-93111503D01*
X173147101Y-93242664D01*
X172980164Y-93409601D01*
X172849003Y-93605897D01*
X172758658Y-93824010D01*
X172712600Y-94055558D01*
X172569600Y-94055558D01*
X172523542Y-93824010D01*
X172433197Y-93605897D01*
X172302036Y-93409601D01*
X172135099Y-93242664D01*
X171938803Y-93111503D01*
X171720690Y-93021158D01*
X171489142Y-92975100D01*
X171253058Y-92975100D01*
X171021510Y-93021158D01*
X170803397Y-93111503D01*
X170607101Y-93242664D01*
X170440164Y-93409601D01*
X170309003Y-93605897D01*
X170218658Y-93824010D01*
X170172600Y-94055558D01*
X152841800Y-94055558D01*
X152841800Y-92989280D01*
X153505658Y-92325422D01*
X153510071Y-92326300D01*
X153672129Y-92326300D01*
X153831073Y-92294684D01*
X153980795Y-92232668D01*
X154115541Y-92142633D01*
X154230133Y-92028041D01*
X154320168Y-91893295D01*
X154382184Y-91743573D01*
X154413800Y-91584629D01*
X154413800Y-91422571D01*
X154382184Y-91263627D01*
X154320168Y-91113905D01*
X154230133Y-90979159D01*
X154115541Y-90864567D01*
X153980795Y-90774532D01*
X153831073Y-90712516D01*
X153672129Y-90680900D01*
X153510071Y-90680900D01*
X153351127Y-90712516D01*
X153201405Y-90774532D01*
X153066659Y-90864567D01*
X152952067Y-90979159D01*
X152862032Y-91113905D01*
X152800016Y-91263627D01*
X152768400Y-91422571D01*
X152768400Y-91584629D01*
X152769278Y-91589042D01*
X151971003Y-92387317D01*
X151951128Y-92403628D01*
X151886059Y-92482915D01*
X151837709Y-92573374D01*
X151827653Y-92606525D01*
X151807935Y-92671525D01*
X151797881Y-92773600D01*
X151800400Y-92799175D01*
X151800401Y-101447918D01*
X145755420Y-107492900D01*
X133912633Y-107492900D01*
X133910133Y-107489159D01*
X133795541Y-107374567D01*
X133660795Y-107284532D01*
X133511073Y-107222516D01*
X133352129Y-107190900D01*
X133190071Y-107190900D01*
X133031127Y-107222516D01*
X132881405Y-107284532D01*
X132746659Y-107374567D01*
X132632067Y-107489159D01*
X132542032Y-107623905D01*
X132480016Y-107773627D01*
X132448400Y-107932571D01*
X128711800Y-107932571D01*
X128711800Y-104359174D01*
X128714319Y-104333599D01*
X128704265Y-104231524D01*
X128681591Y-104156779D01*
X128674491Y-104133373D01*
X128626141Y-104042915D01*
X128561072Y-103963628D01*
X128541203Y-103947322D01*
X128337231Y-103743350D01*
X128431073Y-103724684D01*
X128580795Y-103662668D01*
X128715541Y-103572633D01*
X128830133Y-103458041D01*
X128920168Y-103323295D01*
X128982184Y-103173573D01*
X129013800Y-103014629D01*
X129013800Y-102852571D01*
X128982184Y-102693627D01*
X128920168Y-102543905D01*
X128830133Y-102409159D01*
X128715541Y-102294567D01*
X128711800Y-102292067D01*
X128711800Y-102069773D01*
X137705400Y-102069773D01*
X137705400Y-102297427D01*
X137749813Y-102520705D01*
X137836932Y-102731029D01*
X137963409Y-102920316D01*
X138124384Y-103081291D01*
X138313671Y-103207768D01*
X138523995Y-103294887D01*
X138747273Y-103339300D01*
X138974927Y-103339300D01*
X139198205Y-103294887D01*
X139408529Y-103207768D01*
X139597816Y-103081291D01*
X139758791Y-102920316D01*
X139885268Y-102731029D01*
X139972387Y-102520705D01*
X140016800Y-102297427D01*
X140016800Y-102069773D01*
X142785400Y-102069773D01*
X142785400Y-102297427D01*
X142829813Y-102520705D01*
X142916932Y-102731029D01*
X143043409Y-102920316D01*
X143204384Y-103081291D01*
X143393671Y-103207768D01*
X143603995Y-103294887D01*
X143827273Y-103339300D01*
X144054927Y-103339300D01*
X144278205Y-103294887D01*
X144488529Y-103207768D01*
X144677816Y-103081291D01*
X144838791Y-102920316D01*
X144965268Y-102731029D01*
X145052387Y-102520705D01*
X145096800Y-102297427D01*
X145096800Y-102069773D01*
X145052387Y-101846495D01*
X144965268Y-101636171D01*
X144838791Y-101446884D01*
X144677816Y-101285909D01*
X144488529Y-101159432D01*
X144278205Y-101072313D01*
X144054927Y-101027900D01*
X143827273Y-101027900D01*
X143603995Y-101072313D01*
X143393671Y-101159432D01*
X143204384Y-101285909D01*
X143043409Y-101446884D01*
X142916932Y-101636171D01*
X142829813Y-101846495D01*
X142785400Y-102069773D01*
X140016800Y-102069773D01*
X139972387Y-101846495D01*
X139885268Y-101636171D01*
X139758791Y-101446884D01*
X139597816Y-101285909D01*
X139408529Y-101159432D01*
X139198205Y-101072313D01*
X138974927Y-101027900D01*
X138747273Y-101027900D01*
X138523995Y-101072313D01*
X138313671Y-101159432D01*
X138124384Y-101285909D01*
X137963409Y-101446884D01*
X137836932Y-101636171D01*
X137749813Y-101846495D01*
X137705400Y-102069773D01*
X128711800Y-102069773D01*
X128711800Y-98495133D01*
X128715541Y-98492633D01*
X128830133Y-98378041D01*
X128920168Y-98243295D01*
X128982184Y-98093573D01*
X129013800Y-97934629D01*
X129013800Y-97772571D01*
X128982184Y-97613627D01*
X128920168Y-97463905D01*
X128830133Y-97329159D01*
X128715541Y-97214567D01*
X128580795Y-97124532D01*
X128431073Y-97062516D01*
X128272129Y-97030900D01*
X128110071Y-97030900D01*
X127951127Y-97062516D01*
X127801405Y-97124532D01*
X127666659Y-97214567D01*
X127552067Y-97329159D01*
X127462032Y-97463905D01*
X127400016Y-97613627D01*
X127368400Y-97772571D01*
X127368400Y-97934629D01*
X127400016Y-98093573D01*
X127462032Y-98243295D01*
X127552067Y-98378041D01*
X127666659Y-98492633D01*
X127670401Y-98495133D01*
X127670400Y-102292067D01*
X127666659Y-102294567D01*
X127552067Y-102409159D01*
X127462032Y-102543905D01*
X127400016Y-102693627D01*
X127381350Y-102787469D01*
X116937750Y-92343870D01*
X116937750Y-90833600D01*
X116937445Y-90830500D01*
X117464526Y-90830500D01*
X117506659Y-90872633D01*
X117641405Y-90962668D01*
X117791127Y-91024684D01*
X117950071Y-91056300D01*
X118112129Y-91056300D01*
X118271073Y-91024684D01*
X118420795Y-90962668D01*
X118555541Y-90872633D01*
X118670133Y-90758041D01*
X118760168Y-90623295D01*
X118822184Y-90473573D01*
X118853800Y-90314629D01*
X118853800Y-90152571D01*
X118822184Y-89993627D01*
X118760168Y-89843905D01*
X118670133Y-89709159D01*
X118555541Y-89594567D01*
X118420795Y-89504532D01*
X118271073Y-89442516D01*
X118203961Y-89429167D01*
X118278113Y-89421863D01*
X118390629Y-89387732D01*
X118494324Y-89332305D01*
X118585214Y-89257714D01*
X118603909Y-89234935D01*
X120216744Y-87622100D01*
X120925456Y-87622100D01*
X122538300Y-89234945D01*
X122556986Y-89257714D01*
X122579755Y-89276400D01*
X122579761Y-89276406D01*
X122625214Y-89313707D01*
X122647876Y-89332305D01*
X122751571Y-89387732D01*
X122864087Y-89421863D01*
X122934450Y-89428793D01*
X122934450Y-89429920D01*
X122871127Y-89442516D01*
X122721405Y-89504532D01*
X122586659Y-89594567D01*
X122472067Y-89709159D01*
X122382032Y-89843905D01*
X122320016Y-89993627D01*
X122288400Y-90152571D01*
X122288400Y-90314629D01*
X122320016Y-90473573D01*
X122382032Y-90623295D01*
X122472067Y-90758041D01*
X122586659Y-90872633D01*
X122721405Y-90962668D01*
X122871127Y-91024684D01*
X122934450Y-91037280D01*
X122934450Y-92376883D01*
X122457348Y-91899782D01*
X122506259Y-91738547D01*
X122529399Y-91503600D01*
X122506259Y-91268653D01*
X122437727Y-91042735D01*
X122326438Y-90834527D01*
X122176668Y-90652032D01*
X121994173Y-90502262D01*
X121785965Y-90390973D01*
X121560047Y-90322441D01*
X121383979Y-90305100D01*
X119758221Y-90305100D01*
X119582153Y-90322441D01*
X119356235Y-90390973D01*
X119148027Y-90502262D01*
X118965532Y-90652032D01*
X118815762Y-90834527D01*
X118704473Y-91042735D01*
X118635941Y-91268653D01*
X118612801Y-91503600D01*
X118635941Y-91738547D01*
X118704473Y-91964465D01*
X118815762Y-92172673D01*
X118965532Y-92355168D01*
X119148027Y-92504938D01*
X119356235Y-92616227D01*
X119582153Y-92684759D01*
X119758221Y-92702100D01*
X120852958Y-92702100D01*
X122655182Y-94504325D01*
X122681824Y-94536788D01*
X122714287Y-94563430D01*
X122714291Y-94563434D01*
X122757090Y-94598558D01*
X122811390Y-94643121D01*
X122959211Y-94722133D01*
X123119606Y-94770788D01*
X123244612Y-94783100D01*
X123244618Y-94783100D01*
X123286411Y-94787216D01*
X123328204Y-94783100D01*
X131177782Y-94783100D01*
X131219575Y-94787216D01*
X131261368Y-94783100D01*
X131261375Y-94783100D01*
X131386381Y-94770788D01*
X131546776Y-94722133D01*
X131694597Y-94643121D01*
X131824163Y-94536788D01*
X131850809Y-94504320D01*
X138293230Y-88061900D01*
X140056046Y-88061900D01*
X141031914Y-89037768D01*
X140972058Y-89235085D01*
X140954600Y-89412337D01*
X140954600Y-91054862D01*
X140972058Y-91232114D01*
X141041047Y-91459540D01*
X141153079Y-91669137D01*
X141303848Y-91852852D01*
X141487562Y-92003621D01*
X141697159Y-92115653D01*
X141772806Y-92138600D01*
X141697160Y-92161547D01*
X141487563Y-92273579D01*
X141303849Y-92424348D01*
X141153080Y-92608062D01*
X141041048Y-92817659D01*
X140972058Y-93045085D01*
X140954600Y-93222337D01*
X140954600Y-94864862D01*
X140972058Y-95042114D01*
X141041047Y-95269540D01*
X141153079Y-95479137D01*
X141303848Y-95662852D01*
X141487562Y-95813621D01*
X141697159Y-95925653D01*
X141924585Y-95994642D01*
X142161100Y-96017937D01*
X142397614Y-95994642D01*
X142625040Y-95925653D01*
X142834637Y-95813621D01*
X143018352Y-95662852D01*
X143169121Y-95479138D01*
X143281153Y-95269541D01*
X143350142Y-95042115D01*
X143367600Y-94864863D01*
X143367600Y-93222337D01*
X143350142Y-93045085D01*
X143281153Y-92817659D01*
X143169121Y-92608062D01*
X143018352Y-92424348D01*
X142834638Y-92273579D01*
X142625041Y-92161547D01*
X142549394Y-92138600D01*
X142625040Y-92115653D01*
X142834637Y-92003621D01*
X143018352Y-91852852D01*
X143169121Y-91669138D01*
X143281153Y-91459541D01*
X143350142Y-91232115D01*
X143367600Y-91054863D01*
X143367600Y-89412337D01*
X143350142Y-89235085D01*
X143281153Y-89007659D01*
X143169121Y-88798062D01*
X143018352Y-88614348D01*
X142877430Y-88498697D01*
X142872021Y-88488578D01*
X142765688Y-88359012D01*
X142733221Y-88332367D01*
X141039739Y-86638885D01*
X141039734Y-86638879D01*
X141039730Y-86638875D01*
X141013088Y-86606412D01*
X140980625Y-86579770D01*
X138284455Y-83883600D01*
X140202801Y-83883600D01*
X140225941Y-84118547D01*
X140294473Y-84344465D01*
X140405762Y-84552673D01*
X140555532Y-84735168D01*
X140738027Y-84884938D01*
X140946235Y-84996227D01*
X141172153Y-85064759D01*
X141348221Y-85082100D01*
X142973979Y-85082100D01*
X143150047Y-85064759D01*
X143375965Y-84996227D01*
X143584173Y-84884938D01*
X143766668Y-84735168D01*
X143916438Y-84552673D01*
X144027727Y-84344465D01*
X144096259Y-84118547D01*
X144119399Y-83883600D01*
X147822801Y-83883600D01*
X147845941Y-84118547D01*
X147914473Y-84344465D01*
X148025762Y-84552673D01*
X148175532Y-84735168D01*
X148358027Y-84884938D01*
X148566235Y-84996227D01*
X148792153Y-85064759D01*
X148968221Y-85082100D01*
X150593979Y-85082100D01*
X150770047Y-85064759D01*
X150995965Y-84996227D01*
X151204173Y-84884938D01*
X151386668Y-84735168D01*
X151536438Y-84552673D01*
X151647727Y-84344465D01*
X151716259Y-84118547D01*
X151739399Y-83883600D01*
X155442801Y-83883600D01*
X155465941Y-84118547D01*
X155534473Y-84344465D01*
X155645762Y-84552673D01*
X155795532Y-84735168D01*
X155978027Y-84884938D01*
X156186235Y-84996227D01*
X156412153Y-85064759D01*
X156588221Y-85082100D01*
X158213979Y-85082100D01*
X158390047Y-85064759D01*
X158615965Y-84996227D01*
X158824173Y-84884938D01*
X159006668Y-84735168D01*
X159156438Y-84552673D01*
X159267727Y-84344465D01*
X159336259Y-84118547D01*
X159359399Y-83883600D01*
X163062801Y-83883600D01*
X163085941Y-84118547D01*
X163154473Y-84344465D01*
X163265762Y-84552673D01*
X163415532Y-84735168D01*
X163598027Y-84884938D01*
X163806235Y-84996227D01*
X164032153Y-85064759D01*
X164208221Y-85082100D01*
X165833979Y-85082100D01*
X166010047Y-85064759D01*
X166235965Y-84996227D01*
X166444173Y-84884938D01*
X166626668Y-84735168D01*
X166776438Y-84552673D01*
X166887727Y-84344465D01*
X166956259Y-84118547D01*
X166979399Y-83883600D01*
X166956259Y-83648653D01*
X166887727Y-83422735D01*
X166776438Y-83214527D01*
X166626668Y-83032032D01*
X166444173Y-82882262D01*
X166235965Y-82770973D01*
X166010047Y-82702441D01*
X165833979Y-82685100D01*
X164208221Y-82685100D01*
X164032153Y-82702441D01*
X163806235Y-82770973D01*
X163598027Y-82882262D01*
X163415532Y-83032032D01*
X163265762Y-83214527D01*
X163154473Y-83422735D01*
X163085941Y-83648653D01*
X163062801Y-83883600D01*
X159359399Y-83883600D01*
X159336259Y-83648653D01*
X159267727Y-83422735D01*
X159156438Y-83214527D01*
X159006668Y-83032032D01*
X158824173Y-82882262D01*
X158615965Y-82770973D01*
X158390047Y-82702441D01*
X158213979Y-82685100D01*
X156588221Y-82685100D01*
X156412153Y-82702441D01*
X156186235Y-82770973D01*
X155978027Y-82882262D01*
X155795532Y-83032032D01*
X155645762Y-83214527D01*
X155534473Y-83422735D01*
X155465941Y-83648653D01*
X155442801Y-83883600D01*
X151739399Y-83883600D01*
X151716259Y-83648653D01*
X151647727Y-83422735D01*
X151536438Y-83214527D01*
X151386668Y-83032032D01*
X151204173Y-82882262D01*
X150995965Y-82770973D01*
X150770047Y-82702441D01*
X150593979Y-82685100D01*
X148968221Y-82685100D01*
X148792153Y-82702441D01*
X148566235Y-82770973D01*
X148358027Y-82882262D01*
X148175532Y-83032032D01*
X148025762Y-83214527D01*
X147914473Y-83422735D01*
X147845941Y-83648653D01*
X147822801Y-83883600D01*
X144119399Y-83883600D01*
X144096259Y-83648653D01*
X144027727Y-83422735D01*
X143916438Y-83214527D01*
X143766668Y-83032032D01*
X143584173Y-82882262D01*
X143375965Y-82770973D01*
X143150047Y-82702441D01*
X142973979Y-82685100D01*
X141348221Y-82685100D01*
X141172153Y-82702441D01*
X140946235Y-82770973D01*
X140738027Y-82882262D01*
X140555532Y-83032032D01*
X140405762Y-83214527D01*
X140294473Y-83422735D01*
X140225941Y-83648653D01*
X140202801Y-83883600D01*
X138284455Y-83883600D01*
X137712334Y-83311480D01*
X137685688Y-83279012D01*
X137556122Y-83172679D01*
X137408301Y-83093667D01*
X137247906Y-83045012D01*
X137122900Y-83032700D01*
X137122893Y-83032700D01*
X137081100Y-83028584D01*
X137039307Y-83032700D01*
X129797216Y-83032700D01*
X129796668Y-83032032D01*
X129614173Y-82882262D01*
X129405965Y-82770973D01*
X129180047Y-82702441D01*
X129003979Y-82685100D01*
X127378221Y-82685100D01*
X127202153Y-82702441D01*
X126976235Y-82770973D01*
X126768027Y-82882262D01*
X126585532Y-83032032D01*
X126435762Y-83214527D01*
X126324473Y-83422735D01*
X126255941Y-83648653D01*
X126232801Y-83883600D01*
X126255941Y-84118547D01*
X126324473Y-84344465D01*
X126435762Y-84552673D01*
X126585532Y-84735168D01*
X126768027Y-84884938D01*
X126976235Y-84996227D01*
X127202153Y-85064759D01*
X127378221Y-85082100D01*
X129003979Y-85082100D01*
X129180047Y-85064759D01*
X129405965Y-84996227D01*
X129614173Y-84884938D01*
X129796668Y-84735168D01*
X129797216Y-84734500D01*
X136728646Y-84734500D01*
X138354245Y-86360100D01*
X137982567Y-86360100D01*
X137940774Y-86355984D01*
X137898981Y-86360100D01*
X137898975Y-86360100D01*
X137773969Y-86372412D01*
X137613574Y-86421067D01*
X137465753Y-86500079D01*
X137416364Y-86540612D01*
X137368654Y-86579766D01*
X137368650Y-86579770D01*
X137336187Y-86606412D01*
X137309545Y-86638875D01*
X130867121Y-93081300D01*
X123638867Y-93081300D01*
X123437817Y-92880250D01*
X125381100Y-92880250D01*
X125468237Y-92871668D01*
X125552026Y-92846251D01*
X125629245Y-92804976D01*
X125696929Y-92749429D01*
X125752476Y-92681745D01*
X125793751Y-92604526D01*
X125819168Y-92520737D01*
X125827750Y-92433600D01*
X125827750Y-92154300D01*
X126425941Y-92154300D01*
X126435762Y-92172673D01*
X126585532Y-92355168D01*
X126768027Y-92504938D01*
X126976235Y-92616227D01*
X127202153Y-92684759D01*
X127378221Y-92702100D01*
X129003979Y-92702100D01*
X129180047Y-92684759D01*
X129405965Y-92616227D01*
X129614173Y-92504938D01*
X129796668Y-92355168D01*
X129946438Y-92172673D01*
X130057727Y-91964465D01*
X130126259Y-91738547D01*
X130144146Y-91556934D01*
X131915659Y-89785422D01*
X131920071Y-89786300D01*
X132082129Y-89786300D01*
X132241073Y-89754684D01*
X132390795Y-89692668D01*
X132525541Y-89602633D01*
X132640133Y-89488041D01*
X132730168Y-89353295D01*
X132792184Y-89203573D01*
X132823800Y-89044629D01*
X132823800Y-88882571D01*
X132792184Y-88723627D01*
X132730168Y-88573905D01*
X132640133Y-88439159D01*
X132525541Y-88324567D01*
X132390795Y-88234532D01*
X132241073Y-88172516D01*
X132082129Y-88140900D01*
X131920071Y-88140900D01*
X131761127Y-88172516D01*
X131611405Y-88234532D01*
X131476659Y-88324567D01*
X131362067Y-88439159D01*
X131272032Y-88573905D01*
X131210016Y-88723627D01*
X131178400Y-88882571D01*
X131178400Y-89044629D01*
X131179278Y-89049041D01*
X129675625Y-90552695D01*
X129614173Y-90502262D01*
X129405965Y-90390973D01*
X129180047Y-90322441D01*
X129003979Y-90305100D01*
X127378221Y-90305100D01*
X127202153Y-90322441D01*
X126976235Y-90390973D01*
X126768027Y-90502262D01*
X126585532Y-90652032D01*
X126435762Y-90834527D01*
X126324473Y-91042735D01*
X126303189Y-91112900D01*
X125827750Y-91112900D01*
X125827750Y-90833600D01*
X125819168Y-90746463D01*
X125793751Y-90662674D01*
X125752476Y-90585455D01*
X125696929Y-90517771D01*
X125629245Y-90462224D01*
X125552026Y-90420949D01*
X125468237Y-90395532D01*
X125381100Y-90386950D01*
X123919414Y-90386950D01*
X123933800Y-90314629D01*
X123933800Y-90152571D01*
X123919414Y-90080250D01*
X125381100Y-90080250D01*
X125468237Y-90071668D01*
X125552026Y-90046251D01*
X125629245Y-90004976D01*
X125696929Y-89949429D01*
X125752476Y-89881745D01*
X125793751Y-89804526D01*
X125819168Y-89720737D01*
X125827750Y-89633600D01*
X125827750Y-89560500D01*
X126397185Y-89560500D01*
X126435762Y-89632673D01*
X126585532Y-89815168D01*
X126768027Y-89964938D01*
X126976235Y-90076227D01*
X127202153Y-90144759D01*
X127378221Y-90162100D01*
X129003979Y-90162100D01*
X129180047Y-90144759D01*
X129405965Y-90076227D01*
X129614173Y-89964938D01*
X129796668Y-89815168D01*
X129946438Y-89632673D01*
X130057727Y-89424465D01*
X130126259Y-89198547D01*
X130149399Y-88963600D01*
X130126259Y-88728653D01*
X130057727Y-88502735D01*
X129946438Y-88294527D01*
X129796668Y-88112032D01*
X129614173Y-87962262D01*
X129405965Y-87850973D01*
X129180047Y-87782441D01*
X129003979Y-87765100D01*
X127378221Y-87765100D01*
X127202153Y-87782441D01*
X126976235Y-87850973D01*
X126768027Y-87962262D01*
X126585532Y-88112032D01*
X126435762Y-88294527D01*
X126397185Y-88366700D01*
X125827750Y-88366700D01*
X125827750Y-88033600D01*
X125819168Y-87946463D01*
X125793751Y-87862674D01*
X125752476Y-87785455D01*
X125696929Y-87717771D01*
X125629245Y-87662224D01*
X125552026Y-87620949D01*
X125468237Y-87595532D01*
X125381100Y-87586950D01*
X123381100Y-87586950D01*
X123293963Y-87595532D01*
X123210174Y-87620949D01*
X123132955Y-87662224D01*
X123065271Y-87717771D01*
X123009724Y-87785455D01*
X122968449Y-87862674D01*
X122943032Y-87946463D01*
X122942590Y-87950946D01*
X122217301Y-87225657D01*
X122326438Y-87092673D01*
X122338169Y-87070725D01*
X122460805Y-87152668D01*
X122610527Y-87214684D01*
X122769471Y-87246300D01*
X122931529Y-87246300D01*
X123090473Y-87214684D01*
X123240195Y-87152668D01*
X123374941Y-87062633D01*
X123489533Y-86948041D01*
X123579568Y-86813295D01*
X123641584Y-86663573D01*
X123673200Y-86504629D01*
X123673200Y-86342571D01*
X123655932Y-86255760D01*
X123665665Y-86223675D01*
X123673200Y-86147175D01*
X123673200Y-86147174D01*
X123675719Y-86121601D01*
X123673200Y-86096026D01*
X123673200Y-85874593D01*
X124547544Y-85000250D01*
X125381100Y-85000250D01*
X125468237Y-84991668D01*
X125552026Y-84966251D01*
X125629245Y-84924976D01*
X125696929Y-84869429D01*
X125752476Y-84801745D01*
X125793751Y-84724526D01*
X125819168Y-84640737D01*
X125827750Y-84553600D01*
X125827750Y-82953600D01*
X125819168Y-82866463D01*
X125793751Y-82782674D01*
X125752476Y-82705455D01*
X125696929Y-82637771D01*
X125629245Y-82582224D01*
X125552026Y-82540949D01*
X125468237Y-82515532D01*
X125381100Y-82506950D01*
X123381100Y-82506950D01*
X123293963Y-82515532D01*
X123210174Y-82540949D01*
X123132955Y-82582224D01*
X123065271Y-82637771D01*
X123009724Y-82705455D01*
X122968449Y-82782674D01*
X122943032Y-82866463D01*
X122934450Y-82953600D01*
X122934450Y-84553600D01*
X122943032Y-84640737D01*
X122968449Y-84724526D01*
X123009724Y-84801745D01*
X123065271Y-84869429D01*
X123132955Y-84924976D01*
X123144100Y-84930933D01*
X122802398Y-85272635D01*
X122782529Y-85288941D01*
X122717460Y-85368228D01*
X122688579Y-85422262D01*
X122669110Y-85458686D01*
X122639335Y-85556838D01*
X122632308Y-85628184D01*
X122610527Y-85632516D01*
X122460805Y-85694532D01*
X122338169Y-85776475D01*
X122326438Y-85754527D01*
X122176668Y-85572032D01*
X121994173Y-85422262D01*
X121785965Y-85310973D01*
X121560047Y-85242441D01*
X121383979Y-85225100D01*
X119758221Y-85225100D01*
X119582153Y-85242441D01*
X119356235Y-85310973D01*
X119148027Y-85422262D01*
X118965532Y-85572032D01*
X118815762Y-85754527D01*
X118704473Y-85962735D01*
X118635941Y-86188653D01*
X118612801Y-86423600D01*
X118635941Y-86658547D01*
X118704473Y-86884465D01*
X118815762Y-87092673D01*
X118924899Y-87225657D01*
X117913857Y-88236700D01*
X116937750Y-88236700D01*
X116937750Y-88033600D01*
X116929168Y-87946463D01*
X116903751Y-87862674D01*
X116862476Y-87785455D01*
X116806929Y-87717771D01*
X116739245Y-87662224D01*
X116662026Y-87620949D01*
X116578237Y-87595532D01*
X116491100Y-87586950D01*
X114783200Y-87586950D01*
X114783200Y-85874593D01*
X115657544Y-85000250D01*
X116491100Y-85000250D01*
X116578237Y-84991668D01*
X116662026Y-84966251D01*
X116739245Y-84924976D01*
X116806929Y-84869429D01*
X116862476Y-84801745D01*
X116903751Y-84724526D01*
X116929168Y-84640737D01*
X116937750Y-84553600D01*
X116937750Y-84274300D01*
X118683189Y-84274300D01*
X118704473Y-84344465D01*
X118815762Y-84552673D01*
X118965532Y-84735168D01*
X119148027Y-84884938D01*
X119356235Y-84996227D01*
X119582153Y-85064759D01*
X119758221Y-85082100D01*
X121383979Y-85082100D01*
X121560047Y-85064759D01*
X121785965Y-84996227D01*
X121994173Y-84884938D01*
X122176668Y-84735168D01*
X122326438Y-84552673D01*
X122437727Y-84344465D01*
X122506259Y-84118547D01*
X122529399Y-83883600D01*
X122506259Y-83648653D01*
X122437727Y-83422735D01*
X122326438Y-83214527D01*
X122176668Y-83032032D01*
X121994173Y-82882262D01*
X121785965Y-82770973D01*
X121560047Y-82702441D01*
X121383979Y-82685100D01*
X119758221Y-82685100D01*
X119582153Y-82702441D01*
X119356235Y-82770973D01*
X119148027Y-82882262D01*
X118965532Y-83032032D01*
X118815762Y-83214527D01*
X118805941Y-83232900D01*
X116937750Y-83232900D01*
X116937750Y-82953600D01*
X116929168Y-82866463D01*
X116903751Y-82782674D01*
X116862476Y-82705455D01*
X116806929Y-82637771D01*
X116739245Y-82582224D01*
X116662026Y-82540949D01*
X116578237Y-82515532D01*
X116491100Y-82506950D01*
X114491100Y-82506950D01*
X114403963Y-82515532D01*
X114320174Y-82540949D01*
X114242955Y-82582224D01*
X114175271Y-82637771D01*
X114119724Y-82705455D01*
X114078449Y-82782674D01*
X114053032Y-82866463D01*
X114044450Y-82953600D01*
X114044450Y-84553600D01*
X114053032Y-84640737D01*
X114078449Y-84724526D01*
X114119724Y-84801745D01*
X114175271Y-84869429D01*
X114242955Y-84924976D01*
X114254100Y-84930933D01*
X113912398Y-85272635D01*
X113892529Y-85288941D01*
X113827460Y-85368228D01*
X113798579Y-85422262D01*
X113779110Y-85458686D01*
X113749335Y-85556838D01*
X113739281Y-85658913D01*
X113741801Y-85684498D01*
X113741800Y-89702713D01*
X113739281Y-89728288D01*
X113746203Y-89798559D01*
X113749335Y-89830362D01*
X113779109Y-89928514D01*
X113827459Y-90018973D01*
X113892528Y-90098260D01*
X113912403Y-90114571D01*
X114254099Y-90456267D01*
X114242955Y-90462224D01*
X114175271Y-90517771D01*
X114119724Y-90585455D01*
X114078449Y-90662674D01*
X114053032Y-90746463D01*
X114044663Y-90831435D01*
X113947438Y-90685927D01*
X113768773Y-90507262D01*
X113558686Y-90366886D01*
X113325250Y-90270194D01*
X113077435Y-90220900D01*
X112824765Y-90220900D01*
X112576950Y-90270194D01*
X112343514Y-90366886D01*
X112133427Y-90507262D01*
X111954762Y-90685927D01*
X111814386Y-90896014D01*
X111717694Y-91129450D01*
X111668400Y-91377265D01*
X111668400Y-91629935D01*
X111717694Y-91877750D01*
X111814386Y-92111186D01*
X111954762Y-92321273D01*
X112133427Y-92499938D01*
X112343514Y-92640314D01*
X112576950Y-92737006D01*
X112824765Y-92786300D01*
X113077435Y-92786300D01*
X113325250Y-92737006D01*
X113558686Y-92640314D01*
X113768773Y-92499938D01*
X113947438Y-92321273D01*
X114044450Y-92176085D01*
X114044450Y-92433600D01*
X114053032Y-92520737D01*
X114078449Y-92604526D01*
X114119724Y-92681745D01*
X114175271Y-92749429D01*
X114242955Y-92804976D01*
X114320174Y-92846251D01*
X114403963Y-92871668D01*
X114491100Y-92880250D01*
X116001370Y-92880250D01*
X125306834Y-102185715D01*
X125261405Y-102204532D01*
X125126659Y-102294567D01*
X125012067Y-102409159D01*
X124922032Y-102543905D01*
X124860016Y-102693627D01*
X124828400Y-102852571D01*
X124828400Y-103014629D01*
X124860016Y-103173573D01*
X124922032Y-103323295D01*
X125012067Y-103458041D01*
X125126659Y-103572633D01*
X125261405Y-103662668D01*
X125411127Y-103724684D01*
X125570071Y-103756300D01*
X125629656Y-103756300D01*
X126394390Y-104521035D01*
X126394391Y-118806835D01*
X126352257Y-118848969D01*
X126262222Y-118983715D01*
X126200206Y-119133437D01*
X126168590Y-119292381D01*
X126168590Y-119336950D01*
X125140831Y-119336950D01*
X118547383Y-112743503D01*
X118531072Y-112723628D01*
X118451785Y-112658559D01*
X118361327Y-112610209D01*
X118263175Y-112580435D01*
X118186675Y-112572900D01*
X118161100Y-112570381D01*
X118135525Y-112572900D01*
X112021950Y-112572900D01*
X112070795Y-112552668D01*
X112205541Y-112462633D01*
X112320133Y-112348041D01*
X112410168Y-112213295D01*
X112472184Y-112063573D01*
X112503800Y-111904629D01*
X112503800Y-111742571D01*
X112472184Y-111583627D01*
X112410168Y-111433905D01*
X112320133Y-111299159D01*
X112209574Y-111188600D01*
X112320133Y-111078041D01*
X112410168Y-110943295D01*
X112472184Y-110793573D01*
X112503800Y-110634629D01*
X112503800Y-110472571D01*
X112472184Y-110313627D01*
X112410168Y-110163905D01*
X112320133Y-110029159D01*
X112209574Y-109918600D01*
X112320133Y-109808041D01*
X112410168Y-109673295D01*
X112472184Y-109523573D01*
X112503800Y-109364629D01*
X112503800Y-109202571D01*
X112472184Y-109043627D01*
X112410168Y-108893905D01*
X112320133Y-108759159D01*
X112205541Y-108644567D01*
X112070795Y-108554532D01*
X111921073Y-108492516D01*
X111762129Y-108460900D01*
X111600071Y-108460900D01*
X111595659Y-108461778D01*
X108696600Y-105562720D01*
X108696600Y-105392571D01*
X113398400Y-105392571D01*
X113398400Y-105554629D01*
X113430016Y-105713573D01*
X113492032Y-105863295D01*
X113582067Y-105998041D01*
X113696659Y-106112633D01*
X113831405Y-106202668D01*
X113981127Y-106264684D01*
X114140071Y-106296300D01*
X114302129Y-106296300D01*
X114461073Y-106264684D01*
X114610795Y-106202668D01*
X114745541Y-106112633D01*
X114860133Y-105998041D01*
X114950168Y-105863295D01*
X115012184Y-105713573D01*
X115043800Y-105554629D01*
X115043800Y-105392571D01*
X115042922Y-105388158D01*
X118432301Y-101998780D01*
X118443849Y-102012852D01*
X118627563Y-102163621D01*
X118837160Y-102275653D01*
X119064586Y-102344642D01*
X119301100Y-102367937D01*
X119537615Y-102344642D01*
X119765041Y-102275653D01*
X119974638Y-102163621D01*
X120158352Y-102012852D01*
X120309121Y-101829138D01*
X120421153Y-101619541D01*
X120490142Y-101392115D01*
X120507600Y-101214863D01*
X120507600Y-99572337D01*
X120490142Y-99395085D01*
X120421153Y-99167659D01*
X120309121Y-98958062D01*
X120158352Y-98774348D01*
X119974637Y-98623579D01*
X119765040Y-98511547D01*
X119537614Y-98442558D01*
X119301100Y-98419263D01*
X119064585Y-98442558D01*
X118837159Y-98511547D01*
X118627562Y-98623579D01*
X118443848Y-98774348D01*
X118293079Y-98958063D01*
X118181047Y-99167660D01*
X118112058Y-99395086D01*
X118094600Y-99572338D01*
X118094600Y-100863719D01*
X114306542Y-104651778D01*
X114302129Y-104650900D01*
X114140071Y-104650900D01*
X113981127Y-104682516D01*
X113831405Y-104744532D01*
X113696659Y-104834567D01*
X113582067Y-104949159D01*
X113492032Y-105083905D01*
X113430016Y-105233627D01*
X113398400Y-105392571D01*
X108696600Y-105392571D01*
X108696600Y-99572337D01*
X114284600Y-99572337D01*
X114284600Y-101214862D01*
X114302058Y-101392114D01*
X114371047Y-101619540D01*
X114483079Y-101829137D01*
X114633848Y-102012852D01*
X114817562Y-102163621D01*
X115027159Y-102275653D01*
X115254585Y-102344642D01*
X115491100Y-102367937D01*
X115727614Y-102344642D01*
X115955040Y-102275653D01*
X116164637Y-102163621D01*
X116348352Y-102012852D01*
X116499121Y-101829138D01*
X116611153Y-101619541D01*
X116680142Y-101392115D01*
X116697600Y-101214863D01*
X116697600Y-99572337D01*
X116680142Y-99395085D01*
X116611153Y-99167659D01*
X116499121Y-98958062D01*
X116348352Y-98774348D01*
X116164638Y-98623579D01*
X115955041Y-98511547D01*
X115727615Y-98442558D01*
X115491100Y-98419263D01*
X115254586Y-98442558D01*
X115027160Y-98511547D01*
X114817563Y-98623579D01*
X114633849Y-98774348D01*
X114483080Y-98958062D01*
X114371048Y-99167659D01*
X114302058Y-99395085D01*
X114284600Y-99572337D01*
X108696600Y-99572337D01*
X108696600Y-92245827D01*
X108699119Y-92220250D01*
X108689066Y-92118175D01*
X108659291Y-92020023D01*
X108641635Y-91986991D01*
X108610941Y-91929565D01*
X108545872Y-91850278D01*
X108526003Y-91833972D01*
X103428733Y-86736703D01*
X103412422Y-86716828D01*
X103333135Y-86651759D01*
X103242677Y-86603409D01*
X103144525Y-86573635D01*
X103068025Y-86566100D01*
X103042450Y-86563581D01*
X103016875Y-86566100D01*
X90723475Y-86566100D01*
X90697900Y-86563581D01*
X90595825Y-86573635D01*
X90497672Y-86603409D01*
X90466164Y-86620251D01*
X90407215Y-86651759D01*
X90327928Y-86716828D01*
X90311622Y-86736697D01*
X90176542Y-86871778D01*
X90172129Y-86870900D01*
X90010071Y-86870900D01*
X89851127Y-86902516D01*
X89701405Y-86964532D01*
X89566659Y-87054567D01*
X89452067Y-87169159D01*
X89362032Y-87303905D01*
X89300016Y-87453627D01*
X89268400Y-87612571D01*
X85480600Y-87612571D01*
X85480600Y-83070721D01*
X86352600Y-83070721D01*
X86352600Y-84696478D01*
X86369941Y-84872546D01*
X86438473Y-85098464D01*
X86549762Y-85306672D01*
X86699532Y-85489168D01*
X86882027Y-85638938D01*
X87090235Y-85750227D01*
X87316153Y-85818759D01*
X87551100Y-85841899D01*
X87786046Y-85818759D01*
X88011964Y-85750227D01*
X88220172Y-85638938D01*
X88402668Y-85489168D01*
X88552438Y-85306673D01*
X88663727Y-85098465D01*
X88732259Y-84872547D01*
X88749600Y-84696479D01*
X88749600Y-83070721D01*
X88892600Y-83070721D01*
X88892600Y-84696478D01*
X88909941Y-84872546D01*
X88978473Y-85098464D01*
X89089762Y-85306672D01*
X89239532Y-85489168D01*
X89422027Y-85638938D01*
X89630235Y-85750227D01*
X89856153Y-85818759D01*
X90091100Y-85841899D01*
X90326046Y-85818759D01*
X90551964Y-85750227D01*
X90760172Y-85638938D01*
X90942668Y-85489168D01*
X91092438Y-85306673D01*
X91203727Y-85098465D01*
X91272259Y-84872547D01*
X91289600Y-84696479D01*
X91289600Y-83070721D01*
X92702600Y-83070721D01*
X92702600Y-84696478D01*
X92719941Y-84872546D01*
X92788473Y-85098464D01*
X92899762Y-85306672D01*
X93049532Y-85489168D01*
X93232027Y-85638938D01*
X93440235Y-85750227D01*
X93666153Y-85818759D01*
X93901100Y-85841899D01*
X94136046Y-85818759D01*
X94361964Y-85750227D01*
X94570172Y-85638938D01*
X94752668Y-85489168D01*
X94902438Y-85306673D01*
X95013727Y-85098465D01*
X95082259Y-84872547D01*
X95099600Y-84696479D01*
X95099600Y-83070721D01*
X95242600Y-83070721D01*
X95242600Y-84696478D01*
X95259941Y-84872546D01*
X95328473Y-85098464D01*
X95439762Y-85306672D01*
X95589532Y-85489168D01*
X95772027Y-85638938D01*
X95980235Y-85750227D01*
X96206153Y-85818759D01*
X96441100Y-85841899D01*
X96676046Y-85818759D01*
X96901964Y-85750227D01*
X97110172Y-85638938D01*
X97292668Y-85489168D01*
X97442438Y-85306673D01*
X97553727Y-85098465D01*
X97622259Y-84872547D01*
X97639600Y-84696479D01*
X97639600Y-83070721D01*
X99052600Y-83070721D01*
X99052600Y-84696478D01*
X99069941Y-84872546D01*
X99138473Y-85098464D01*
X99249762Y-85306672D01*
X99399532Y-85489168D01*
X99582027Y-85638938D01*
X99790235Y-85750227D01*
X100016153Y-85818759D01*
X100251100Y-85841899D01*
X100486046Y-85818759D01*
X100711964Y-85750227D01*
X100920172Y-85638938D01*
X101102668Y-85489168D01*
X101252438Y-85306673D01*
X101363727Y-85098465D01*
X101432259Y-84872547D01*
X101449600Y-84696479D01*
X101449600Y-83070721D01*
X101592600Y-83070721D01*
X101592600Y-84696478D01*
X101609941Y-84872546D01*
X101678473Y-85098464D01*
X101789762Y-85306672D01*
X101939532Y-85489168D01*
X102122027Y-85638938D01*
X102330235Y-85750227D01*
X102556153Y-85818759D01*
X102791100Y-85841899D01*
X103026046Y-85818759D01*
X103251964Y-85750227D01*
X103460172Y-85638938D01*
X103642668Y-85489168D01*
X103792438Y-85306673D01*
X103903727Y-85098465D01*
X103972259Y-84872547D01*
X103989600Y-84696479D01*
X103989600Y-83070721D01*
X105402600Y-83070721D01*
X105402600Y-84696478D01*
X105419941Y-84872546D01*
X105488473Y-85098464D01*
X105599762Y-85306672D01*
X105749532Y-85489168D01*
X105932027Y-85638938D01*
X106140235Y-85750227D01*
X106366153Y-85818759D01*
X106601100Y-85841899D01*
X106836046Y-85818759D01*
X107061964Y-85750227D01*
X107270172Y-85638938D01*
X107452668Y-85489168D01*
X107602438Y-85306673D01*
X107713727Y-85098465D01*
X107782259Y-84872547D01*
X107799600Y-84696479D01*
X107799600Y-83070721D01*
X107942600Y-83070721D01*
X107942600Y-84696478D01*
X107959941Y-84872546D01*
X108028473Y-85098464D01*
X108139762Y-85306672D01*
X108289532Y-85489168D01*
X108472027Y-85638938D01*
X108680235Y-85750227D01*
X108906153Y-85818759D01*
X109141100Y-85841899D01*
X109376046Y-85818759D01*
X109601964Y-85750227D01*
X109810172Y-85638938D01*
X109992668Y-85489168D01*
X110142438Y-85306673D01*
X110253727Y-85098465D01*
X110322259Y-84872547D01*
X110339600Y-84696479D01*
X110339600Y-83070721D01*
X110322259Y-82894653D01*
X110253727Y-82668735D01*
X110142438Y-82460527D01*
X109992668Y-82278032D01*
X109810173Y-82128262D01*
X109601965Y-82016973D01*
X109376047Y-81948441D01*
X109141100Y-81925301D01*
X108906154Y-81948441D01*
X108680236Y-82016973D01*
X108472028Y-82128262D01*
X108289533Y-82278032D01*
X108139763Y-82460527D01*
X108028474Y-82668735D01*
X107959941Y-82894653D01*
X107942600Y-83070721D01*
X107799600Y-83070721D01*
X107782259Y-82894653D01*
X107713727Y-82668735D01*
X107602438Y-82460527D01*
X107452668Y-82278032D01*
X107270173Y-82128262D01*
X107061965Y-82016973D01*
X106836047Y-81948441D01*
X106601100Y-81925301D01*
X106366154Y-81948441D01*
X106140236Y-82016973D01*
X105932028Y-82128262D01*
X105749533Y-82278032D01*
X105599763Y-82460527D01*
X105488474Y-82668735D01*
X105419941Y-82894653D01*
X105402600Y-83070721D01*
X103989600Y-83070721D01*
X103972259Y-82894653D01*
X103903727Y-82668735D01*
X103792438Y-82460527D01*
X103642668Y-82278032D01*
X103460173Y-82128262D01*
X103251965Y-82016973D01*
X103026047Y-81948441D01*
X102791100Y-81925301D01*
X102556154Y-81948441D01*
X102330236Y-82016973D01*
X102122028Y-82128262D01*
X101939533Y-82278032D01*
X101789763Y-82460527D01*
X101678474Y-82668735D01*
X101609941Y-82894653D01*
X101592600Y-83070721D01*
X101449600Y-83070721D01*
X101432259Y-82894653D01*
X101363727Y-82668735D01*
X101252438Y-82460527D01*
X101102668Y-82278032D01*
X100920173Y-82128262D01*
X100711965Y-82016973D01*
X100486047Y-81948441D01*
X100251100Y-81925301D01*
X100016154Y-81948441D01*
X99790236Y-82016973D01*
X99582028Y-82128262D01*
X99399533Y-82278032D01*
X99249763Y-82460527D01*
X99138474Y-82668735D01*
X99069941Y-82894653D01*
X99052600Y-83070721D01*
X97639600Y-83070721D01*
X97622259Y-82894653D01*
X97553727Y-82668735D01*
X97442438Y-82460527D01*
X97292668Y-82278032D01*
X97110173Y-82128262D01*
X96901965Y-82016973D01*
X96676047Y-81948441D01*
X96441100Y-81925301D01*
X96206154Y-81948441D01*
X95980236Y-82016973D01*
X95772028Y-82128262D01*
X95589533Y-82278032D01*
X95439763Y-82460527D01*
X95328474Y-82668735D01*
X95259941Y-82894653D01*
X95242600Y-83070721D01*
X95099600Y-83070721D01*
X95082259Y-82894653D01*
X95013727Y-82668735D01*
X94902438Y-82460527D01*
X94752668Y-82278032D01*
X94570173Y-82128262D01*
X94361965Y-82016973D01*
X94136047Y-81948441D01*
X93901100Y-81925301D01*
X93666154Y-81948441D01*
X93440236Y-82016973D01*
X93232028Y-82128262D01*
X93049533Y-82278032D01*
X92899763Y-82460527D01*
X92788474Y-82668735D01*
X92719941Y-82894653D01*
X92702600Y-83070721D01*
X91289600Y-83070721D01*
X91272259Y-82894653D01*
X91203727Y-82668735D01*
X91092438Y-82460527D01*
X90942668Y-82278032D01*
X90760173Y-82128262D01*
X90551965Y-82016973D01*
X90326047Y-81948441D01*
X90091100Y-81925301D01*
X89856154Y-81948441D01*
X89630236Y-82016973D01*
X89422028Y-82128262D01*
X89239533Y-82278032D01*
X89089763Y-82460527D01*
X88978474Y-82668735D01*
X88909941Y-82894653D01*
X88892600Y-83070721D01*
X88749600Y-83070721D01*
X88732259Y-82894653D01*
X88663727Y-82668735D01*
X88552438Y-82460527D01*
X88402668Y-82278032D01*
X88220173Y-82128262D01*
X88011965Y-82016973D01*
X87786047Y-81948441D01*
X87551100Y-81925301D01*
X87316154Y-81948441D01*
X87090236Y-82016973D01*
X86882028Y-82128262D01*
X86699533Y-82278032D01*
X86549763Y-82460527D01*
X86438474Y-82668735D01*
X86369941Y-82894653D01*
X86352600Y-83070721D01*
X85480600Y-83070721D01*
X85480600Y-81217265D01*
X111668400Y-81217265D01*
X111668400Y-81469935D01*
X111717694Y-81717750D01*
X111814386Y-81951186D01*
X111954762Y-82161273D01*
X112133427Y-82339938D01*
X112343514Y-82480314D01*
X112576950Y-82577006D01*
X112824765Y-82626300D01*
X113077435Y-82626300D01*
X113325250Y-82577006D01*
X113558686Y-82480314D01*
X113660574Y-82412234D01*
X171866600Y-82412234D01*
X171866600Y-82814966D01*
X171945169Y-83209959D01*
X172099288Y-83582034D01*
X172323034Y-83916892D01*
X172607808Y-84201666D01*
X172942666Y-84425412D01*
X173314741Y-84579531D01*
X173709734Y-84658100D01*
X174112466Y-84658100D01*
X174507459Y-84579531D01*
X174879534Y-84425412D01*
X175214392Y-84201666D01*
X175499166Y-83916892D01*
X175722912Y-83582034D01*
X175877031Y-83209959D01*
X175955600Y-82814966D01*
X175955600Y-82412234D01*
X175877031Y-82017241D01*
X175722912Y-81645166D01*
X175499166Y-81310308D01*
X175214392Y-81025534D01*
X174879534Y-80801788D01*
X174507459Y-80647669D01*
X174112466Y-80569100D01*
X173709734Y-80569100D01*
X173314741Y-80647669D01*
X172942666Y-80801788D01*
X172607808Y-81025534D01*
X172323034Y-81310308D01*
X172099288Y-81645166D01*
X171945169Y-82017241D01*
X171866600Y-82412234D01*
X113660574Y-82412234D01*
X113768773Y-82339938D01*
X113947438Y-82161273D01*
X114087814Y-81951186D01*
X114184506Y-81717750D01*
X114233800Y-81469935D01*
X114233800Y-81217265D01*
X114184506Y-80969450D01*
X114087814Y-80736014D01*
X113947438Y-80525927D01*
X113768773Y-80347262D01*
X113558686Y-80206886D01*
X113325250Y-80110194D01*
X113077435Y-80060900D01*
X112824765Y-80060900D01*
X112576950Y-80110194D01*
X112343514Y-80206886D01*
X112133427Y-80347262D01*
X111954762Y-80525927D01*
X111814386Y-80736014D01*
X111717694Y-80969450D01*
X111668400Y-81217265D01*
X85480600Y-81217265D01*
X85480600Y-78333100D01*
X177761900Y-78333100D01*
X177761900Y-131674100D01*
%TA.AperFunction,Conductor*%
D29*
G36*
X177761900Y-131674100D02*
G01*
X85480600Y-131674100D01*
X85480600Y-128132234D01*
X86776600Y-128132234D01*
X86776600Y-128534966D01*
X86855169Y-128929959D01*
X87009288Y-129302034D01*
X87233034Y-129636892D01*
X87517808Y-129921666D01*
X87852666Y-130145412D01*
X88224741Y-130299531D01*
X88619734Y-130378100D01*
X89022466Y-130378100D01*
X89417459Y-130299531D01*
X89789534Y-130145412D01*
X90124392Y-129921666D01*
X90409166Y-129636892D01*
X90565960Y-129402234D01*
X171866600Y-129402234D01*
X171866600Y-129804966D01*
X171945169Y-130199959D01*
X172099288Y-130572034D01*
X172323034Y-130906892D01*
X172607808Y-131191666D01*
X172942666Y-131415412D01*
X173314741Y-131569531D01*
X173709734Y-131648100D01*
X174112466Y-131648100D01*
X174507459Y-131569531D01*
X174879534Y-131415412D01*
X175214392Y-131191666D01*
X175499166Y-130906892D01*
X175722912Y-130572034D01*
X175877031Y-130199959D01*
X175955600Y-129804966D01*
X175955600Y-129402234D01*
X175877031Y-129007241D01*
X175722912Y-128635166D01*
X175499166Y-128300308D01*
X175214392Y-128015534D01*
X174879534Y-127791788D01*
X174507459Y-127637669D01*
X174112466Y-127559100D01*
X173709734Y-127559100D01*
X173314741Y-127637669D01*
X172942666Y-127791788D01*
X172607808Y-128015534D01*
X172323034Y-128300308D01*
X172099288Y-128635166D01*
X171945169Y-129007241D01*
X171866600Y-129402234D01*
X90565960Y-129402234D01*
X90632912Y-129302034D01*
X90787031Y-128929959D01*
X90865600Y-128534966D01*
X90865600Y-128132234D01*
X90787031Y-127737241D01*
X90632912Y-127365166D01*
X90409166Y-127030308D01*
X90124392Y-126745534D01*
X89789534Y-126521788D01*
X89417459Y-126367669D01*
X89022466Y-126289100D01*
X88619734Y-126289100D01*
X88224741Y-126367669D01*
X87852666Y-126521788D01*
X87517808Y-126745534D01*
X87233034Y-127030308D01*
X87009288Y-127365166D01*
X86855169Y-127737241D01*
X86776600Y-128132234D01*
X85480600Y-128132234D01*
X85480600Y-126250722D01*
X95242600Y-126250722D01*
X95242600Y-127876479D01*
X95259941Y-128052547D01*
X95328474Y-128278465D01*
X95439763Y-128486673D01*
X95589533Y-128669168D01*
X95772028Y-128818938D01*
X95980236Y-128930227D01*
X96206154Y-128998759D01*
X96441100Y-129021899D01*
X96676047Y-128998759D01*
X96901965Y-128930227D01*
X97110173Y-128818938D01*
X97292668Y-128669168D01*
X97442438Y-128486673D01*
X97553727Y-128278465D01*
X97622259Y-128052547D01*
X97639600Y-127876479D01*
X97639600Y-126250722D01*
X97782600Y-126250722D01*
X97782600Y-127876479D01*
X97799941Y-128052547D01*
X97868474Y-128278465D01*
X97979763Y-128486673D01*
X98129533Y-128669168D01*
X98312028Y-128818938D01*
X98520236Y-128930227D01*
X98746154Y-128998759D01*
X98981100Y-129021899D01*
X99216047Y-128998759D01*
X99441965Y-128930227D01*
X99650173Y-128818938D01*
X99832668Y-128669168D01*
X99982438Y-128486673D01*
X100093727Y-128278465D01*
X100162259Y-128052547D01*
X100179600Y-127876479D01*
X100179600Y-126250722D01*
X100322600Y-126250722D01*
X100322600Y-127876479D01*
X100339941Y-128052547D01*
X100408474Y-128278465D01*
X100519763Y-128486673D01*
X100669533Y-128669168D01*
X100852028Y-128818938D01*
X101060236Y-128930227D01*
X101286154Y-128998759D01*
X101521100Y-129021899D01*
X101756047Y-128998759D01*
X101981965Y-128930227D01*
X102190173Y-128818938D01*
X102372668Y-128669168D01*
X102522438Y-128486673D01*
X102633727Y-128278465D01*
X102702259Y-128052547D01*
X102719600Y-127876479D01*
X102719600Y-126250721D01*
X102702259Y-126074653D01*
X102633727Y-125848735D01*
X102604257Y-125793600D01*
X107166763Y-125793600D01*
X107190058Y-126030115D01*
X107259047Y-126257541D01*
X107371079Y-126467138D01*
X107521848Y-126650852D01*
X107705562Y-126801621D01*
X107915159Y-126913653D01*
X108142585Y-126982642D01*
X108319837Y-127000100D01*
X109962363Y-127000100D01*
X110139615Y-126982642D01*
X110367041Y-126913653D01*
X110576638Y-126801621D01*
X110760352Y-126650852D01*
X110911121Y-126467138D01*
X111023153Y-126257541D01*
X111092142Y-126030115D01*
X111115437Y-125793600D01*
X111092142Y-125557085D01*
X111023153Y-125329659D01*
X110911121Y-125120062D01*
X110760352Y-124936348D01*
X110576638Y-124785579D01*
X110367041Y-124673547D01*
X110139615Y-124604558D01*
X109962363Y-124587100D01*
X108319837Y-124587100D01*
X108142585Y-124604558D01*
X107915159Y-124673547D01*
X107705562Y-124785579D01*
X107521848Y-124936348D01*
X107371079Y-125120062D01*
X107259047Y-125329659D01*
X107190058Y-125557085D01*
X107166763Y-125793600D01*
X102604257Y-125793600D01*
X102522438Y-125640527D01*
X102372668Y-125458032D01*
X102190172Y-125308262D01*
X101981964Y-125196973D01*
X101756046Y-125128441D01*
X101521100Y-125105301D01*
X101286153Y-125128441D01*
X101060235Y-125196973D01*
X100852027Y-125308262D01*
X100669532Y-125458032D01*
X100519762Y-125640528D01*
X100408473Y-125848736D01*
X100339941Y-126074654D01*
X100322600Y-126250722D01*
X100179600Y-126250722D01*
X100179600Y-126250721D01*
X100162259Y-126074653D01*
X100093727Y-125848735D01*
X99982438Y-125640527D01*
X99832668Y-125458032D01*
X99650172Y-125308262D01*
X99441964Y-125196973D01*
X99216046Y-125128441D01*
X98981100Y-125105301D01*
X98746153Y-125128441D01*
X98520235Y-125196973D01*
X98312027Y-125308262D01*
X98129532Y-125458032D01*
X97979762Y-125640528D01*
X97868473Y-125848736D01*
X97799941Y-126074654D01*
X97782600Y-126250722D01*
X97639600Y-126250722D01*
X97639600Y-126250721D01*
X97622259Y-126074653D01*
X97553727Y-125848735D01*
X97442438Y-125640527D01*
X97292668Y-125458032D01*
X97110172Y-125308262D01*
X96901964Y-125196973D01*
X96676046Y-125128441D01*
X96441100Y-125105301D01*
X96206153Y-125128441D01*
X95980235Y-125196973D01*
X95772027Y-125308262D01*
X95589532Y-125458032D01*
X95439762Y-125640528D01*
X95328473Y-125848736D01*
X95259941Y-126074654D01*
X95242600Y-126250722D01*
X85480600Y-126250722D01*
X85480600Y-123253600D01*
X107166763Y-123253600D01*
X107190058Y-123490115D01*
X107259047Y-123717541D01*
X107371079Y-123927138D01*
X107521848Y-124110852D01*
X107705562Y-124261621D01*
X107915159Y-124373653D01*
X108142585Y-124442642D01*
X108319837Y-124460100D01*
X109962363Y-124460100D01*
X110139615Y-124442642D01*
X110367041Y-124373653D01*
X110576638Y-124261621D01*
X110760352Y-124110852D01*
X110911121Y-123927138D01*
X111023153Y-123717541D01*
X111092142Y-123490115D01*
X111115437Y-123253600D01*
X111092142Y-123017085D01*
X111023153Y-122789659D01*
X110911121Y-122580062D01*
X110760352Y-122396348D01*
X110576638Y-122245579D01*
X110367041Y-122133547D01*
X110139615Y-122064558D01*
X109962363Y-122047100D01*
X108319837Y-122047100D01*
X108142585Y-122064558D01*
X107915159Y-122133547D01*
X107705562Y-122245579D01*
X107521848Y-122396348D01*
X107371079Y-122580062D01*
X107259047Y-122789659D01*
X107190058Y-123017085D01*
X107166763Y-123253600D01*
X85480600Y-123253600D01*
X85480600Y-118630722D01*
X95242600Y-118630722D01*
X95242600Y-120256479D01*
X95259941Y-120432547D01*
X95328474Y-120658465D01*
X95439763Y-120866673D01*
X95589533Y-121049168D01*
X95772028Y-121198938D01*
X95980236Y-121310227D01*
X96206154Y-121378759D01*
X96441100Y-121401899D01*
X96676047Y-121378759D01*
X96901965Y-121310227D01*
X97110173Y-121198938D01*
X97292668Y-121049168D01*
X97442438Y-120866673D01*
X97553727Y-120658465D01*
X97622259Y-120432547D01*
X97639600Y-120256479D01*
X97639600Y-118630721D01*
X97622259Y-118454653D01*
X97553727Y-118228735D01*
X97442438Y-118020527D01*
X97292668Y-117838032D01*
X97110172Y-117688262D01*
X96901964Y-117576973D01*
X96676046Y-117508441D01*
X96441100Y-117485301D01*
X96206153Y-117508441D01*
X95980235Y-117576973D01*
X95772027Y-117688262D01*
X95589532Y-117838032D01*
X95439762Y-118020528D01*
X95328473Y-118228736D01*
X95259941Y-118454654D01*
X95242600Y-118630722D01*
X85480600Y-118630722D01*
X85480600Y-111010722D01*
X95242600Y-111010722D01*
X95242600Y-112636479D01*
X95259941Y-112812547D01*
X95328474Y-113038465D01*
X95439763Y-113246673D01*
X95589533Y-113429168D01*
X95772028Y-113578938D01*
X95980236Y-113690227D01*
X96206154Y-113758759D01*
X96441100Y-113781899D01*
X96676047Y-113758759D01*
X96901965Y-113690227D01*
X97110173Y-113578938D01*
X97292668Y-113429168D01*
X97442438Y-113246673D01*
X97553727Y-113038465D01*
X97622259Y-112812547D01*
X97639600Y-112636479D01*
X97639600Y-111010722D01*
X97782600Y-111010722D01*
X97782600Y-112636479D01*
X97799941Y-112812547D01*
X97868474Y-113038465D01*
X97979763Y-113246673D01*
X98129533Y-113429168D01*
X98312028Y-113578938D01*
X98520236Y-113690227D01*
X98746154Y-113758759D01*
X98981100Y-113781899D01*
X99216047Y-113758759D01*
X99441965Y-113690227D01*
X99650173Y-113578938D01*
X99832668Y-113429168D01*
X99982438Y-113246673D01*
X100093727Y-113038465D01*
X100162259Y-112812547D01*
X100179600Y-112636479D01*
X100179600Y-111010722D01*
X100322600Y-111010722D01*
X100322600Y-112636479D01*
X100339941Y-112812547D01*
X100408474Y-113038465D01*
X100519763Y-113246673D01*
X100669533Y-113429168D01*
X100852028Y-113578938D01*
X101060236Y-113690227D01*
X101286154Y-113758759D01*
X101521100Y-113781899D01*
X101756047Y-113758759D01*
X101981965Y-113690227D01*
X102190173Y-113578938D01*
X102372668Y-113429168D01*
X102522438Y-113246673D01*
X102633727Y-113038465D01*
X102702259Y-112812547D01*
X102719600Y-112636479D01*
X102719600Y-111010721D01*
X102702259Y-110834653D01*
X102633727Y-110608735D01*
X102522438Y-110400527D01*
X102372668Y-110218032D01*
X102190172Y-110068262D01*
X101981964Y-109956973D01*
X101756046Y-109888441D01*
X101521100Y-109865301D01*
X101286153Y-109888441D01*
X101060235Y-109956973D01*
X100852027Y-110068262D01*
X100669532Y-110218032D01*
X100519762Y-110400528D01*
X100408473Y-110608736D01*
X100339941Y-110834654D01*
X100322600Y-111010722D01*
X100179600Y-111010722D01*
X100179600Y-111010721D01*
X100162259Y-110834653D01*
X100093727Y-110608735D01*
X99982438Y-110400527D01*
X99832668Y-110218032D01*
X99650172Y-110068262D01*
X99441964Y-109956973D01*
X99216046Y-109888441D01*
X98981100Y-109865301D01*
X98746153Y-109888441D01*
X98520235Y-109956973D01*
X98312027Y-110068262D01*
X98129532Y-110218032D01*
X97979762Y-110400528D01*
X97868473Y-110608736D01*
X97799941Y-110834654D01*
X97782600Y-111010722D01*
X97639600Y-111010722D01*
X97639600Y-111010721D01*
X97622259Y-110834653D01*
X97553727Y-110608735D01*
X97442438Y-110400527D01*
X97292668Y-110218032D01*
X97110172Y-110068262D01*
X96901964Y-109956973D01*
X96676046Y-109888441D01*
X96441100Y-109865301D01*
X96206153Y-109888441D01*
X95980235Y-109956973D01*
X95772027Y-110068262D01*
X95589532Y-110218032D01*
X95439762Y-110400528D01*
X95328473Y-110608736D01*
X95259941Y-110834654D01*
X95242600Y-111010722D01*
X85480600Y-111010722D01*
X85480600Y-102732234D01*
X86776600Y-102732234D01*
X86776600Y-103134966D01*
X86855169Y-103529959D01*
X87009288Y-103902034D01*
X87233034Y-104236892D01*
X87517808Y-104521666D01*
X87852666Y-104745412D01*
X88224741Y-104899531D01*
X88619734Y-104978100D01*
X89022466Y-104978100D01*
X89417459Y-104899531D01*
X89789534Y-104745412D01*
X90124392Y-104521666D01*
X90409166Y-104236892D01*
X90632912Y-103902034D01*
X90787031Y-103529959D01*
X90814726Y-103390722D01*
X95242600Y-103390722D01*
X95242600Y-105016479D01*
X95259941Y-105192547D01*
X95328474Y-105418465D01*
X95439763Y-105626673D01*
X95589533Y-105809168D01*
X95772028Y-105958938D01*
X95980236Y-106070227D01*
X96206154Y-106138759D01*
X96441100Y-106161899D01*
X96676047Y-106138759D01*
X96901965Y-106070227D01*
X97110173Y-105958938D01*
X97292668Y-105809168D01*
X97442438Y-105626673D01*
X97553727Y-105418465D01*
X97622259Y-105192547D01*
X97639600Y-105016479D01*
X97639600Y-103390722D01*
X97782600Y-103390722D01*
X97782600Y-105016479D01*
X97799941Y-105192547D01*
X97868474Y-105418465D01*
X97979763Y-105626673D01*
X98129533Y-105809168D01*
X98312028Y-105958938D01*
X98520236Y-106070227D01*
X98746154Y-106138759D01*
X98981100Y-106161899D01*
X99216047Y-106138759D01*
X99441965Y-106070227D01*
X99650173Y-105958938D01*
X99832668Y-105809168D01*
X99982438Y-105626673D01*
X100093727Y-105418465D01*
X100162259Y-105192547D01*
X100179600Y-105016479D01*
X100179600Y-103390722D01*
X100322600Y-103390722D01*
X100322600Y-105016479D01*
X100339941Y-105192547D01*
X100408474Y-105418465D01*
X100519763Y-105626673D01*
X100669533Y-105809168D01*
X100852028Y-105958938D01*
X101060236Y-106070227D01*
X101286154Y-106138759D01*
X101521100Y-106161899D01*
X101756047Y-106138759D01*
X101981965Y-106070227D01*
X102190173Y-105958938D01*
X102372668Y-105809168D01*
X102522438Y-105626673D01*
X102633727Y-105418465D01*
X102702259Y-105192547D01*
X102719600Y-105016479D01*
X102719600Y-103390721D01*
X102702259Y-103214653D01*
X102633727Y-102988735D01*
X102522438Y-102780527D01*
X102372668Y-102598032D01*
X102190172Y-102448262D01*
X101981964Y-102336973D01*
X101756046Y-102268441D01*
X101521100Y-102245301D01*
X101286153Y-102268441D01*
X101060235Y-102336973D01*
X100852027Y-102448262D01*
X100669532Y-102598032D01*
X100519762Y-102780528D01*
X100408473Y-102988736D01*
X100339941Y-103214654D01*
X100322600Y-103390722D01*
X100179600Y-103390722D01*
X100179600Y-103390721D01*
X100162259Y-103214653D01*
X100093727Y-102988735D01*
X99982438Y-102780527D01*
X99832668Y-102598032D01*
X99650172Y-102448262D01*
X99441964Y-102336973D01*
X99216046Y-102268441D01*
X98981100Y-102245301D01*
X98746153Y-102268441D01*
X98520235Y-102336973D01*
X98312027Y-102448262D01*
X98129532Y-102598032D01*
X97979762Y-102780528D01*
X97868473Y-102988736D01*
X97799941Y-103214654D01*
X97782600Y-103390722D01*
X97639600Y-103390722D01*
X97639600Y-103390721D01*
X97622259Y-103214653D01*
X97553727Y-102988735D01*
X97442438Y-102780527D01*
X97292668Y-102598032D01*
X97110172Y-102448262D01*
X96901964Y-102336973D01*
X96676046Y-102268441D01*
X96441100Y-102245301D01*
X96206153Y-102268441D01*
X95980235Y-102336973D01*
X95772027Y-102448262D01*
X95589532Y-102598032D01*
X95439762Y-102780528D01*
X95328473Y-102988736D01*
X95259941Y-103214654D01*
X95242600Y-103390722D01*
X90814726Y-103390722D01*
X90865600Y-103134966D01*
X90865600Y-102732234D01*
X90787031Y-102337241D01*
X90632912Y-101965166D01*
X90409166Y-101630308D01*
X90124392Y-101345534D01*
X89789534Y-101121788D01*
X89417459Y-100967669D01*
X89022466Y-100889100D01*
X88619734Y-100889100D01*
X88224741Y-100967669D01*
X87852666Y-101121788D01*
X87517808Y-101345534D01*
X87233034Y-101630308D01*
X87009288Y-101965166D01*
X86855169Y-102337241D01*
X86776600Y-102732234D01*
X85480600Y-102732234D01*
X85480600Y-87612571D01*
X89268400Y-87612571D01*
X89268400Y-87774629D01*
X89300016Y-87933573D01*
X89362032Y-88083295D01*
X89452067Y-88218041D01*
X89566659Y-88332633D01*
X89701405Y-88422668D01*
X89851127Y-88484684D01*
X90010071Y-88516300D01*
X90172129Y-88516300D01*
X90331073Y-88484684D01*
X90480795Y-88422668D01*
X90615541Y-88332633D01*
X90730133Y-88218041D01*
X90820168Y-88083295D01*
X90882184Y-87933573D01*
X90913800Y-87774629D01*
X90913800Y-87612571D01*
X90912922Y-87608158D01*
X90913581Y-87607500D01*
X101969409Y-87607500D01*
X101968400Y-87612571D01*
X101968400Y-87774629D01*
X102000016Y-87933573D01*
X102062032Y-88083295D01*
X102152067Y-88218041D01*
X102266659Y-88332633D01*
X102401405Y-88422668D01*
X102551127Y-88484684D01*
X102710071Y-88516300D01*
X102872129Y-88516300D01*
X102876542Y-88515422D01*
X107350400Y-92989281D01*
X107350400Y-100406520D01*
X106152922Y-99209042D01*
X106153800Y-99204629D01*
X106153800Y-99042571D01*
X106122184Y-98883627D01*
X106060168Y-98733905D01*
X105970133Y-98599159D01*
X105855541Y-98484567D01*
X105720795Y-98394532D01*
X105571073Y-98332516D01*
X105412129Y-98300900D01*
X105250071Y-98300900D01*
X105091127Y-98332516D01*
X104941405Y-98394532D01*
X104806659Y-98484567D01*
X104692067Y-98599159D01*
X104602032Y-98733905D01*
X104540016Y-98883627D01*
X104508400Y-99042571D01*
X104508400Y-99204629D01*
X104540016Y-99363573D01*
X104602032Y-99513295D01*
X104692067Y-99648041D01*
X104806659Y-99762633D01*
X104941405Y-99852668D01*
X105091127Y-99914684D01*
X105250071Y-99946300D01*
X105412129Y-99946300D01*
X105416542Y-99945422D01*
X106867800Y-101396681D01*
X106867800Y-102474751D01*
X103171967Y-98778919D01*
X103155656Y-98759044D01*
X103076369Y-98693975D01*
X102985911Y-98645625D01*
X102887759Y-98615851D01*
X102811259Y-98608316D01*
X102785684Y-98605797D01*
X102760109Y-98608316D01*
X95807217Y-98608316D01*
X95804717Y-98604575D01*
X95690125Y-98489983D01*
X95555379Y-98399948D01*
X95405657Y-98337932D01*
X95246713Y-98306316D01*
X95084655Y-98306316D01*
X94925711Y-98337932D01*
X94775989Y-98399948D01*
X94641243Y-98489983D01*
X94526651Y-98604575D01*
X94436616Y-98739321D01*
X94374600Y-98889043D01*
X94342984Y-99047987D01*
X94342984Y-99210045D01*
X94374600Y-99368989D01*
X94436616Y-99518711D01*
X94526651Y-99653457D01*
X94641243Y-99768049D01*
X94775989Y-99858084D01*
X94925711Y-99920100D01*
X95084655Y-99951716D01*
X95246713Y-99951716D01*
X95405657Y-99920100D01*
X95555379Y-99858084D01*
X95690125Y-99768049D01*
X95804717Y-99653457D01*
X95807217Y-99649716D01*
X102570004Y-99649716D01*
X106080400Y-103160113D01*
X106080401Y-109912067D01*
X106076659Y-109914567D01*
X105962067Y-110029159D01*
X105872032Y-110163905D01*
X105810016Y-110313627D01*
X105778400Y-110472571D01*
X105778400Y-110634629D01*
X105810016Y-110793573D01*
X105872032Y-110943295D01*
X105962067Y-111078041D01*
X106076659Y-111192633D01*
X106211405Y-111282668D01*
X106361127Y-111344684D01*
X106520071Y-111376300D01*
X106682129Y-111376300D01*
X106841073Y-111344684D01*
X106867801Y-111333613D01*
X106867801Y-113478340D01*
X106865281Y-113503925D01*
X106875335Y-113606000D01*
X106888428Y-113649159D01*
X106905110Y-113704152D01*
X106953460Y-113794610D01*
X107018529Y-113873897D01*
X107038398Y-113890203D01*
X107582497Y-114434303D01*
X107598803Y-114454172D01*
X107678090Y-114519241D01*
X107737039Y-114550749D01*
X107768547Y-114567591D01*
X107866700Y-114597365D01*
X107968775Y-114607419D01*
X107994350Y-114604900D01*
X109916020Y-114604900D01*
X110859278Y-115548158D01*
X110858400Y-115552571D01*
X110858400Y-115714629D01*
X110890016Y-115873573D01*
X110952032Y-116023295D01*
X111042067Y-116158041D01*
X111156659Y-116272633D01*
X111291405Y-116362668D01*
X111441127Y-116424684D01*
X111600071Y-116456300D01*
X111762129Y-116456300D01*
X111921073Y-116424684D01*
X112070795Y-116362668D01*
X112205541Y-116272633D01*
X112320133Y-116158041D01*
X112410168Y-116023295D01*
X112472184Y-115873573D01*
X112503800Y-115714629D01*
X112503800Y-115552571D01*
X112472184Y-115393627D01*
X112410168Y-115243905D01*
X112320133Y-115109159D01*
X112205541Y-114994567D01*
X112070795Y-114904532D01*
X111921073Y-114842516D01*
X111762129Y-114810900D01*
X111600071Y-114810900D01*
X111595658Y-114811778D01*
X110746280Y-113962400D01*
X110760352Y-113950852D01*
X110911121Y-113767138D01*
X110992815Y-113614300D01*
X117945420Y-113614300D01*
X124204450Y-119873331D01*
X124204450Y-121092807D01*
X123423909Y-120312266D01*
X123405214Y-120289486D01*
X123314324Y-120214895D01*
X123210629Y-120159468D01*
X123098113Y-120125337D01*
X123010422Y-120116700D01*
X123010411Y-120116700D01*
X122981100Y-120113813D01*
X122951789Y-120116700D01*
X110952085Y-120116700D01*
X110911121Y-120040062D01*
X110760352Y-119856348D01*
X110576638Y-119705579D01*
X110367041Y-119593547D01*
X110139615Y-119524558D01*
X109962363Y-119507100D01*
X108319837Y-119507100D01*
X108142585Y-119524558D01*
X107915159Y-119593547D01*
X107705562Y-119705579D01*
X107521848Y-119856348D01*
X107371079Y-120040062D01*
X107330115Y-120116700D01*
X105071786Y-120116700D01*
X105042474Y-120113813D01*
X105013163Y-120116700D01*
X105013153Y-120116700D01*
X104925462Y-120125337D01*
X104812946Y-120159468D01*
X104764677Y-120185269D01*
X104709250Y-120214895D01*
X104658580Y-120256479D01*
X104618361Y-120289486D01*
X104599671Y-120312260D01*
X104252432Y-120659500D01*
X103581144Y-120659500D01*
X102719600Y-119797957D01*
X102719600Y-118630721D01*
X102702259Y-118454653D01*
X102633727Y-118228735D01*
X102633174Y-118227700D01*
X104252426Y-118227700D01*
X104548428Y-118523702D01*
X104564734Y-118543572D01*
X104644021Y-118608641D01*
X104734479Y-118656991D01*
X104802856Y-118677733D01*
X104832630Y-118686765D01*
X104934705Y-118696819D01*
X104960280Y-118694300D01*
X111039567Y-118694300D01*
X111042067Y-118698041D01*
X111156659Y-118812633D01*
X111291405Y-118902668D01*
X111441127Y-118964684D01*
X111600071Y-118996300D01*
X111762129Y-118996300D01*
X111921073Y-118964684D01*
X112070795Y-118902668D01*
X112205541Y-118812633D01*
X112320133Y-118698041D01*
X112410168Y-118563295D01*
X112472184Y-118413573D01*
X112503800Y-118254629D01*
X112503800Y-118092571D01*
X112472184Y-117933627D01*
X112410168Y-117783905D01*
X112320133Y-117649159D01*
X112205541Y-117534567D01*
X112070795Y-117444532D01*
X111921073Y-117382516D01*
X111762129Y-117350900D01*
X111600071Y-117350900D01*
X111441127Y-117382516D01*
X111291405Y-117444532D01*
X111156659Y-117534567D01*
X111042067Y-117649159D01*
X111039567Y-117652900D01*
X105150387Y-117652900D01*
X104854388Y-117356902D01*
X104838078Y-117337028D01*
X104758791Y-117271959D01*
X104668333Y-117223609D01*
X104570181Y-117193835D01*
X104493681Y-117186300D01*
X104468106Y-117183781D01*
X104442531Y-117186300D01*
X100743274Y-117186300D01*
X100717699Y-117183781D01*
X100615624Y-117193835D01*
X100585850Y-117202867D01*
X100517473Y-117223609D01*
X100427015Y-117271959D01*
X100347728Y-117337028D01*
X100331422Y-117356897D01*
X99840610Y-117847709D01*
X99832668Y-117838032D01*
X99650172Y-117688262D01*
X99441964Y-117576973D01*
X99216046Y-117508441D01*
X98981100Y-117485301D01*
X98746153Y-117508441D01*
X98520235Y-117576973D01*
X98312027Y-117688262D01*
X98129532Y-117838032D01*
X97979762Y-118020528D01*
X97868473Y-118228736D01*
X97799941Y-118454654D01*
X97782600Y-118630722D01*
X97782600Y-120256479D01*
X97799941Y-120432547D01*
X97868474Y-120658465D01*
X97979763Y-120866673D01*
X98129533Y-121049168D01*
X98312028Y-121198938D01*
X98520236Y-121310227D01*
X98746154Y-121378759D01*
X98981100Y-121401899D01*
X99216047Y-121378759D01*
X99441965Y-121310227D01*
X99650173Y-121198938D01*
X99832668Y-121049168D01*
X99982438Y-120866673D01*
X100093727Y-120658465D01*
X100162259Y-120432547D01*
X100179600Y-120256479D01*
X100179600Y-118981480D01*
X100322600Y-118838481D01*
X100322600Y-120256479D01*
X100339941Y-120432547D01*
X100408474Y-120658465D01*
X100519763Y-120866673D01*
X100669533Y-121049168D01*
X100852028Y-121198938D01*
X101060236Y-121310227D01*
X101286154Y-121378759D01*
X101521100Y-121401899D01*
X101756047Y-121378759D01*
X101981965Y-121310227D01*
X102190173Y-121198938D01*
X102323157Y-121089801D01*
X102891096Y-121657740D01*
X102909786Y-121680514D01*
X102932560Y-121699204D01*
X102932561Y-121699205D01*
X103000675Y-121755105D01*
X103053561Y-121783373D01*
X103104371Y-121810532D01*
X103216887Y-121844663D01*
X103304578Y-121853300D01*
X103304588Y-121853300D01*
X103333899Y-121856187D01*
X103363211Y-121853300D01*
X104470364Y-121853300D01*
X104499675Y-121856187D01*
X104528986Y-121853300D01*
X104528997Y-121853300D01*
X104616688Y-121844663D01*
X104729204Y-121810532D01*
X104832899Y-121755105D01*
X104923789Y-121680514D01*
X104942483Y-121657735D01*
X105289719Y-121310500D01*
X107330115Y-121310500D01*
X107371079Y-121387138D01*
X107521848Y-121570852D01*
X107705562Y-121721621D01*
X107915159Y-121833653D01*
X108142585Y-121902642D01*
X108319837Y-121920100D01*
X109962363Y-121920100D01*
X110139615Y-121902642D01*
X110367041Y-121833653D01*
X110576638Y-121721621D01*
X110760352Y-121570852D01*
X110911121Y-121387138D01*
X110952085Y-121310500D01*
X122733857Y-121310500D01*
X124204450Y-122781094D01*
X124204450Y-124183600D01*
X124213032Y-124270737D01*
X124238449Y-124354526D01*
X124279724Y-124431745D01*
X124335271Y-124499429D01*
X124402955Y-124554976D01*
X124480174Y-124596251D01*
X124563963Y-124621668D01*
X124651100Y-124630250D01*
X126651100Y-124630250D01*
X126738237Y-124621668D01*
X126822026Y-124596251D01*
X126899245Y-124554976D01*
X126922905Y-124535558D01*
X170172600Y-124535558D01*
X170172600Y-124771642D01*
X170218658Y-125003190D01*
X170309003Y-125221303D01*
X170440164Y-125417599D01*
X170607101Y-125584536D01*
X170803397Y-125715697D01*
X171021510Y-125806042D01*
X171253058Y-125852100D01*
X171489142Y-125852100D01*
X171720690Y-125806042D01*
X171938803Y-125715697D01*
X172135099Y-125584536D01*
X172302036Y-125417599D01*
X172433197Y-125221303D01*
X172523542Y-125003190D01*
X172569600Y-124771642D01*
X172569600Y-124535558D01*
X172712600Y-124535558D01*
X172712600Y-124771642D01*
X172758658Y-125003190D01*
X172849003Y-125221303D01*
X172980164Y-125417599D01*
X173147101Y-125584536D01*
X173343397Y-125715697D01*
X173561510Y-125806042D01*
X173793058Y-125852100D01*
X174029142Y-125852100D01*
X174260690Y-125806042D01*
X174478803Y-125715697D01*
X174675099Y-125584536D01*
X174842036Y-125417599D01*
X174973197Y-125221303D01*
X175063542Y-125003190D01*
X175109600Y-124771642D01*
X175109600Y-124535558D01*
X175063542Y-124304010D01*
X174973197Y-124085897D01*
X174842036Y-123889601D01*
X174675099Y-123722664D01*
X174478803Y-123591503D01*
X174260690Y-123501158D01*
X174029142Y-123455100D01*
X173793058Y-123455100D01*
X173561510Y-123501158D01*
X173343397Y-123591503D01*
X173147101Y-123722664D01*
X172980164Y-123889601D01*
X172849003Y-124085897D01*
X172758658Y-124304010D01*
X172712600Y-124535558D01*
X172569600Y-124535558D01*
X172523542Y-124304010D01*
X172433197Y-124085897D01*
X172302036Y-123889601D01*
X172135099Y-123722664D01*
X171938803Y-123591503D01*
X171720690Y-123501158D01*
X171489142Y-123455100D01*
X171253058Y-123455100D01*
X171021510Y-123501158D01*
X170803397Y-123591503D01*
X170607101Y-123722664D01*
X170440164Y-123889601D01*
X170309003Y-124085897D01*
X170218658Y-124304010D01*
X170172600Y-124535558D01*
X126922905Y-124535558D01*
X126966929Y-124499429D01*
X127022476Y-124431745D01*
X127063751Y-124354526D01*
X127089168Y-124270737D01*
X127097750Y-124183600D01*
X127097750Y-123850500D01*
X127624526Y-123850500D01*
X127666659Y-123892633D01*
X127801405Y-123982668D01*
X127951127Y-124044684D01*
X128110071Y-124076300D01*
X128272129Y-124076300D01*
X128431073Y-124044684D01*
X128580795Y-123982668D01*
X128715541Y-123892633D01*
X128830133Y-123778041D01*
X128920168Y-123643295D01*
X128982184Y-123493573D01*
X129013800Y-123334629D01*
X129013800Y-123172571D01*
X128982184Y-123013627D01*
X128920168Y-122863905D01*
X128830133Y-122729159D01*
X128715541Y-122614567D01*
X128580795Y-122524532D01*
X128431073Y-122462516D01*
X128272129Y-122430900D01*
X128110071Y-122430900D01*
X127951127Y-122462516D01*
X127801405Y-122524532D01*
X127666659Y-122614567D01*
X127624526Y-122656700D01*
X127097750Y-122656700D01*
X127097750Y-122583600D01*
X127089168Y-122496463D01*
X127063751Y-122412674D01*
X127022476Y-122335455D01*
X126966929Y-122267771D01*
X126899245Y-122212224D01*
X126822026Y-122170949D01*
X126738237Y-122145532D01*
X126651100Y-122136950D01*
X125248594Y-122136950D01*
X124941894Y-121830250D01*
X126651100Y-121830250D01*
X126738237Y-121821668D01*
X126822026Y-121796251D01*
X126899245Y-121754976D01*
X126966929Y-121699429D01*
X127022476Y-121631745D01*
X127063751Y-121554526D01*
X127089168Y-121470737D01*
X127097750Y-121383600D01*
X127097750Y-121234300D01*
X127549567Y-121234300D01*
X127552067Y-121238041D01*
X127666659Y-121352633D01*
X127801405Y-121442668D01*
X127951127Y-121504684D01*
X128110071Y-121536300D01*
X128272129Y-121536300D01*
X128431073Y-121504684D01*
X128580795Y-121442668D01*
X128715541Y-121352633D01*
X128830133Y-121238041D01*
X128920168Y-121103295D01*
X128982184Y-120953573D01*
X129013800Y-120794629D01*
X129013800Y-120632571D01*
X128982184Y-120473627D01*
X128920168Y-120323905D01*
X128830133Y-120189159D01*
X128715541Y-120074567D01*
X128580795Y-119984532D01*
X128431073Y-119922516D01*
X128272129Y-119890900D01*
X128110071Y-119890900D01*
X127951127Y-119922516D01*
X127801405Y-119984532D01*
X127666659Y-120074567D01*
X127552067Y-120189159D01*
X127549567Y-120192900D01*
X127097750Y-120192900D01*
X127097750Y-120191051D01*
X127231263Y-120164494D01*
X127380985Y-120102478D01*
X127515731Y-120012443D01*
X127630323Y-119897851D01*
X127720358Y-119763105D01*
X127782374Y-119613383D01*
X127813990Y-119454439D01*
X127813990Y-119292381D01*
X127782374Y-119133437D01*
X127720358Y-118983715D01*
X127630323Y-118848969D01*
X127588190Y-118806836D01*
X127588190Y-113654164D01*
X127666659Y-113732633D01*
X127801405Y-113822668D01*
X127951127Y-113884684D01*
X128110071Y-113916300D01*
X128272129Y-113916300D01*
X128431073Y-113884684D01*
X128580795Y-113822668D01*
X128715541Y-113732633D01*
X128830133Y-113618041D01*
X128920168Y-113483295D01*
X128982184Y-113333573D01*
X129013800Y-113174629D01*
X129013800Y-113012571D01*
X128982184Y-112853627D01*
X128920168Y-112703905D01*
X128830133Y-112569159D01*
X128715541Y-112454567D01*
X128711800Y-112452067D01*
X128711800Y-107932571D01*
X132448400Y-107932571D01*
X132448400Y-108094629D01*
X132480016Y-108253573D01*
X132542032Y-108403295D01*
X132632067Y-108538041D01*
X132742626Y-108648600D01*
X132632067Y-108759159D01*
X132542032Y-108893905D01*
X132480016Y-109043627D01*
X132448400Y-109202571D01*
X132448400Y-109364629D01*
X132480016Y-109523573D01*
X132542032Y-109673295D01*
X132632067Y-109808041D01*
X132742626Y-109918600D01*
X132632067Y-110029159D01*
X132542032Y-110163905D01*
X132480016Y-110313627D01*
X132448400Y-110472571D01*
X132448400Y-110634629D01*
X132480016Y-110793573D01*
X132542032Y-110943295D01*
X132632067Y-111078041D01*
X132742626Y-111188600D01*
X132632067Y-111299159D01*
X132542032Y-111433905D01*
X132480016Y-111583627D01*
X132448400Y-111742571D01*
X132448400Y-111904629D01*
X132480016Y-112063573D01*
X132542032Y-112213295D01*
X132632067Y-112348041D01*
X132746659Y-112462633D01*
X132881405Y-112552668D01*
X133031127Y-112614684D01*
X133190071Y-112646300D01*
X133352129Y-112646300D01*
X133511073Y-112614684D01*
X133660795Y-112552668D01*
X133795541Y-112462633D01*
X133910133Y-112348041D01*
X133912633Y-112344300D01*
X137476181Y-112344300D01*
X137501756Y-112346819D01*
X137603831Y-112336765D01*
X137701983Y-112306991D01*
X137792441Y-112258641D01*
X137871728Y-112193572D01*
X137888039Y-112173697D01*
X137946036Y-112115700D01*
X142022501Y-112115700D01*
X141911730Y-112281480D01*
X141782487Y-112593499D01*
X141716600Y-112924736D01*
X141716600Y-113262464D01*
X141782487Y-113593701D01*
X141911730Y-113905720D01*
X142099361Y-114186530D01*
X142338170Y-114425339D01*
X142618980Y-114612970D01*
X142930999Y-114742213D01*
X143262236Y-114808100D01*
X143599964Y-114808100D01*
X143931201Y-114742213D01*
X144243220Y-114612970D01*
X144524030Y-114425339D01*
X144762839Y-114186530D01*
X144950470Y-113905720D01*
X145079713Y-113593701D01*
X145145600Y-113262464D01*
X145145600Y-112924736D01*
X145079713Y-112593499D01*
X144950470Y-112281480D01*
X144839699Y-112115700D01*
X145526820Y-112115700D01*
X149260400Y-115849281D01*
X149260401Y-118148015D01*
X149257881Y-118173600D01*
X149267935Y-118275675D01*
X149297710Y-118373827D01*
X149346060Y-118464285D01*
X149411129Y-118543572D01*
X149430998Y-118559878D01*
X152769278Y-121898159D01*
X152768400Y-121902571D01*
X152768400Y-122064629D01*
X152800016Y-122223573D01*
X152862032Y-122373295D01*
X152952067Y-122508041D01*
X153066659Y-122622633D01*
X153201405Y-122712668D01*
X153351127Y-122774684D01*
X153510071Y-122806300D01*
X153672129Y-122806300D01*
X153831073Y-122774684D01*
X153980795Y-122712668D01*
X154115541Y-122622633D01*
X154230133Y-122508041D01*
X154320168Y-122373295D01*
X154382184Y-122223573D01*
X154413800Y-122064629D01*
X154413800Y-121902571D01*
X154382184Y-121743627D01*
X154320168Y-121593905D01*
X154230133Y-121459159D01*
X154115541Y-121344567D01*
X153980795Y-121254532D01*
X153831073Y-121192516D01*
X153672129Y-121160900D01*
X153510071Y-121160900D01*
X153505659Y-121161778D01*
X150301800Y-117957920D01*
X150301800Y-115659175D01*
X150304319Y-115633600D01*
X150294265Y-115531524D01*
X150264491Y-115433374D01*
X150264491Y-115433373D01*
X150216141Y-115342915D01*
X150151072Y-115263628D01*
X150131203Y-115247322D01*
X149259439Y-114375558D01*
X170172600Y-114375558D01*
X170172600Y-114611642D01*
X170218658Y-114843190D01*
X170309003Y-115061303D01*
X170440164Y-115257599D01*
X170607101Y-115424536D01*
X170803397Y-115555697D01*
X171021510Y-115646042D01*
X171253058Y-115692100D01*
X171489142Y-115692100D01*
X171720690Y-115646042D01*
X171938803Y-115555697D01*
X172135099Y-115424536D01*
X172302036Y-115257599D01*
X172433197Y-115061303D01*
X172523542Y-114843190D01*
X172569600Y-114611642D01*
X172569600Y-114375558D01*
X172712600Y-114375558D01*
X172712600Y-114611642D01*
X172758658Y-114843190D01*
X172849003Y-115061303D01*
X172980164Y-115257599D01*
X173147101Y-115424536D01*
X173343397Y-115555697D01*
X173561510Y-115646042D01*
X173793058Y-115692100D01*
X174029142Y-115692100D01*
X174260690Y-115646042D01*
X174478803Y-115555697D01*
X174675099Y-115424536D01*
X174842036Y-115257599D01*
X174973197Y-115061303D01*
X175063542Y-114843190D01*
X175109600Y-114611642D01*
X175109600Y-114375558D01*
X175063542Y-114144010D01*
X174973197Y-113925897D01*
X174842036Y-113729601D01*
X174675099Y-113562664D01*
X174478803Y-113431503D01*
X174260690Y-113341158D01*
X174029142Y-113295100D01*
X173793058Y-113295100D01*
X173561510Y-113341158D01*
X173343397Y-113431503D01*
X173147101Y-113562664D01*
X172980164Y-113729601D01*
X172849003Y-113925897D01*
X172758658Y-114144010D01*
X172712600Y-114375558D01*
X172569600Y-114375558D01*
X172523542Y-114144010D01*
X172433197Y-113925897D01*
X172302036Y-113729601D01*
X172135099Y-113562664D01*
X171938803Y-113431503D01*
X171720690Y-113341158D01*
X171489142Y-113295100D01*
X171253058Y-113295100D01*
X171021510Y-113341158D01*
X170803397Y-113431503D01*
X170607101Y-113562664D01*
X170440164Y-113729601D01*
X170309003Y-113925897D01*
X170218658Y-114144010D01*
X170172600Y-114375558D01*
X149259439Y-114375558D01*
X146128783Y-111244903D01*
X146112472Y-111225028D01*
X146033185Y-111159959D01*
X145942727Y-111111609D01*
X145844575Y-111081835D01*
X145768075Y-111074300D01*
X152536479Y-111074300D01*
X152875672Y-111413492D01*
X152862032Y-111433905D01*
X152800016Y-111583627D01*
X152768400Y-111742571D01*
X152768400Y-111904629D01*
X152800016Y-112063573D01*
X152862032Y-112213295D01*
X152952067Y-112348041D01*
X153066659Y-112462633D01*
X153201405Y-112552668D01*
X153351127Y-112614684D01*
X153510071Y-112646300D01*
X153672129Y-112646300D01*
X153831073Y-112614684D01*
X153980795Y-112552668D01*
X154115541Y-112462633D01*
X154230133Y-112348041D01*
X154320168Y-112213295D01*
X154382184Y-112063573D01*
X154413800Y-111904629D01*
X154413800Y-111742571D01*
X154382184Y-111583627D01*
X154320168Y-111433905D01*
X154230133Y-111299159D01*
X154115541Y-111184567D01*
X154045246Y-111137597D01*
X154026141Y-111101853D01*
X153961072Y-111022566D01*
X153941202Y-111006259D01*
X153138441Y-110203502D01*
X153122131Y-110183628D01*
X153042844Y-110118559D01*
X152952386Y-110070209D01*
X152854234Y-110040435D01*
X152777734Y-110032900D01*
X152777733Y-110032900D01*
X152752159Y-110030381D01*
X152726584Y-110032900D01*
X133912633Y-110032900D01*
X133910133Y-110029159D01*
X133799574Y-109918600D01*
X133910133Y-109808041D01*
X133912633Y-109804300D01*
X149755525Y-109804300D01*
X149781100Y-109806819D01*
X149883175Y-109796765D01*
X149981327Y-109766991D01*
X150071785Y-109718641D01*
X150151072Y-109653572D01*
X150167383Y-109633697D01*
X152671203Y-107129878D01*
X152691072Y-107113572D01*
X152756141Y-107034285D01*
X152804491Y-106943827D01*
X152834265Y-106845675D01*
X152841800Y-106769175D01*
X152841800Y-106769174D01*
X152844319Y-106743601D01*
X152841800Y-106718026D01*
X152841800Y-104215558D01*
X170172600Y-104215558D01*
X170172600Y-104451642D01*
X170218658Y-104683190D01*
X170309003Y-104901303D01*
X170440164Y-105097599D01*
X170607101Y-105264536D01*
X170803397Y-105395697D01*
X171021510Y-105486042D01*
X171253058Y-105532100D01*
X171489142Y-105532100D01*
X171720690Y-105486042D01*
X171938803Y-105395697D01*
X172135099Y-105264536D01*
X172302036Y-105097599D01*
X172433197Y-104901303D01*
X172523542Y-104683190D01*
X172569600Y-104451642D01*
X172569600Y-104215558D01*
X172712600Y-104215558D01*
X172712600Y-104451642D01*
X172758658Y-104683190D01*
X172849003Y-104901303D01*
X172980164Y-105097599D01*
X173147101Y-105264536D01*
X173343397Y-105395697D01*
X173561510Y-105486042D01*
X173793058Y-105532100D01*
X174029142Y-105532100D01*
X174260690Y-105486042D01*
X174478803Y-105395697D01*
X174675099Y-105264536D01*
X174842036Y-105097599D01*
X174973197Y-104901303D01*
X175063542Y-104683190D01*
X175109600Y-104451642D01*
X175109600Y-104215558D01*
X175063542Y-103984010D01*
X174973197Y-103765897D01*
X174842036Y-103569601D01*
X174675099Y-103402664D01*
X174478803Y-103271503D01*
X174260690Y-103181158D01*
X174029142Y-103135100D01*
X173793058Y-103135100D01*
X173561510Y-103181158D01*
X173343397Y-103271503D01*
X173147101Y-103402664D01*
X172980164Y-103569601D01*
X172849003Y-103765897D01*
X172758658Y-103984010D01*
X172712600Y-104215558D01*
X172569600Y-104215558D01*
X172523542Y-103984010D01*
X172433197Y-103765897D01*
X172302036Y-103569601D01*
X172135099Y-103402664D01*
X171938803Y-103271503D01*
X171720690Y-103181158D01*
X171489142Y-103135100D01*
X171253058Y-103135100D01*
X171021510Y-103181158D01*
X170803397Y-103271503D01*
X170607101Y-103402664D01*
X170440164Y-103569601D01*
X170309003Y-103765897D01*
X170218658Y-103984010D01*
X170172600Y-104215558D01*
X152841800Y-104215558D01*
X152841800Y-103149280D01*
X153505658Y-102485422D01*
X153510071Y-102486300D01*
X153672129Y-102486300D01*
X153831073Y-102454684D01*
X153980795Y-102392668D01*
X154115541Y-102302633D01*
X154230133Y-102188041D01*
X154320168Y-102053295D01*
X154382184Y-101903573D01*
X154413800Y-101744629D01*
X154413800Y-101582571D01*
X154382184Y-101423627D01*
X154320168Y-101273905D01*
X154230133Y-101139159D01*
X154115541Y-101024567D01*
X153980795Y-100934532D01*
X153831073Y-100872516D01*
X153672129Y-100840900D01*
X153510071Y-100840900D01*
X153351127Y-100872516D01*
X153201405Y-100934532D01*
X153066659Y-101024567D01*
X152952067Y-101139159D01*
X152862032Y-101273905D01*
X152841800Y-101322750D01*
X152841800Y-94055558D01*
X170172600Y-94055558D01*
X170172600Y-94291642D01*
X170218658Y-94523190D01*
X170309003Y-94741303D01*
X170440164Y-94937599D01*
X170607101Y-95104536D01*
X170803397Y-95235697D01*
X171021510Y-95326042D01*
X171253058Y-95372100D01*
X171489142Y-95372100D01*
X171720690Y-95326042D01*
X171938803Y-95235697D01*
X172135099Y-95104536D01*
X172302036Y-94937599D01*
X172433197Y-94741303D01*
X172523542Y-94523190D01*
X172569600Y-94291642D01*
X172569600Y-94055558D01*
X172712600Y-94055558D01*
X172712600Y-94291642D01*
X172758658Y-94523190D01*
X172849003Y-94741303D01*
X172980164Y-94937599D01*
X173147101Y-95104536D01*
X173343397Y-95235697D01*
X173561510Y-95326042D01*
X173793058Y-95372100D01*
X174029142Y-95372100D01*
X174260690Y-95326042D01*
X174478803Y-95235697D01*
X174675099Y-95104536D01*
X174842036Y-94937599D01*
X174973197Y-94741303D01*
X175063542Y-94523190D01*
X175109600Y-94291642D01*
X175109600Y-94055558D01*
X175063542Y-93824010D01*
X174973197Y-93605897D01*
X174842036Y-93409601D01*
X174675099Y-93242664D01*
X174478803Y-93111503D01*
X174260690Y-93021158D01*
X174029142Y-92975100D01*
X173793058Y-92975100D01*
X173561510Y-93021158D01*
X173343397Y-93111503D01*
X173147101Y-93242664D01*
X172980164Y-93409601D01*
X172849003Y-93605897D01*
X172758658Y-93824010D01*
X172712600Y-94055558D01*
X172569600Y-94055558D01*
X172523542Y-93824010D01*
X172433197Y-93605897D01*
X172302036Y-93409601D01*
X172135099Y-93242664D01*
X171938803Y-93111503D01*
X171720690Y-93021158D01*
X171489142Y-92975100D01*
X171253058Y-92975100D01*
X171021510Y-93021158D01*
X170803397Y-93111503D01*
X170607101Y-93242664D01*
X170440164Y-93409601D01*
X170309003Y-93605897D01*
X170218658Y-93824010D01*
X170172600Y-94055558D01*
X152841800Y-94055558D01*
X152841800Y-92989280D01*
X153505658Y-92325422D01*
X153510071Y-92326300D01*
X153672129Y-92326300D01*
X153831073Y-92294684D01*
X153980795Y-92232668D01*
X154115541Y-92142633D01*
X154230133Y-92028041D01*
X154320168Y-91893295D01*
X154382184Y-91743573D01*
X154413800Y-91584629D01*
X154413800Y-91422571D01*
X154382184Y-91263627D01*
X154320168Y-91113905D01*
X154230133Y-90979159D01*
X154115541Y-90864567D01*
X153980795Y-90774532D01*
X153831073Y-90712516D01*
X153672129Y-90680900D01*
X153510071Y-90680900D01*
X153351127Y-90712516D01*
X153201405Y-90774532D01*
X153066659Y-90864567D01*
X152952067Y-90979159D01*
X152862032Y-91113905D01*
X152800016Y-91263627D01*
X152768400Y-91422571D01*
X152768400Y-91584629D01*
X152769278Y-91589042D01*
X151971003Y-92387317D01*
X151951128Y-92403628D01*
X151886059Y-92482915D01*
X151837709Y-92573374D01*
X151827653Y-92606525D01*
X151807935Y-92671525D01*
X151797881Y-92773600D01*
X151800400Y-92799175D01*
X151800401Y-101447918D01*
X145755420Y-107492900D01*
X133912633Y-107492900D01*
X133910133Y-107489159D01*
X133795541Y-107374567D01*
X133660795Y-107284532D01*
X133511073Y-107222516D01*
X133352129Y-107190900D01*
X133190071Y-107190900D01*
X133031127Y-107222516D01*
X132881405Y-107284532D01*
X132746659Y-107374567D01*
X132632067Y-107489159D01*
X132542032Y-107623905D01*
X132480016Y-107773627D01*
X132448400Y-107932571D01*
X128711800Y-107932571D01*
X128711800Y-104359174D01*
X128714319Y-104333599D01*
X128704265Y-104231524D01*
X128681591Y-104156779D01*
X128674491Y-104133373D01*
X128626141Y-104042915D01*
X128561072Y-103963628D01*
X128541203Y-103947322D01*
X128337231Y-103743350D01*
X128431073Y-103724684D01*
X128580795Y-103662668D01*
X128715541Y-103572633D01*
X128830133Y-103458041D01*
X128920168Y-103323295D01*
X128982184Y-103173573D01*
X129013800Y-103014629D01*
X129013800Y-102852571D01*
X128982184Y-102693627D01*
X128920168Y-102543905D01*
X128830133Y-102409159D01*
X128715541Y-102294567D01*
X128711800Y-102292067D01*
X128711800Y-102069773D01*
X137705400Y-102069773D01*
X137705400Y-102297427D01*
X137749813Y-102520705D01*
X137836932Y-102731029D01*
X137963409Y-102920316D01*
X138124384Y-103081291D01*
X138313671Y-103207768D01*
X138523995Y-103294887D01*
X138747273Y-103339300D01*
X138974927Y-103339300D01*
X139198205Y-103294887D01*
X139408529Y-103207768D01*
X139597816Y-103081291D01*
X139758791Y-102920316D01*
X139885268Y-102731029D01*
X139972387Y-102520705D01*
X140016800Y-102297427D01*
X140016800Y-102069773D01*
X142785400Y-102069773D01*
X142785400Y-102297427D01*
X142829813Y-102520705D01*
X142916932Y-102731029D01*
X143043409Y-102920316D01*
X143204384Y-103081291D01*
X143393671Y-103207768D01*
X143603995Y-103294887D01*
X143827273Y-103339300D01*
X144054927Y-103339300D01*
X144278205Y-103294887D01*
X144488529Y-103207768D01*
X144677816Y-103081291D01*
X144838791Y-102920316D01*
X144965268Y-102731029D01*
X145052387Y-102520705D01*
X145096800Y-102297427D01*
X145096800Y-102069773D01*
X145052387Y-101846495D01*
X144965268Y-101636171D01*
X144838791Y-101446884D01*
X144677816Y-101285909D01*
X144488529Y-101159432D01*
X144278205Y-101072313D01*
X144054927Y-101027900D01*
X143827273Y-101027900D01*
X143603995Y-101072313D01*
X143393671Y-101159432D01*
X143204384Y-101285909D01*
X143043409Y-101446884D01*
X142916932Y-101636171D01*
X142829813Y-101846495D01*
X142785400Y-102069773D01*
X140016800Y-102069773D01*
X139972387Y-101846495D01*
X139885268Y-101636171D01*
X139758791Y-101446884D01*
X139597816Y-101285909D01*
X139408529Y-101159432D01*
X139198205Y-101072313D01*
X138974927Y-101027900D01*
X138747273Y-101027900D01*
X138523995Y-101072313D01*
X138313671Y-101159432D01*
X138124384Y-101285909D01*
X137963409Y-101446884D01*
X137836932Y-101636171D01*
X137749813Y-101846495D01*
X137705400Y-102069773D01*
X128711800Y-102069773D01*
X128711800Y-98495133D01*
X128715541Y-98492633D01*
X128830133Y-98378041D01*
X128920168Y-98243295D01*
X128982184Y-98093573D01*
X129013800Y-97934629D01*
X129013800Y-97772571D01*
X128982184Y-97613627D01*
X128920168Y-97463905D01*
X128830133Y-97329159D01*
X128715541Y-97214567D01*
X128580795Y-97124532D01*
X128431073Y-97062516D01*
X128272129Y-97030900D01*
X128110071Y-97030900D01*
X127951127Y-97062516D01*
X127801405Y-97124532D01*
X127666659Y-97214567D01*
X127552067Y-97329159D01*
X127462032Y-97463905D01*
X127400016Y-97613627D01*
X127368400Y-97772571D01*
X127368400Y-97934629D01*
X127400016Y-98093573D01*
X127462032Y-98243295D01*
X127552067Y-98378041D01*
X127666659Y-98492633D01*
X127670401Y-98495133D01*
X127670400Y-102292067D01*
X127666659Y-102294567D01*
X127552067Y-102409159D01*
X127462032Y-102543905D01*
X127400016Y-102693627D01*
X127381350Y-102787469D01*
X116937750Y-92343870D01*
X116937750Y-90833600D01*
X116937445Y-90830500D01*
X117464526Y-90830500D01*
X117506659Y-90872633D01*
X117641405Y-90962668D01*
X117791127Y-91024684D01*
X117950071Y-91056300D01*
X118112129Y-91056300D01*
X118271073Y-91024684D01*
X118420795Y-90962668D01*
X118555541Y-90872633D01*
X118670133Y-90758041D01*
X118760168Y-90623295D01*
X118822184Y-90473573D01*
X118853800Y-90314629D01*
X118853800Y-90152571D01*
X118822184Y-89993627D01*
X118760168Y-89843905D01*
X118670133Y-89709159D01*
X118555541Y-89594567D01*
X118420795Y-89504532D01*
X118271073Y-89442516D01*
X118203961Y-89429167D01*
X118278113Y-89421863D01*
X118390629Y-89387732D01*
X118494324Y-89332305D01*
X118585214Y-89257714D01*
X118603909Y-89234935D01*
X120216744Y-87622100D01*
X120925456Y-87622100D01*
X122538300Y-89234945D01*
X122556986Y-89257714D01*
X122579755Y-89276400D01*
X122579761Y-89276406D01*
X122625214Y-89313707D01*
X122647876Y-89332305D01*
X122751571Y-89387732D01*
X122864087Y-89421863D01*
X122934450Y-89428793D01*
X122934450Y-89429920D01*
X122871127Y-89442516D01*
X122721405Y-89504532D01*
X122586659Y-89594567D01*
X122472067Y-89709159D01*
X122382032Y-89843905D01*
X122320016Y-89993627D01*
X122288400Y-90152571D01*
X122288400Y-90314629D01*
X122320016Y-90473573D01*
X122382032Y-90623295D01*
X122472067Y-90758041D01*
X122586659Y-90872633D01*
X122721405Y-90962668D01*
X122871127Y-91024684D01*
X122934450Y-91037280D01*
X122934450Y-92376883D01*
X122457348Y-91899782D01*
X122506259Y-91738547D01*
X122529399Y-91503600D01*
X122506259Y-91268653D01*
X122437727Y-91042735D01*
X122326438Y-90834527D01*
X122176668Y-90652032D01*
X121994173Y-90502262D01*
X121785965Y-90390973D01*
X121560047Y-90322441D01*
X121383979Y-90305100D01*
X119758221Y-90305100D01*
X119582153Y-90322441D01*
X119356235Y-90390973D01*
X119148027Y-90502262D01*
X118965532Y-90652032D01*
X118815762Y-90834527D01*
X118704473Y-91042735D01*
X118635941Y-91268653D01*
X118612801Y-91503600D01*
X118635941Y-91738547D01*
X118704473Y-91964465D01*
X118815762Y-92172673D01*
X118965532Y-92355168D01*
X119148027Y-92504938D01*
X119356235Y-92616227D01*
X119582153Y-92684759D01*
X119758221Y-92702100D01*
X120852958Y-92702100D01*
X122655182Y-94504325D01*
X122681824Y-94536788D01*
X122714287Y-94563430D01*
X122714291Y-94563434D01*
X122757090Y-94598558D01*
X122811390Y-94643121D01*
X122959211Y-94722133D01*
X123119606Y-94770788D01*
X123244612Y-94783100D01*
X123244618Y-94783100D01*
X123286411Y-94787216D01*
X123328204Y-94783100D01*
X131177782Y-94783100D01*
X131219575Y-94787216D01*
X131261368Y-94783100D01*
X131261375Y-94783100D01*
X131386381Y-94770788D01*
X131546776Y-94722133D01*
X131694597Y-94643121D01*
X131824163Y-94536788D01*
X131850809Y-94504320D01*
X138293230Y-88061900D01*
X140056046Y-88061900D01*
X141031914Y-89037768D01*
X140972058Y-89235085D01*
X140954600Y-89412337D01*
X140954600Y-91054862D01*
X140972058Y-91232114D01*
X141041047Y-91459540D01*
X141153079Y-91669137D01*
X141303848Y-91852852D01*
X141487562Y-92003621D01*
X141697159Y-92115653D01*
X141772806Y-92138600D01*
X141697160Y-92161547D01*
X141487563Y-92273579D01*
X141303849Y-92424348D01*
X141153080Y-92608062D01*
X141041048Y-92817659D01*
X140972058Y-93045085D01*
X140954600Y-93222337D01*
X140954600Y-94864862D01*
X140972058Y-95042114D01*
X141041047Y-95269540D01*
X141153079Y-95479137D01*
X141303848Y-95662852D01*
X141487562Y-95813621D01*
X141697159Y-95925653D01*
X141924585Y-95994642D01*
X142161100Y-96017937D01*
X142397614Y-95994642D01*
X142625040Y-95925653D01*
X142834637Y-95813621D01*
X143018352Y-95662852D01*
X143169121Y-95479138D01*
X143281153Y-95269541D01*
X143350142Y-95042115D01*
X143367600Y-94864863D01*
X143367600Y-93222337D01*
X143350142Y-93045085D01*
X143281153Y-92817659D01*
X143169121Y-92608062D01*
X143018352Y-92424348D01*
X142834638Y-92273579D01*
X142625041Y-92161547D01*
X142549394Y-92138600D01*
X142625040Y-92115653D01*
X142834637Y-92003621D01*
X143018352Y-91852852D01*
X143169121Y-91669138D01*
X143281153Y-91459541D01*
X143350142Y-91232115D01*
X143367600Y-91054863D01*
X143367600Y-89412337D01*
X143350142Y-89235085D01*
X143281153Y-89007659D01*
X143169121Y-88798062D01*
X143018352Y-88614348D01*
X142877430Y-88498697D01*
X142872021Y-88488578D01*
X142765688Y-88359012D01*
X142733221Y-88332367D01*
X141039739Y-86638885D01*
X141039734Y-86638879D01*
X141039730Y-86638875D01*
X141013088Y-86606412D01*
X140980625Y-86579770D01*
X138284455Y-83883600D01*
X140202801Y-83883600D01*
X140225941Y-84118547D01*
X140294473Y-84344465D01*
X140405762Y-84552673D01*
X140555532Y-84735168D01*
X140738027Y-84884938D01*
X140946235Y-84996227D01*
X141172153Y-85064759D01*
X141348221Y-85082100D01*
X142973979Y-85082100D01*
X143150047Y-85064759D01*
X143375965Y-84996227D01*
X143584173Y-84884938D01*
X143766668Y-84735168D01*
X143916438Y-84552673D01*
X144027727Y-84344465D01*
X144096259Y-84118547D01*
X144119399Y-83883600D01*
X147822801Y-83883600D01*
X147845941Y-84118547D01*
X147914473Y-84344465D01*
X148025762Y-84552673D01*
X148175532Y-84735168D01*
X148358027Y-84884938D01*
X148566235Y-84996227D01*
X148792153Y-85064759D01*
X148968221Y-85082100D01*
X150593979Y-85082100D01*
X150770047Y-85064759D01*
X150995965Y-84996227D01*
X151204173Y-84884938D01*
X151386668Y-84735168D01*
X151536438Y-84552673D01*
X151647727Y-84344465D01*
X151716259Y-84118547D01*
X151739399Y-83883600D01*
X155442801Y-83883600D01*
X155465941Y-84118547D01*
X155534473Y-84344465D01*
X155645762Y-84552673D01*
X155795532Y-84735168D01*
X155978027Y-84884938D01*
X156186235Y-84996227D01*
X156412153Y-85064759D01*
X156588221Y-85082100D01*
X158213979Y-85082100D01*
X158390047Y-85064759D01*
X158615965Y-84996227D01*
X158824173Y-84884938D01*
X159006668Y-84735168D01*
X159156438Y-84552673D01*
X159267727Y-84344465D01*
X159336259Y-84118547D01*
X159359399Y-83883600D01*
X163062801Y-83883600D01*
X163085941Y-84118547D01*
X163154473Y-84344465D01*
X163265762Y-84552673D01*
X163415532Y-84735168D01*
X163598027Y-84884938D01*
X163806235Y-84996227D01*
X164032153Y-85064759D01*
X164208221Y-85082100D01*
X165833979Y-85082100D01*
X166010047Y-85064759D01*
X166235965Y-84996227D01*
X166444173Y-84884938D01*
X166626668Y-84735168D01*
X166776438Y-84552673D01*
X166887727Y-84344465D01*
X166956259Y-84118547D01*
X166979399Y-83883600D01*
X166956259Y-83648653D01*
X166887727Y-83422735D01*
X166776438Y-83214527D01*
X166626668Y-83032032D01*
X166444173Y-82882262D01*
X166235965Y-82770973D01*
X166010047Y-82702441D01*
X165833979Y-82685100D01*
X164208221Y-82685100D01*
X164032153Y-82702441D01*
X163806235Y-82770973D01*
X163598027Y-82882262D01*
X163415532Y-83032032D01*
X163265762Y-83214527D01*
X163154473Y-83422735D01*
X163085941Y-83648653D01*
X163062801Y-83883600D01*
X159359399Y-83883600D01*
X159336259Y-83648653D01*
X159267727Y-83422735D01*
X159156438Y-83214527D01*
X159006668Y-83032032D01*
X158824173Y-82882262D01*
X158615965Y-82770973D01*
X158390047Y-82702441D01*
X158213979Y-82685100D01*
X156588221Y-82685100D01*
X156412153Y-82702441D01*
X156186235Y-82770973D01*
X155978027Y-82882262D01*
X155795532Y-83032032D01*
X155645762Y-83214527D01*
X155534473Y-83422735D01*
X155465941Y-83648653D01*
X155442801Y-83883600D01*
X151739399Y-83883600D01*
X151716259Y-83648653D01*
X151647727Y-83422735D01*
X151536438Y-83214527D01*
X151386668Y-83032032D01*
X151204173Y-82882262D01*
X150995965Y-82770973D01*
X150770047Y-82702441D01*
X150593979Y-82685100D01*
X148968221Y-82685100D01*
X148792153Y-82702441D01*
X148566235Y-82770973D01*
X148358027Y-82882262D01*
X148175532Y-83032032D01*
X148025762Y-83214527D01*
X147914473Y-83422735D01*
X147845941Y-83648653D01*
X147822801Y-83883600D01*
X144119399Y-83883600D01*
X144096259Y-83648653D01*
X144027727Y-83422735D01*
X143916438Y-83214527D01*
X143766668Y-83032032D01*
X143584173Y-82882262D01*
X143375965Y-82770973D01*
X143150047Y-82702441D01*
X142973979Y-82685100D01*
X141348221Y-82685100D01*
X141172153Y-82702441D01*
X140946235Y-82770973D01*
X140738027Y-82882262D01*
X140555532Y-83032032D01*
X140405762Y-83214527D01*
X140294473Y-83422735D01*
X140225941Y-83648653D01*
X140202801Y-83883600D01*
X138284455Y-83883600D01*
X137712334Y-83311480D01*
X137685688Y-83279012D01*
X137556122Y-83172679D01*
X137408301Y-83093667D01*
X137247906Y-83045012D01*
X137122900Y-83032700D01*
X137122893Y-83032700D01*
X137081100Y-83028584D01*
X137039307Y-83032700D01*
X129797216Y-83032700D01*
X129796668Y-83032032D01*
X129614173Y-82882262D01*
X129405965Y-82770973D01*
X129180047Y-82702441D01*
X129003979Y-82685100D01*
X127378221Y-82685100D01*
X127202153Y-82702441D01*
X126976235Y-82770973D01*
X126768027Y-82882262D01*
X126585532Y-83032032D01*
X126435762Y-83214527D01*
X126324473Y-83422735D01*
X126255941Y-83648653D01*
X126232801Y-83883600D01*
X126255941Y-84118547D01*
X126324473Y-84344465D01*
X126435762Y-84552673D01*
X126585532Y-84735168D01*
X126768027Y-84884938D01*
X126976235Y-84996227D01*
X127202153Y-85064759D01*
X127378221Y-85082100D01*
X129003979Y-85082100D01*
X129180047Y-85064759D01*
X129405965Y-84996227D01*
X129614173Y-84884938D01*
X129796668Y-84735168D01*
X129797216Y-84734500D01*
X136728646Y-84734500D01*
X138354245Y-86360100D01*
X137982567Y-86360100D01*
X137940774Y-86355984D01*
X137898981Y-86360100D01*
X137898975Y-86360100D01*
X137773969Y-86372412D01*
X137613574Y-86421067D01*
X137465753Y-86500079D01*
X137416364Y-86540612D01*
X137368654Y-86579766D01*
X137368650Y-86579770D01*
X137336187Y-86606412D01*
X137309545Y-86638875D01*
X130867121Y-93081300D01*
X123638867Y-93081300D01*
X123437817Y-92880250D01*
X125381100Y-92880250D01*
X125468237Y-92871668D01*
X125552026Y-92846251D01*
X125629245Y-92804976D01*
X125696929Y-92749429D01*
X125752476Y-92681745D01*
X125793751Y-92604526D01*
X125819168Y-92520737D01*
X125827750Y-92433600D01*
X125827750Y-92154300D01*
X126425941Y-92154300D01*
X126435762Y-92172673D01*
X126585532Y-92355168D01*
X126768027Y-92504938D01*
X126976235Y-92616227D01*
X127202153Y-92684759D01*
X127378221Y-92702100D01*
X129003979Y-92702100D01*
X129180047Y-92684759D01*
X129405965Y-92616227D01*
X129614173Y-92504938D01*
X129796668Y-92355168D01*
X129946438Y-92172673D01*
X130057727Y-91964465D01*
X130126259Y-91738547D01*
X130144146Y-91556934D01*
X131915659Y-89785422D01*
X131920071Y-89786300D01*
X132082129Y-89786300D01*
X132241073Y-89754684D01*
X132390795Y-89692668D01*
X132525541Y-89602633D01*
X132640133Y-89488041D01*
X132730168Y-89353295D01*
X132792184Y-89203573D01*
X132823800Y-89044629D01*
X132823800Y-88882571D01*
X132792184Y-88723627D01*
X132730168Y-88573905D01*
X132640133Y-88439159D01*
X132525541Y-88324567D01*
X132390795Y-88234532D01*
X132241073Y-88172516D01*
X132082129Y-88140900D01*
X131920071Y-88140900D01*
X131761127Y-88172516D01*
X131611405Y-88234532D01*
X131476659Y-88324567D01*
X131362067Y-88439159D01*
X131272032Y-88573905D01*
X131210016Y-88723627D01*
X131178400Y-88882571D01*
X131178400Y-89044629D01*
X131179278Y-89049041D01*
X129675625Y-90552695D01*
X129614173Y-90502262D01*
X129405965Y-90390973D01*
X129180047Y-90322441D01*
X129003979Y-90305100D01*
X127378221Y-90305100D01*
X127202153Y-90322441D01*
X126976235Y-90390973D01*
X126768027Y-90502262D01*
X126585532Y-90652032D01*
X126435762Y-90834527D01*
X126324473Y-91042735D01*
X126303189Y-91112900D01*
X125827750Y-91112900D01*
X125827750Y-90833600D01*
X125819168Y-90746463D01*
X125793751Y-90662674D01*
X125752476Y-90585455D01*
X125696929Y-90517771D01*
X125629245Y-90462224D01*
X125552026Y-90420949D01*
X125468237Y-90395532D01*
X125381100Y-90386950D01*
X123919414Y-90386950D01*
X123933800Y-90314629D01*
X123933800Y-90152571D01*
X123919414Y-90080250D01*
X125381100Y-90080250D01*
X125468237Y-90071668D01*
X125552026Y-90046251D01*
X125629245Y-90004976D01*
X125696929Y-89949429D01*
X125752476Y-89881745D01*
X125793751Y-89804526D01*
X125819168Y-89720737D01*
X125827750Y-89633600D01*
X125827750Y-89560500D01*
X126397185Y-89560500D01*
X126435762Y-89632673D01*
X126585532Y-89815168D01*
X126768027Y-89964938D01*
X126976235Y-90076227D01*
X127202153Y-90144759D01*
X127378221Y-90162100D01*
X129003979Y-90162100D01*
X129180047Y-90144759D01*
X129405965Y-90076227D01*
X129614173Y-89964938D01*
X129796668Y-89815168D01*
X129946438Y-89632673D01*
X130057727Y-89424465D01*
X130126259Y-89198547D01*
X130149399Y-88963600D01*
X130126259Y-88728653D01*
X130057727Y-88502735D01*
X129946438Y-88294527D01*
X129796668Y-88112032D01*
X129614173Y-87962262D01*
X129405965Y-87850973D01*
X129180047Y-87782441D01*
X129003979Y-87765100D01*
X127378221Y-87765100D01*
X127202153Y-87782441D01*
X126976235Y-87850973D01*
X126768027Y-87962262D01*
X126585532Y-88112032D01*
X126435762Y-88294527D01*
X126397185Y-88366700D01*
X125827750Y-88366700D01*
X125827750Y-88033600D01*
X125819168Y-87946463D01*
X125793751Y-87862674D01*
X125752476Y-87785455D01*
X125696929Y-87717771D01*
X125629245Y-87662224D01*
X125552026Y-87620949D01*
X125468237Y-87595532D01*
X125381100Y-87586950D01*
X123381100Y-87586950D01*
X123293963Y-87595532D01*
X123210174Y-87620949D01*
X123132955Y-87662224D01*
X123065271Y-87717771D01*
X123009724Y-87785455D01*
X122968449Y-87862674D01*
X122943032Y-87946463D01*
X122942590Y-87950946D01*
X122217301Y-87225657D01*
X122326438Y-87092673D01*
X122338169Y-87070725D01*
X122460805Y-87152668D01*
X122610527Y-87214684D01*
X122769471Y-87246300D01*
X122931529Y-87246300D01*
X123090473Y-87214684D01*
X123240195Y-87152668D01*
X123374941Y-87062633D01*
X123489533Y-86948041D01*
X123579568Y-86813295D01*
X123641584Y-86663573D01*
X123673200Y-86504629D01*
X123673200Y-86342571D01*
X123655932Y-86255760D01*
X123665665Y-86223675D01*
X123673200Y-86147175D01*
X123673200Y-86147174D01*
X123675719Y-86121601D01*
X123673200Y-86096026D01*
X123673200Y-85874593D01*
X124547544Y-85000250D01*
X125381100Y-85000250D01*
X125468237Y-84991668D01*
X125552026Y-84966251D01*
X125629245Y-84924976D01*
X125696929Y-84869429D01*
X125752476Y-84801745D01*
X125793751Y-84724526D01*
X125819168Y-84640737D01*
X125827750Y-84553600D01*
X125827750Y-82953600D01*
X125819168Y-82866463D01*
X125793751Y-82782674D01*
X125752476Y-82705455D01*
X125696929Y-82637771D01*
X125629245Y-82582224D01*
X125552026Y-82540949D01*
X125468237Y-82515532D01*
X125381100Y-82506950D01*
X123381100Y-82506950D01*
X123293963Y-82515532D01*
X123210174Y-82540949D01*
X123132955Y-82582224D01*
X123065271Y-82637771D01*
X123009724Y-82705455D01*
X122968449Y-82782674D01*
X122943032Y-82866463D01*
X122934450Y-82953600D01*
X122934450Y-84553600D01*
X122943032Y-84640737D01*
X122968449Y-84724526D01*
X123009724Y-84801745D01*
X123065271Y-84869429D01*
X123132955Y-84924976D01*
X123144100Y-84930933D01*
X122802398Y-85272635D01*
X122782529Y-85288941D01*
X122717460Y-85368228D01*
X122688579Y-85422262D01*
X122669110Y-85458686D01*
X122639335Y-85556838D01*
X122632308Y-85628184D01*
X122610527Y-85632516D01*
X122460805Y-85694532D01*
X122338169Y-85776475D01*
X122326438Y-85754527D01*
X122176668Y-85572032D01*
X121994173Y-85422262D01*
X121785965Y-85310973D01*
X121560047Y-85242441D01*
X121383979Y-85225100D01*
X119758221Y-85225100D01*
X119582153Y-85242441D01*
X119356235Y-85310973D01*
X119148027Y-85422262D01*
X118965532Y-85572032D01*
X118815762Y-85754527D01*
X118704473Y-85962735D01*
X118635941Y-86188653D01*
X118612801Y-86423600D01*
X118635941Y-86658547D01*
X118704473Y-86884465D01*
X118815762Y-87092673D01*
X118924899Y-87225657D01*
X117913857Y-88236700D01*
X116937750Y-88236700D01*
X116937750Y-88033600D01*
X116929168Y-87946463D01*
X116903751Y-87862674D01*
X116862476Y-87785455D01*
X116806929Y-87717771D01*
X116739245Y-87662224D01*
X116662026Y-87620949D01*
X116578237Y-87595532D01*
X116491100Y-87586950D01*
X114783200Y-87586950D01*
X114783200Y-85874593D01*
X115657544Y-85000250D01*
X116491100Y-85000250D01*
X116578237Y-84991668D01*
X116662026Y-84966251D01*
X116739245Y-84924976D01*
X116806929Y-84869429D01*
X116862476Y-84801745D01*
X116903751Y-84724526D01*
X116929168Y-84640737D01*
X116937750Y-84553600D01*
X116937750Y-84274300D01*
X118683189Y-84274300D01*
X118704473Y-84344465D01*
X118815762Y-84552673D01*
X118965532Y-84735168D01*
X119148027Y-84884938D01*
X119356235Y-84996227D01*
X119582153Y-85064759D01*
X119758221Y-85082100D01*
X121383979Y-85082100D01*
X121560047Y-85064759D01*
X121785965Y-84996227D01*
X121994173Y-84884938D01*
X122176668Y-84735168D01*
X122326438Y-84552673D01*
X122437727Y-84344465D01*
X122506259Y-84118547D01*
X122529399Y-83883600D01*
X122506259Y-83648653D01*
X122437727Y-83422735D01*
X122326438Y-83214527D01*
X122176668Y-83032032D01*
X121994173Y-82882262D01*
X121785965Y-82770973D01*
X121560047Y-82702441D01*
X121383979Y-82685100D01*
X119758221Y-82685100D01*
X119582153Y-82702441D01*
X119356235Y-82770973D01*
X119148027Y-82882262D01*
X118965532Y-83032032D01*
X118815762Y-83214527D01*
X118805941Y-83232900D01*
X116937750Y-83232900D01*
X116937750Y-82953600D01*
X116929168Y-82866463D01*
X116903751Y-82782674D01*
X116862476Y-82705455D01*
X116806929Y-82637771D01*
X116739245Y-82582224D01*
X116662026Y-82540949D01*
X116578237Y-82515532D01*
X116491100Y-82506950D01*
X114491100Y-82506950D01*
X114403963Y-82515532D01*
X114320174Y-82540949D01*
X114242955Y-82582224D01*
X114175271Y-82637771D01*
X114119724Y-82705455D01*
X114078449Y-82782674D01*
X114053032Y-82866463D01*
X114044450Y-82953600D01*
X114044450Y-84553600D01*
X114053032Y-84640737D01*
X114078449Y-84724526D01*
X114119724Y-84801745D01*
X114175271Y-84869429D01*
X114242955Y-84924976D01*
X114254100Y-84930933D01*
X113912398Y-85272635D01*
X113892529Y-85288941D01*
X113827460Y-85368228D01*
X113798579Y-85422262D01*
X113779110Y-85458686D01*
X113749335Y-85556838D01*
X113739281Y-85658913D01*
X113741801Y-85684498D01*
X113741800Y-89702713D01*
X113739281Y-89728288D01*
X113746203Y-89798559D01*
X113749335Y-89830362D01*
X113779109Y-89928514D01*
X113827459Y-90018973D01*
X113892528Y-90098260D01*
X113912403Y-90114571D01*
X114254099Y-90456267D01*
X114242955Y-90462224D01*
X114175271Y-90517771D01*
X114119724Y-90585455D01*
X114078449Y-90662674D01*
X114053032Y-90746463D01*
X114044663Y-90831435D01*
X113947438Y-90685927D01*
X113768773Y-90507262D01*
X113558686Y-90366886D01*
X113325250Y-90270194D01*
X113077435Y-90220900D01*
X112824765Y-90220900D01*
X112576950Y-90270194D01*
X112343514Y-90366886D01*
X112133427Y-90507262D01*
X111954762Y-90685927D01*
X111814386Y-90896014D01*
X111717694Y-91129450D01*
X111668400Y-91377265D01*
X111668400Y-91629935D01*
X111717694Y-91877750D01*
X111814386Y-92111186D01*
X111954762Y-92321273D01*
X112133427Y-92499938D01*
X112343514Y-92640314D01*
X112576950Y-92737006D01*
X112824765Y-92786300D01*
X113077435Y-92786300D01*
X113325250Y-92737006D01*
X113558686Y-92640314D01*
X113768773Y-92499938D01*
X113947438Y-92321273D01*
X114044450Y-92176085D01*
X114044450Y-92433600D01*
X114053032Y-92520737D01*
X114078449Y-92604526D01*
X114119724Y-92681745D01*
X114175271Y-92749429D01*
X114242955Y-92804976D01*
X114320174Y-92846251D01*
X114403963Y-92871668D01*
X114491100Y-92880250D01*
X116001370Y-92880250D01*
X125306834Y-102185715D01*
X125261405Y-102204532D01*
X125126659Y-102294567D01*
X125012067Y-102409159D01*
X124922032Y-102543905D01*
X124860016Y-102693627D01*
X124828400Y-102852571D01*
X124828400Y-103014629D01*
X124860016Y-103173573D01*
X124922032Y-103323295D01*
X125012067Y-103458041D01*
X125126659Y-103572633D01*
X125261405Y-103662668D01*
X125411127Y-103724684D01*
X125570071Y-103756300D01*
X125629656Y-103756300D01*
X126394390Y-104521035D01*
X126394391Y-118806835D01*
X126352257Y-118848969D01*
X126262222Y-118983715D01*
X126200206Y-119133437D01*
X126168590Y-119292381D01*
X126168590Y-119336950D01*
X125140831Y-119336950D01*
X118547383Y-112743503D01*
X118531072Y-112723628D01*
X118451785Y-112658559D01*
X118361327Y-112610209D01*
X118263175Y-112580435D01*
X118186675Y-112572900D01*
X118161100Y-112570381D01*
X118135525Y-112572900D01*
X112021950Y-112572900D01*
X112070795Y-112552668D01*
X112205541Y-112462633D01*
X112320133Y-112348041D01*
X112410168Y-112213295D01*
X112472184Y-112063573D01*
X112503800Y-111904629D01*
X112503800Y-111742571D01*
X112472184Y-111583627D01*
X112410168Y-111433905D01*
X112320133Y-111299159D01*
X112209574Y-111188600D01*
X112320133Y-111078041D01*
X112410168Y-110943295D01*
X112472184Y-110793573D01*
X112503800Y-110634629D01*
X112503800Y-110472571D01*
X112472184Y-110313627D01*
X112410168Y-110163905D01*
X112320133Y-110029159D01*
X112209574Y-109918600D01*
X112320133Y-109808041D01*
X112410168Y-109673295D01*
X112472184Y-109523573D01*
X112503800Y-109364629D01*
X112503800Y-109202571D01*
X112472184Y-109043627D01*
X112410168Y-108893905D01*
X112320133Y-108759159D01*
X112205541Y-108644567D01*
X112070795Y-108554532D01*
X111921073Y-108492516D01*
X111762129Y-108460900D01*
X111600071Y-108460900D01*
X111595659Y-108461778D01*
X108696600Y-105562720D01*
X108696600Y-105392571D01*
X113398400Y-105392571D01*
X113398400Y-105554629D01*
X113430016Y-105713573D01*
X113492032Y-105863295D01*
X113582067Y-105998041D01*
X113696659Y-106112633D01*
X113831405Y-106202668D01*
X113981127Y-106264684D01*
X114140071Y-106296300D01*
X114302129Y-106296300D01*
X114461073Y-106264684D01*
X114610795Y-106202668D01*
X114745541Y-106112633D01*
X114860133Y-105998041D01*
X114950168Y-105863295D01*
X115012184Y-105713573D01*
X115043800Y-105554629D01*
X115043800Y-105392571D01*
X115042922Y-105388158D01*
X118432301Y-101998780D01*
X118443849Y-102012852D01*
X118627563Y-102163621D01*
X118837160Y-102275653D01*
X119064586Y-102344642D01*
X119301100Y-102367937D01*
X119537615Y-102344642D01*
X119765041Y-102275653D01*
X119974638Y-102163621D01*
X120158352Y-102012852D01*
X120309121Y-101829138D01*
X120421153Y-101619541D01*
X120490142Y-101392115D01*
X120507600Y-101214863D01*
X120507600Y-99572337D01*
X120490142Y-99395085D01*
X120421153Y-99167659D01*
X120309121Y-98958062D01*
X120158352Y-98774348D01*
X119974637Y-98623579D01*
X119765040Y-98511547D01*
X119537614Y-98442558D01*
X119301100Y-98419263D01*
X119064585Y-98442558D01*
X118837159Y-98511547D01*
X118627562Y-98623579D01*
X118443848Y-98774348D01*
X118293079Y-98958063D01*
X118181047Y-99167660D01*
X118112058Y-99395086D01*
X118094600Y-99572338D01*
X118094600Y-100863719D01*
X114306542Y-104651778D01*
X114302129Y-104650900D01*
X114140071Y-104650900D01*
X113981127Y-104682516D01*
X113831405Y-104744532D01*
X113696659Y-104834567D01*
X113582067Y-104949159D01*
X113492032Y-105083905D01*
X113430016Y-105233627D01*
X113398400Y-105392571D01*
X108696600Y-105392571D01*
X108696600Y-99572337D01*
X114284600Y-99572337D01*
X114284600Y-101214862D01*
X114302058Y-101392114D01*
X114371047Y-101619540D01*
X114483079Y-101829137D01*
X114633848Y-102012852D01*
X114817562Y-102163621D01*
X115027159Y-102275653D01*
X115254585Y-102344642D01*
X115491100Y-102367937D01*
X115727614Y-102344642D01*
X115955040Y-102275653D01*
X116164637Y-102163621D01*
X116348352Y-102012852D01*
X116499121Y-101829138D01*
X116611153Y-101619541D01*
X116680142Y-101392115D01*
X116697600Y-101214863D01*
X116697600Y-99572337D01*
X116680142Y-99395085D01*
X116611153Y-99167659D01*
X116499121Y-98958062D01*
X116348352Y-98774348D01*
X116164638Y-98623579D01*
X115955041Y-98511547D01*
X115727615Y-98442558D01*
X115491100Y-98419263D01*
X115254586Y-98442558D01*
X115027160Y-98511547D01*
X114817563Y-98623579D01*
X114633849Y-98774348D01*
X114483080Y-98958062D01*
X114371048Y-99167659D01*
X114302058Y-99395085D01*
X114284600Y-99572337D01*
X108696600Y-99572337D01*
X108696600Y-92245827D01*
X108699119Y-92220250D01*
X108689066Y-92118175D01*
X108659291Y-92020023D01*
X108641635Y-91986991D01*
X108610941Y-91929565D01*
X108545872Y-91850278D01*
X108526003Y-91833972D01*
X103428733Y-86736703D01*
X103412422Y-86716828D01*
X103333135Y-86651759D01*
X103242677Y-86603409D01*
X103144525Y-86573635D01*
X103068025Y-86566100D01*
X103042450Y-86563581D01*
X103016875Y-86566100D01*
X90723475Y-86566100D01*
X90697900Y-86563581D01*
X90595825Y-86573635D01*
X90497672Y-86603409D01*
X90466164Y-86620251D01*
X90407215Y-86651759D01*
X90327928Y-86716828D01*
X90311622Y-86736697D01*
X90176542Y-86871778D01*
X90172129Y-86870900D01*
X90010071Y-86870900D01*
X89851127Y-86902516D01*
X89701405Y-86964532D01*
X89566659Y-87054567D01*
X89452067Y-87169159D01*
X89362032Y-87303905D01*
X89300016Y-87453627D01*
X89268400Y-87612571D01*
X85480600Y-87612571D01*
X85480600Y-83070721D01*
X86352600Y-83070721D01*
X86352600Y-84696478D01*
X86369941Y-84872546D01*
X86438473Y-85098464D01*
X86549762Y-85306672D01*
X86699532Y-85489168D01*
X86882027Y-85638938D01*
X87090235Y-85750227D01*
X87316153Y-85818759D01*
X87551100Y-85841899D01*
X87786046Y-85818759D01*
X88011964Y-85750227D01*
X88220172Y-85638938D01*
X88402668Y-85489168D01*
X88552438Y-85306673D01*
X88663727Y-85098465D01*
X88732259Y-84872547D01*
X88749600Y-84696479D01*
X88749600Y-83070721D01*
X88892600Y-83070721D01*
X88892600Y-84696478D01*
X88909941Y-84872546D01*
X88978473Y-85098464D01*
X89089762Y-85306672D01*
X89239532Y-85489168D01*
X89422027Y-85638938D01*
X89630235Y-85750227D01*
X89856153Y-85818759D01*
X90091100Y-85841899D01*
X90326046Y-85818759D01*
X90551964Y-85750227D01*
X90760172Y-85638938D01*
X90942668Y-85489168D01*
X91092438Y-85306673D01*
X91203727Y-85098465D01*
X91272259Y-84872547D01*
X91289600Y-84696479D01*
X91289600Y-83070721D01*
X92702600Y-83070721D01*
X92702600Y-84696478D01*
X92719941Y-84872546D01*
X92788473Y-85098464D01*
X92899762Y-85306672D01*
X93049532Y-85489168D01*
X93232027Y-85638938D01*
X93440235Y-85750227D01*
X93666153Y-85818759D01*
X93901100Y-85841899D01*
X94136046Y-85818759D01*
X94361964Y-85750227D01*
X94570172Y-85638938D01*
X94752668Y-85489168D01*
X94902438Y-85306673D01*
X95013727Y-85098465D01*
X95082259Y-84872547D01*
X95099600Y-84696479D01*
X95099600Y-83070721D01*
X95242600Y-83070721D01*
X95242600Y-84696478D01*
X95259941Y-84872546D01*
X95328473Y-85098464D01*
X95439762Y-85306672D01*
X95589532Y-85489168D01*
X95772027Y-85638938D01*
X95980235Y-85750227D01*
X96206153Y-85818759D01*
X96441100Y-85841899D01*
X96676046Y-85818759D01*
X96901964Y-85750227D01*
X97110172Y-85638938D01*
X97292668Y-85489168D01*
X97442438Y-85306673D01*
X97553727Y-85098465D01*
X97622259Y-84872547D01*
X97639600Y-84696479D01*
X97639600Y-83070721D01*
X99052600Y-83070721D01*
X99052600Y-84696478D01*
X99069941Y-84872546D01*
X99138473Y-85098464D01*
X99249762Y-85306672D01*
X99399532Y-85489168D01*
X99582027Y-85638938D01*
X99790235Y-85750227D01*
X100016153Y-85818759D01*
X100251100Y-85841899D01*
X100486046Y-85818759D01*
X100711964Y-85750227D01*
X100920172Y-85638938D01*
X101102668Y-85489168D01*
X101252438Y-85306673D01*
X101363727Y-85098465D01*
X101432259Y-84872547D01*
X101449600Y-84696479D01*
X101449600Y-83070721D01*
X101592600Y-83070721D01*
X101592600Y-84696478D01*
X101609941Y-84872546D01*
X101678473Y-85098464D01*
X101789762Y-85306672D01*
X101939532Y-85489168D01*
X102122027Y-85638938D01*
X102330235Y-85750227D01*
X102556153Y-85818759D01*
X102791100Y-85841899D01*
X103026046Y-85818759D01*
X103251964Y-85750227D01*
X103460172Y-85638938D01*
X103642668Y-85489168D01*
X103792438Y-85306673D01*
X103903727Y-85098465D01*
X103972259Y-84872547D01*
X103989600Y-84696479D01*
X103989600Y-83070721D01*
X105402600Y-83070721D01*
X105402600Y-84696478D01*
X105419941Y-84872546D01*
X105488473Y-85098464D01*
X105599762Y-85306672D01*
X105749532Y-85489168D01*
X105932027Y-85638938D01*
X106140235Y-85750227D01*
X106366153Y-85818759D01*
X106601100Y-85841899D01*
X106836046Y-85818759D01*
X107061964Y-85750227D01*
X107270172Y-85638938D01*
X107452668Y-85489168D01*
X107602438Y-85306673D01*
X107713727Y-85098465D01*
X107782259Y-84872547D01*
X107799600Y-84696479D01*
X107799600Y-83070721D01*
X107942600Y-83070721D01*
X107942600Y-84696478D01*
X107959941Y-84872546D01*
X108028473Y-85098464D01*
X108139762Y-85306672D01*
X108289532Y-85489168D01*
X108472027Y-85638938D01*
X108680235Y-85750227D01*
X108906153Y-85818759D01*
X109141100Y-85841899D01*
X109376046Y-85818759D01*
X109601964Y-85750227D01*
X109810172Y-85638938D01*
X109992668Y-85489168D01*
X110142438Y-85306673D01*
X110253727Y-85098465D01*
X110322259Y-84872547D01*
X110339600Y-84696479D01*
X110339600Y-83070721D01*
X110322259Y-82894653D01*
X110253727Y-82668735D01*
X110142438Y-82460527D01*
X109992668Y-82278032D01*
X109810173Y-82128262D01*
X109601965Y-82016973D01*
X109376047Y-81948441D01*
X109141100Y-81925301D01*
X108906154Y-81948441D01*
X108680236Y-82016973D01*
X108472028Y-82128262D01*
X108289533Y-82278032D01*
X108139763Y-82460527D01*
X108028474Y-82668735D01*
X107959941Y-82894653D01*
X107942600Y-83070721D01*
X107799600Y-83070721D01*
X107782259Y-82894653D01*
X107713727Y-82668735D01*
X107602438Y-82460527D01*
X107452668Y-82278032D01*
X107270173Y-82128262D01*
X107061965Y-82016973D01*
X106836047Y-81948441D01*
X106601100Y-81925301D01*
X106366154Y-81948441D01*
X106140236Y-82016973D01*
X105932028Y-82128262D01*
X105749533Y-82278032D01*
X105599763Y-82460527D01*
X105488474Y-82668735D01*
X105419941Y-82894653D01*
X105402600Y-83070721D01*
X103989600Y-83070721D01*
X103972259Y-82894653D01*
X103903727Y-82668735D01*
X103792438Y-82460527D01*
X103642668Y-82278032D01*
X103460173Y-82128262D01*
X103251965Y-82016973D01*
X103026047Y-81948441D01*
X102791100Y-81925301D01*
X102556154Y-81948441D01*
X102330236Y-82016973D01*
X102122028Y-82128262D01*
X101939533Y-82278032D01*
X101789763Y-82460527D01*
X101678474Y-82668735D01*
X101609941Y-82894653D01*
X101592600Y-83070721D01*
X101449600Y-83070721D01*
X101432259Y-82894653D01*
X101363727Y-82668735D01*
X101252438Y-82460527D01*
X101102668Y-82278032D01*
X100920173Y-82128262D01*
X100711965Y-82016973D01*
X100486047Y-81948441D01*
X100251100Y-81925301D01*
X100016154Y-81948441D01*
X99790236Y-82016973D01*
X99582028Y-82128262D01*
X99399533Y-82278032D01*
X99249763Y-82460527D01*
X99138474Y-82668735D01*
X99069941Y-82894653D01*
X99052600Y-83070721D01*
X97639600Y-83070721D01*
X97622259Y-82894653D01*
X97553727Y-82668735D01*
X97442438Y-82460527D01*
X97292668Y-82278032D01*
X97110173Y-82128262D01*
X96901965Y-82016973D01*
X96676047Y-81948441D01*
X96441100Y-81925301D01*
X96206154Y-81948441D01*
X95980236Y-82016973D01*
X95772028Y-82128262D01*
X95589533Y-82278032D01*
X95439763Y-82460527D01*
X95328474Y-82668735D01*
X95259941Y-82894653D01*
X95242600Y-83070721D01*
X95099600Y-83070721D01*
X95082259Y-82894653D01*
X95013727Y-82668735D01*
X94902438Y-82460527D01*
X94752668Y-82278032D01*
X94570173Y-82128262D01*
X94361965Y-82016973D01*
X94136047Y-81948441D01*
X93901100Y-81925301D01*
X93666154Y-81948441D01*
X93440236Y-82016973D01*
X93232028Y-82128262D01*
X93049533Y-82278032D01*
X92899763Y-82460527D01*
X92788474Y-82668735D01*
X92719941Y-82894653D01*
X92702600Y-83070721D01*
X91289600Y-83070721D01*
X91272259Y-82894653D01*
X91203727Y-82668735D01*
X91092438Y-82460527D01*
X90942668Y-82278032D01*
X90760173Y-82128262D01*
X90551965Y-82016973D01*
X90326047Y-81948441D01*
X90091100Y-81925301D01*
X89856154Y-81948441D01*
X89630236Y-82016973D01*
X89422028Y-82128262D01*
X89239533Y-82278032D01*
X89089763Y-82460527D01*
X88978474Y-82668735D01*
X88909941Y-82894653D01*
X88892600Y-83070721D01*
X88749600Y-83070721D01*
X88732259Y-82894653D01*
X88663727Y-82668735D01*
X88552438Y-82460527D01*
X88402668Y-82278032D01*
X88220173Y-82128262D01*
X88011965Y-82016973D01*
X87786047Y-81948441D01*
X87551100Y-81925301D01*
X87316154Y-81948441D01*
X87090236Y-82016973D01*
X86882028Y-82128262D01*
X86699533Y-82278032D01*
X86549763Y-82460527D01*
X86438474Y-82668735D01*
X86369941Y-82894653D01*
X86352600Y-83070721D01*
X85480600Y-83070721D01*
X85480600Y-81217265D01*
X111668400Y-81217265D01*
X111668400Y-81469935D01*
X111717694Y-81717750D01*
X111814386Y-81951186D01*
X111954762Y-82161273D01*
X112133427Y-82339938D01*
X112343514Y-82480314D01*
X112576950Y-82577006D01*
X112824765Y-82626300D01*
X113077435Y-82626300D01*
X113325250Y-82577006D01*
X113558686Y-82480314D01*
X113660574Y-82412234D01*
X171866600Y-82412234D01*
X171866600Y-82814966D01*
X171945169Y-83209959D01*
X172099288Y-83582034D01*
X172323034Y-83916892D01*
X172607808Y-84201666D01*
X172942666Y-84425412D01*
X173314741Y-84579531D01*
X173709734Y-84658100D01*
X174112466Y-84658100D01*
X174507459Y-84579531D01*
X174879534Y-84425412D01*
X175214392Y-84201666D01*
X175499166Y-83916892D01*
X175722912Y-83582034D01*
X175877031Y-83209959D01*
X175955600Y-82814966D01*
X175955600Y-82412234D01*
X175877031Y-82017241D01*
X175722912Y-81645166D01*
X175499166Y-81310308D01*
X175214392Y-81025534D01*
X174879534Y-80801788D01*
X174507459Y-80647669D01*
X174112466Y-80569100D01*
X173709734Y-80569100D01*
X173314741Y-80647669D01*
X172942666Y-80801788D01*
X172607808Y-81025534D01*
X172323034Y-81310308D01*
X172099288Y-81645166D01*
X171945169Y-82017241D01*
X171866600Y-82412234D01*
X113660574Y-82412234D01*
X113768773Y-82339938D01*
X113947438Y-82161273D01*
X114087814Y-81951186D01*
X114184506Y-81717750D01*
X114233800Y-81469935D01*
X114233800Y-81217265D01*
X114184506Y-80969450D01*
X114087814Y-80736014D01*
X113947438Y-80525927D01*
X113768773Y-80347262D01*
X113558686Y-80206886D01*
X113325250Y-80110194D01*
X113077435Y-80060900D01*
X112824765Y-80060900D01*
X112576950Y-80110194D01*
X112343514Y-80206886D01*
X112133427Y-80347262D01*
X111954762Y-80525927D01*
X111814386Y-80736014D01*
X111717694Y-80969450D01*
X111668400Y-81217265D01*
X85480600Y-81217265D01*
X85480600Y-78333100D01*
X177761900Y-78333100D01*
X177761900Y-131674100D01*
G37*
%TD.AperFunction*%
D28*
X110859278Y-109198159D02*
X110858400Y-109202571D01*
X110858400Y-109364629D01*
X110890016Y-109523573D01*
X110952032Y-109673295D01*
X111042067Y-109808041D01*
X111152626Y-109918600D01*
X111042067Y-110029159D01*
X111039567Y-110032900D01*
X109782633Y-110032900D01*
X109780133Y-110029159D01*
X109665541Y-109914567D01*
X109530795Y-109824532D01*
X109381073Y-109762516D01*
X109222129Y-109730900D01*
X109060071Y-109730900D01*
X108901127Y-109762516D01*
X108751405Y-109824532D01*
X108616659Y-109914567D01*
X108502067Y-110029159D01*
X108412032Y-110163905D01*
X108391800Y-110212750D01*
X108391800Y-106730680D01*
X110859278Y-109198159D01*
%TA.AperFunction,Conductor*%
D29*
G36*
X110859278Y-109198159D02*
G01*
X110858400Y-109202571D01*
X110858400Y-109364629D01*
X110890016Y-109523573D01*
X110952032Y-109673295D01*
X111042067Y-109808041D01*
X111152626Y-109918600D01*
X111042067Y-110029159D01*
X111039567Y-110032900D01*
X109782633Y-110032900D01*
X109780133Y-110029159D01*
X109665541Y-109914567D01*
X109530795Y-109824532D01*
X109381073Y-109762516D01*
X109222129Y-109730900D01*
X109060071Y-109730900D01*
X108901127Y-109762516D01*
X108751405Y-109824532D01*
X108616659Y-109914567D01*
X108502067Y-110029159D01*
X108412032Y-110163905D01*
X108391800Y-110212750D01*
X108391800Y-106730680D01*
X110859278Y-109198159D01*
G37*
%TD.AperFunction*%
D28*
X151797881Y-102933600D02*
X151800401Y-102959185D01*
X151800400Y-106527919D01*
X149565420Y-108762900D01*
X133912633Y-108762900D01*
X133910133Y-108759159D01*
X133799574Y-108648600D01*
X133910133Y-108538041D01*
X133912633Y-108534300D01*
X145945525Y-108534300D01*
X145971100Y-108536819D01*
X146073175Y-108526765D01*
X146171327Y-108496991D01*
X146261785Y-108448641D01*
X146341072Y-108383572D01*
X146357383Y-108363697D01*
X151799017Y-102922064D01*
X151797881Y-102933600D01*
%TA.AperFunction,Conductor*%
D29*
G36*
X151797881Y-102933600D02*
G01*
X151800401Y-102959185D01*
X151800400Y-106527919D01*
X149565420Y-108762900D01*
X133912633Y-108762900D01*
X133910133Y-108759159D01*
X133799574Y-108648600D01*
X133910133Y-108538041D01*
X133912633Y-108534300D01*
X145945525Y-108534300D01*
X145971100Y-108536819D01*
X146073175Y-108526765D01*
X146171327Y-108496991D01*
X146261785Y-108448641D01*
X146341072Y-108383572D01*
X146357383Y-108363697D01*
X151799017Y-102922064D01*
X151797881Y-102933600D01*
G37*
%TD.AperFunction*%
%TD*%
M02*
