%TF.GenerationSoftware,KiCad,Pcbnew,5.1.9-73d0e3b20d~88~ubuntu18.04.1*%
%TF.CreationDate,2021-01-30T02:03:27+01:00*%
%TF.ProjectId,terraesp,74657272-6165-4737-902e-6b696361645f,rev?*%
%TF.SameCoordinates,Original*%
%TF.FileFunction,Paste,Top*%
%TF.FilePolarity,Positive*%
%FSLAX46Y46*%
G04 Gerber Fmt 4.6, Leading zero omitted, Abs format (unit mm)*
G04 Created by KiCad (PCBNEW 5.1.9-73d0e3b20d~88~ubuntu18.04.1) date 2021-01-30 02:03:27*
%MOMM*%
%LPD*%
G01*
G04 APERTURE LIST*
%ADD10C,0.100000*%
%ADD11R,2.000000X0.900000*%
%ADD12R,0.900000X2.000000*%
%ADD13R,1.600000X2.000000*%
%ADD14R,1.000000X1.400000*%
%ADD15R,1.600000X1.803000*%
%ADD16R,1.803000X1.600000*%
%ADD17R,1.500000X1.500000*%
%ADD18R,1.447800X1.397000*%
%ADD19R,1.600000X1.800000*%
%ADD20R,1.500000X1.000000*%
%ADD21R,0.599100X1.901000*%
%ADD22R,2.000000X1.600000*%
G04 APERTURE END LIST*
D10*
%TO.C,U1*%
G36*
X124881100Y-117663600D02*
G01*
X123301100Y-117663600D01*
X123301100Y-119243600D01*
X124881100Y-119243600D01*
X124881100Y-117663600D01*
G37*
G36*
X122381100Y-117663600D02*
G01*
X120801100Y-117663600D01*
X120801100Y-119243600D01*
X122381100Y-119243600D01*
X122381100Y-117663600D01*
G37*
G36*
X122381100Y-115163600D02*
G01*
X120801100Y-115163600D01*
X120801100Y-116743600D01*
X122381100Y-116743600D01*
X122381100Y-115163600D01*
G37*
G36*
X124881100Y-115163600D02*
G01*
X123301100Y-115163600D01*
X123301100Y-116743600D01*
X124881100Y-116743600D01*
X124881100Y-115163600D01*
G37*
%TD*%
D11*
%TO.C,U1*%
X113341100Y-124703600D03*
X113341100Y-123433600D03*
X113341100Y-122163600D03*
X113341100Y-120893600D03*
X113341100Y-119623600D03*
X113341100Y-118353600D03*
X113341100Y-117083600D03*
X113341100Y-115813600D03*
X113341100Y-114543600D03*
X113341100Y-113273600D03*
X113341100Y-112003600D03*
X113341100Y-110733600D03*
X113341100Y-109463600D03*
X113341100Y-108193600D03*
D12*
X116126100Y-107193600D03*
X117396100Y-107193600D03*
X118666100Y-107193600D03*
X119936100Y-107193600D03*
X121206100Y-107193600D03*
X122476100Y-107193600D03*
X123746100Y-107193600D03*
X125016100Y-107193600D03*
X126286100Y-107193600D03*
X127556100Y-107193600D03*
D11*
X130341100Y-108193600D03*
X130341100Y-109463600D03*
X130341100Y-110733600D03*
X130341100Y-112003600D03*
X130341100Y-113273600D03*
X130341100Y-114543600D03*
X130341100Y-115813600D03*
X130341100Y-117083600D03*
X130341100Y-118353600D03*
X130341100Y-119623600D03*
X130341100Y-120893600D03*
X130341100Y-122163600D03*
X130341100Y-123433600D03*
X130341100Y-124703600D03*
%TD*%
D13*
%TO.C,R6*%
X121971100Y-96583600D03*
X119171100Y-96583600D03*
%TD*%
D14*
%TO.C,T4*%
X156451100Y-92603600D03*
X158351100Y-92603600D03*
X157401100Y-90403600D03*
%TD*%
D15*
%TO.C,R9*%
X158823100Y-96583600D03*
X155979100Y-96583600D03*
%TD*%
D16*
%TO.C,R10*%
X153591100Y-93891600D03*
X153591100Y-96735600D03*
%TD*%
D17*
%TO.C,LED4*%
X162481100Y-93253600D03*
X162481100Y-89753600D03*
%TD*%
D15*
%TO.C,R11*%
X162329100Y-96583600D03*
X165173100Y-96583600D03*
%TD*%
D14*
%TO.C,T1*%
X156451100Y-102763600D03*
X158351100Y-102763600D03*
X157401100Y-100563600D03*
%TD*%
D15*
%TO.C,R1*%
X158823100Y-106743600D03*
X155979100Y-106743600D03*
%TD*%
D16*
%TO.C,R2*%
X153591100Y-104051600D03*
X153591100Y-106895600D03*
%TD*%
D17*
%TO.C,LED1*%
X162481100Y-103413600D03*
X162481100Y-99913600D03*
%TD*%
D15*
%TO.C,R3*%
X162329100Y-106743600D03*
X165173100Y-106743600D03*
%TD*%
D14*
%TO.C,T2*%
X156451100Y-112923600D03*
X158351100Y-112923600D03*
X157401100Y-110723600D03*
%TD*%
D15*
%TO.C,R4*%
X158823100Y-116903600D03*
X155979100Y-116903600D03*
%TD*%
D16*
%TO.C,R7*%
X153591100Y-114211600D03*
X153591100Y-117055600D03*
%TD*%
D17*
%TO.C,LED2*%
X162481100Y-113573600D03*
X162481100Y-110073600D03*
%TD*%
D15*
%TO.C,R8*%
X162329100Y-116903600D03*
X165173100Y-116903600D03*
%TD*%
D14*
%TO.C,T3*%
X156451100Y-123083600D03*
X158351100Y-123083600D03*
X157401100Y-120883600D03*
%TD*%
D15*
%TO.C,R12*%
X158823100Y-127063600D03*
X155979100Y-127063600D03*
%TD*%
D16*
%TO.C,R13*%
X153591100Y-124371600D03*
X153591100Y-127215600D03*
%TD*%
D17*
%TO.C,LED3*%
X162481100Y-123733600D03*
X162481100Y-120233600D03*
%TD*%
D15*
%TO.C,R14*%
X162329100Y-127063600D03*
X165173100Y-127063600D03*
%TD*%
%TO.C,U2*%
G36*
G01*
X135562850Y-124873600D02*
X134449350Y-124873600D01*
G75*
G02*
X134351100Y-124775350I0J98250D01*
G01*
X134351100Y-121731850D01*
G75*
G02*
X134449350Y-121633600I98250J0D01*
G01*
X135562850Y-121633600D01*
G75*
G02*
X135661100Y-121731850I0J-98250D01*
G01*
X135661100Y-124775350D01*
G75*
G02*
X135562850Y-124873600I-98250J0D01*
G01*
G37*
G36*
G01*
X142281350Y-121428600D02*
X141110850Y-121428600D01*
G75*
G02*
X141041100Y-121358850I0J69750D01*
G01*
X141041100Y-120568350D01*
G75*
G02*
X141110850Y-120498600I69750J0D01*
G01*
X142281350Y-120498600D01*
G75*
G02*
X142351100Y-120568350I0J-69750D01*
G01*
X142351100Y-121358850D01*
G75*
G02*
X142281350Y-121428600I-69750J0D01*
G01*
G37*
G36*
G01*
X142281350Y-123718600D02*
X141110850Y-123718600D01*
G75*
G02*
X141041100Y-123648850I0J69750D01*
G01*
X141041100Y-122858350D01*
G75*
G02*
X141110850Y-122788600I69750J0D01*
G01*
X142281350Y-122788600D01*
G75*
G02*
X142351100Y-122858350I0J-69750D01*
G01*
X142351100Y-123648850D01*
G75*
G02*
X142281350Y-123718600I-69750J0D01*
G01*
G37*
G36*
G01*
X142281350Y-126008600D02*
X141110850Y-126008600D01*
G75*
G02*
X141041100Y-125938850I0J69750D01*
G01*
X141041100Y-125148350D01*
G75*
G02*
X141110850Y-125078600I69750J0D01*
G01*
X142281350Y-125078600D01*
G75*
G02*
X142351100Y-125148350I0J-69750D01*
G01*
X142351100Y-125938850D01*
G75*
G02*
X142281350Y-126008600I-69750J0D01*
G01*
G37*
%TD*%
D18*
%TO.C,C2*%
X146123500Y-124523600D03*
X148358700Y-124523600D03*
%TD*%
D19*
%TO.C,C3*%
X148641100Y-120713600D03*
X145841100Y-120713600D03*
%TD*%
D13*
%TO.C,R19*%
X112821100Y-96583600D03*
X115621100Y-96583600D03*
%TD*%
D20*
%TO.C,D1*%
X130641100Y-96253600D03*
X130641100Y-97853600D03*
X130641100Y-99453600D03*
X125741100Y-99453600D03*
X125741100Y-97853600D03*
X125741100Y-96253600D03*
%TD*%
D21*
%TO.C,U$2*%
X93266100Y-89048200D03*
X94536100Y-89048200D03*
X95806100Y-89048200D03*
X97076100Y-89048200D03*
X97076100Y-93959000D03*
X95806100Y-93959000D03*
X94536100Y-93959000D03*
X93266100Y-93959000D03*
%TD*%
D16*
%TO.C,R20*%
X91361100Y-90081600D03*
X91361100Y-92925600D03*
%TD*%
D22*
%TO.C,R21*%
X87551100Y-90103600D03*
X87551100Y-92903600D03*
%TD*%
D15*
%TO.C,R22*%
X93749100Y-96583600D03*
X96593100Y-96583600D03*
%TD*%
D13*
%TO.C,R23*%
X87421100Y-96583600D03*
X90221100Y-96583600D03*
%TD*%
D21*
%TO.C,U$3*%
X105966100Y-89048200D03*
X107236100Y-89048200D03*
X108506100Y-89048200D03*
X109776100Y-89048200D03*
X109776100Y-93959000D03*
X108506100Y-93959000D03*
X107236100Y-93959000D03*
X105966100Y-93959000D03*
%TD*%
D16*
%TO.C,R24*%
X104061100Y-90081600D03*
X104061100Y-92925600D03*
%TD*%
D22*
%TO.C,R25*%
X100251100Y-90103600D03*
X100251100Y-92903600D03*
%TD*%
D15*
%TO.C,R26*%
X106449100Y-96583600D03*
X109293100Y-96583600D03*
%TD*%
D13*
%TO.C,R27*%
X100121100Y-96583600D03*
X102921100Y-96583600D03*
%TD*%
M02*
