%TF.GenerationSoftware,KiCad,Pcbnew,5.1.9-73d0e3b20d~88~ubuntu18.04.1*%
%TF.CreationDate,2021-01-30T02:03:27+01:00*%
%TF.ProjectId,terraesp,74657272-6165-4737-902e-6b696361645f,rev?*%
%TF.SameCoordinates,Original*%
%TF.FileFunction,Legend,Bot*%
%TF.FilePolarity,Positive*%
%FSLAX46Y46*%
G04 Gerber Fmt 4.6, Leading zero omitted, Abs format (unit mm)*
G04 Created by KiCad (PCBNEW 5.1.9-73d0e3b20d~88~ubuntu18.04.1) date 2021-01-30 02:03:27*
%MOMM*%
%LPD*%
G01*
G04 APERTURE LIST*
%ADD10C,0.096520*%
G04 APERTURE END LIST*
%TO.C,R5*%
D10*
X126863647Y-121812004D02*
X126289123Y-121409838D01*
X126863647Y-121122576D02*
X125657147Y-121122576D01*
X125657147Y-121582195D01*
X125714600Y-121697100D01*
X125772052Y-121754552D01*
X125886957Y-121812004D01*
X126059314Y-121812004D01*
X126174219Y-121754552D01*
X126231671Y-121697100D01*
X126289123Y-121582195D01*
X126289123Y-121122576D01*
X125657147Y-122903600D02*
X125657147Y-122329076D01*
X126231671Y-122271623D01*
X126174219Y-122329076D01*
X126116766Y-122443981D01*
X126116766Y-122731242D01*
X126174219Y-122846147D01*
X126231671Y-122903600D01*
X126346576Y-122961052D01*
X126633838Y-122961052D01*
X126748742Y-122903600D01*
X126806195Y-122846147D01*
X126863647Y-122731242D01*
X126863647Y-122443981D01*
X126806195Y-122329076D01*
X126748742Y-122271623D01*
%TO.C,R15*%
X123053647Y-86372957D02*
X122479123Y-85970790D01*
X123053647Y-85683528D02*
X121847147Y-85683528D01*
X121847147Y-86143147D01*
X121904600Y-86258052D01*
X121962052Y-86315504D01*
X122076957Y-86372957D01*
X122249314Y-86372957D01*
X122364219Y-86315504D01*
X122421671Y-86258052D01*
X122479123Y-86143147D01*
X122479123Y-85683528D01*
X123053647Y-87522004D02*
X123053647Y-86832576D01*
X123053647Y-87177290D02*
X121847147Y-87177290D01*
X122019504Y-87062385D01*
X122134409Y-86947481D01*
X122191861Y-86832576D01*
X121847147Y-88613600D02*
X121847147Y-88039076D01*
X122421671Y-87981623D01*
X122364219Y-88039076D01*
X122306766Y-88153981D01*
X122306766Y-88441242D01*
X122364219Y-88556147D01*
X122421671Y-88613600D01*
X122536576Y-88671052D01*
X122823838Y-88671052D01*
X122938742Y-88613600D01*
X122996195Y-88556147D01*
X123053647Y-88441242D01*
X123053647Y-88153981D01*
X122996195Y-88039076D01*
X122938742Y-87981623D01*
%TO.C,R16*%
X125593647Y-83832957D02*
X125019123Y-83430790D01*
X125593647Y-83143528D02*
X124387147Y-83143528D01*
X124387147Y-83603147D01*
X124444600Y-83718052D01*
X124502052Y-83775504D01*
X124616957Y-83832957D01*
X124789314Y-83832957D01*
X124904219Y-83775504D01*
X124961671Y-83718052D01*
X125019123Y-83603147D01*
X125019123Y-83143528D01*
X125593647Y-84982004D02*
X125593647Y-84292576D01*
X125593647Y-84637290D02*
X124387147Y-84637290D01*
X124559504Y-84522385D01*
X124674409Y-84407481D01*
X124731861Y-84292576D01*
X124387147Y-86016147D02*
X124387147Y-85786338D01*
X124444600Y-85671433D01*
X124502052Y-85613981D01*
X124674409Y-85499076D01*
X124904219Y-85441623D01*
X125363838Y-85441623D01*
X125478742Y-85499076D01*
X125536195Y-85556528D01*
X125593647Y-85671433D01*
X125593647Y-85901242D01*
X125536195Y-86016147D01*
X125478742Y-86073600D01*
X125363838Y-86131052D01*
X125076576Y-86131052D01*
X124961671Y-86073600D01*
X124904219Y-86016147D01*
X124846766Y-85901242D01*
X124846766Y-85671433D01*
X124904219Y-85556528D01*
X124961671Y-85499076D01*
X125076576Y-85441623D01*
%TO.C,R17*%
X114163647Y-86372957D02*
X113589123Y-85970790D01*
X114163647Y-85683528D02*
X112957147Y-85683528D01*
X112957147Y-86143147D01*
X113014600Y-86258052D01*
X113072052Y-86315504D01*
X113186957Y-86372957D01*
X113359314Y-86372957D01*
X113474219Y-86315504D01*
X113531671Y-86258052D01*
X113589123Y-86143147D01*
X113589123Y-85683528D01*
X114163647Y-87522004D02*
X114163647Y-86832576D01*
X114163647Y-87177290D02*
X112957147Y-87177290D01*
X113129504Y-87062385D01*
X113244409Y-86947481D01*
X113301861Y-86832576D01*
X112957147Y-87924171D02*
X112957147Y-88728504D01*
X114163647Y-88211433D01*
%TO.C,R18*%
X116703647Y-83832957D02*
X116129123Y-83430790D01*
X116703647Y-83143528D02*
X115497147Y-83143528D01*
X115497147Y-83603147D01*
X115554600Y-83718052D01*
X115612052Y-83775504D01*
X115726957Y-83832957D01*
X115899314Y-83832957D01*
X116014219Y-83775504D01*
X116071671Y-83718052D01*
X116129123Y-83603147D01*
X116129123Y-83143528D01*
X116703647Y-84982004D02*
X116703647Y-84292576D01*
X116703647Y-84637290D02*
X115497147Y-84637290D01*
X115669504Y-84522385D01*
X115784409Y-84407481D01*
X115841861Y-84292576D01*
X116014219Y-85671433D02*
X115956766Y-85556528D01*
X115899314Y-85499076D01*
X115784409Y-85441623D01*
X115726957Y-85441623D01*
X115612052Y-85499076D01*
X115554600Y-85556528D01*
X115497147Y-85671433D01*
X115497147Y-85901242D01*
X115554600Y-86016147D01*
X115612052Y-86073600D01*
X115726957Y-86131052D01*
X115784409Y-86131052D01*
X115899314Y-86073600D01*
X115956766Y-86016147D01*
X116014219Y-85901242D01*
X116014219Y-85671433D01*
X116071671Y-85556528D01*
X116129123Y-85499076D01*
X116244028Y-85441623D01*
X116473838Y-85441623D01*
X116588742Y-85499076D01*
X116646195Y-85556528D01*
X116703647Y-85671433D01*
X116703647Y-85901242D01*
X116646195Y-86016147D01*
X116588742Y-86073600D01*
X116473838Y-86131052D01*
X116244028Y-86131052D01*
X116129123Y-86073600D01*
X116071671Y-86016147D01*
X116014219Y-85901242D01*
%TD*%
M02*
