%TF.GenerationSoftware,KiCad,Pcbnew,5.1.9-73d0e3b20d~88~ubuntu18.04.1*%
%TF.CreationDate,2021-01-30T02:03:27+01:00*%
%TF.ProjectId,terraesp,74657272-6165-4737-902e-6b696361645f,rev?*%
%TF.SameCoordinates,Original*%
%TF.FileFunction,Soldermask,Top*%
%TF.FilePolarity,Negative*%
%FSLAX46Y46*%
G04 Gerber Fmt 4.6, Leading zero omitted, Abs format (unit mm)*
G04 Created by KiCad (PCBNEW 5.1.9-73d0e3b20d~88~ubuntu18.04.1) date 2021-01-30 02:03:27*
%MOMM*%
%LPD*%
G01*
G04 APERTURE LIST*
%ADD10C,3.200000*%
%ADD11C,1.711200*%
%ADD12C,1.625600*%
%ADD13C,2.453200*%
%ADD14C,1.524000*%
%ADD15O,3.251200X1.727200*%
%ADD16O,1.727200X3.251200*%
%ADD17C,2.743200*%
%ADD18O,3.219200X1.711200*%
%ADD19O,1.711200X3.219200*%
%ADD20C,1.879600*%
G04 APERTURE END LIST*
D10*
%TO.C,@HOLE0*%
X173911100Y-82613600D03*
%TD*%
%TO.C,@HOLE1*%
X173911100Y-129603600D03*
%TD*%
%TO.C,@HOLE2*%
X88821100Y-128333600D03*
%TD*%
%TO.C,@HOLE3*%
X88821100Y-102933600D03*
%TD*%
%TO.C,U1*%
G36*
G01*
X125442700Y-114703600D02*
X125442700Y-119703600D01*
G75*
G02*
X125341100Y-119805200I-101600J0D01*
G01*
X120341100Y-119805200D01*
G75*
G02*
X120239500Y-119703600I0J101600D01*
G01*
X120239500Y-114703600D01*
G75*
G02*
X120341100Y-114602000I101600J0D01*
G01*
X125341100Y-114602000D01*
G75*
G02*
X125442700Y-114703600I0J-101600D01*
G01*
G37*
G36*
G01*
X114442700Y-124253600D02*
X114442700Y-125153600D01*
G75*
G02*
X114341100Y-125255200I-101600J0D01*
G01*
X112341100Y-125255200D01*
G75*
G02*
X112239500Y-125153600I0J101600D01*
G01*
X112239500Y-124253600D01*
G75*
G02*
X112341100Y-124152000I101600J0D01*
G01*
X114341100Y-124152000D01*
G75*
G02*
X114442700Y-124253600I0J-101600D01*
G01*
G37*
G36*
G01*
X114442700Y-122983600D02*
X114442700Y-123883600D01*
G75*
G02*
X114341100Y-123985200I-101600J0D01*
G01*
X112341100Y-123985200D01*
G75*
G02*
X112239500Y-123883600I0J101600D01*
G01*
X112239500Y-122983600D01*
G75*
G02*
X112341100Y-122882000I101600J0D01*
G01*
X114341100Y-122882000D01*
G75*
G02*
X114442700Y-122983600I0J-101600D01*
G01*
G37*
G36*
G01*
X114442700Y-121713600D02*
X114442700Y-122613600D01*
G75*
G02*
X114341100Y-122715200I-101600J0D01*
G01*
X112341100Y-122715200D01*
G75*
G02*
X112239500Y-122613600I0J101600D01*
G01*
X112239500Y-121713600D01*
G75*
G02*
X112341100Y-121612000I101600J0D01*
G01*
X114341100Y-121612000D01*
G75*
G02*
X114442700Y-121713600I0J-101600D01*
G01*
G37*
G36*
G01*
X114442700Y-120443600D02*
X114442700Y-121343600D01*
G75*
G02*
X114341100Y-121445200I-101600J0D01*
G01*
X112341100Y-121445200D01*
G75*
G02*
X112239500Y-121343600I0J101600D01*
G01*
X112239500Y-120443600D01*
G75*
G02*
X112341100Y-120342000I101600J0D01*
G01*
X114341100Y-120342000D01*
G75*
G02*
X114442700Y-120443600I0J-101600D01*
G01*
G37*
G36*
G01*
X114442700Y-119173600D02*
X114442700Y-120073600D01*
G75*
G02*
X114341100Y-120175200I-101600J0D01*
G01*
X112341100Y-120175200D01*
G75*
G02*
X112239500Y-120073600I0J101600D01*
G01*
X112239500Y-119173600D01*
G75*
G02*
X112341100Y-119072000I101600J0D01*
G01*
X114341100Y-119072000D01*
G75*
G02*
X114442700Y-119173600I0J-101600D01*
G01*
G37*
G36*
G01*
X114442700Y-117903600D02*
X114442700Y-118803600D01*
G75*
G02*
X114341100Y-118905200I-101600J0D01*
G01*
X112341100Y-118905200D01*
G75*
G02*
X112239500Y-118803600I0J101600D01*
G01*
X112239500Y-117903600D01*
G75*
G02*
X112341100Y-117802000I101600J0D01*
G01*
X114341100Y-117802000D01*
G75*
G02*
X114442700Y-117903600I0J-101600D01*
G01*
G37*
G36*
G01*
X114442700Y-116633600D02*
X114442700Y-117533600D01*
G75*
G02*
X114341100Y-117635200I-101600J0D01*
G01*
X112341100Y-117635200D01*
G75*
G02*
X112239500Y-117533600I0J101600D01*
G01*
X112239500Y-116633600D01*
G75*
G02*
X112341100Y-116532000I101600J0D01*
G01*
X114341100Y-116532000D01*
G75*
G02*
X114442700Y-116633600I0J-101600D01*
G01*
G37*
G36*
G01*
X114442700Y-115363600D02*
X114442700Y-116263600D01*
G75*
G02*
X114341100Y-116365200I-101600J0D01*
G01*
X112341100Y-116365200D01*
G75*
G02*
X112239500Y-116263600I0J101600D01*
G01*
X112239500Y-115363600D01*
G75*
G02*
X112341100Y-115262000I101600J0D01*
G01*
X114341100Y-115262000D01*
G75*
G02*
X114442700Y-115363600I0J-101600D01*
G01*
G37*
G36*
G01*
X114442700Y-114093600D02*
X114442700Y-114993600D01*
G75*
G02*
X114341100Y-115095200I-101600J0D01*
G01*
X112341100Y-115095200D01*
G75*
G02*
X112239500Y-114993600I0J101600D01*
G01*
X112239500Y-114093600D01*
G75*
G02*
X112341100Y-113992000I101600J0D01*
G01*
X114341100Y-113992000D01*
G75*
G02*
X114442700Y-114093600I0J-101600D01*
G01*
G37*
G36*
G01*
X114442700Y-112823600D02*
X114442700Y-113723600D01*
G75*
G02*
X114341100Y-113825200I-101600J0D01*
G01*
X112341100Y-113825200D01*
G75*
G02*
X112239500Y-113723600I0J101600D01*
G01*
X112239500Y-112823600D01*
G75*
G02*
X112341100Y-112722000I101600J0D01*
G01*
X114341100Y-112722000D01*
G75*
G02*
X114442700Y-112823600I0J-101600D01*
G01*
G37*
G36*
G01*
X114442700Y-111553600D02*
X114442700Y-112453600D01*
G75*
G02*
X114341100Y-112555200I-101600J0D01*
G01*
X112341100Y-112555200D01*
G75*
G02*
X112239500Y-112453600I0J101600D01*
G01*
X112239500Y-111553600D01*
G75*
G02*
X112341100Y-111452000I101600J0D01*
G01*
X114341100Y-111452000D01*
G75*
G02*
X114442700Y-111553600I0J-101600D01*
G01*
G37*
G36*
G01*
X114442700Y-110283600D02*
X114442700Y-111183600D01*
G75*
G02*
X114341100Y-111285200I-101600J0D01*
G01*
X112341100Y-111285200D01*
G75*
G02*
X112239500Y-111183600I0J101600D01*
G01*
X112239500Y-110283600D01*
G75*
G02*
X112341100Y-110182000I101600J0D01*
G01*
X114341100Y-110182000D01*
G75*
G02*
X114442700Y-110283600I0J-101600D01*
G01*
G37*
G36*
G01*
X114442700Y-109013600D02*
X114442700Y-109913600D01*
G75*
G02*
X114341100Y-110015200I-101600J0D01*
G01*
X112341100Y-110015200D01*
G75*
G02*
X112239500Y-109913600I0J101600D01*
G01*
X112239500Y-109013600D01*
G75*
G02*
X112341100Y-108912000I101600J0D01*
G01*
X114341100Y-108912000D01*
G75*
G02*
X114442700Y-109013600I0J-101600D01*
G01*
G37*
G36*
G01*
X114442700Y-107743600D02*
X114442700Y-108643600D01*
G75*
G02*
X114341100Y-108745200I-101600J0D01*
G01*
X112341100Y-108745200D01*
G75*
G02*
X112239500Y-108643600I0J101600D01*
G01*
X112239500Y-107743600D01*
G75*
G02*
X112341100Y-107642000I101600J0D01*
G01*
X114341100Y-107642000D01*
G75*
G02*
X114442700Y-107743600I0J-101600D01*
G01*
G37*
G36*
G01*
X116677700Y-106193600D02*
X116677700Y-108193600D01*
G75*
G02*
X116576100Y-108295200I-101600J0D01*
G01*
X115676100Y-108295200D01*
G75*
G02*
X115574500Y-108193600I0J101600D01*
G01*
X115574500Y-106193600D01*
G75*
G02*
X115676100Y-106092000I101600J0D01*
G01*
X116576100Y-106092000D01*
G75*
G02*
X116677700Y-106193600I0J-101600D01*
G01*
G37*
G36*
G01*
X117947700Y-106193600D02*
X117947700Y-108193600D01*
G75*
G02*
X117846100Y-108295200I-101600J0D01*
G01*
X116946100Y-108295200D01*
G75*
G02*
X116844500Y-108193600I0J101600D01*
G01*
X116844500Y-106193600D01*
G75*
G02*
X116946100Y-106092000I101600J0D01*
G01*
X117846100Y-106092000D01*
G75*
G02*
X117947700Y-106193600I0J-101600D01*
G01*
G37*
G36*
G01*
X119217700Y-106193600D02*
X119217700Y-108193600D01*
G75*
G02*
X119116100Y-108295200I-101600J0D01*
G01*
X118216100Y-108295200D01*
G75*
G02*
X118114500Y-108193600I0J101600D01*
G01*
X118114500Y-106193600D01*
G75*
G02*
X118216100Y-106092000I101600J0D01*
G01*
X119116100Y-106092000D01*
G75*
G02*
X119217700Y-106193600I0J-101600D01*
G01*
G37*
G36*
G01*
X120487700Y-106193600D02*
X120487700Y-108193600D01*
G75*
G02*
X120386100Y-108295200I-101600J0D01*
G01*
X119486100Y-108295200D01*
G75*
G02*
X119384500Y-108193600I0J101600D01*
G01*
X119384500Y-106193600D01*
G75*
G02*
X119486100Y-106092000I101600J0D01*
G01*
X120386100Y-106092000D01*
G75*
G02*
X120487700Y-106193600I0J-101600D01*
G01*
G37*
G36*
G01*
X121757700Y-106193600D02*
X121757700Y-108193600D01*
G75*
G02*
X121656100Y-108295200I-101600J0D01*
G01*
X120756100Y-108295200D01*
G75*
G02*
X120654500Y-108193600I0J101600D01*
G01*
X120654500Y-106193600D01*
G75*
G02*
X120756100Y-106092000I101600J0D01*
G01*
X121656100Y-106092000D01*
G75*
G02*
X121757700Y-106193600I0J-101600D01*
G01*
G37*
G36*
G01*
X123027700Y-106193600D02*
X123027700Y-108193600D01*
G75*
G02*
X122926100Y-108295200I-101600J0D01*
G01*
X122026100Y-108295200D01*
G75*
G02*
X121924500Y-108193600I0J101600D01*
G01*
X121924500Y-106193600D01*
G75*
G02*
X122026100Y-106092000I101600J0D01*
G01*
X122926100Y-106092000D01*
G75*
G02*
X123027700Y-106193600I0J-101600D01*
G01*
G37*
G36*
G01*
X124297700Y-106193600D02*
X124297700Y-108193600D01*
G75*
G02*
X124196100Y-108295200I-101600J0D01*
G01*
X123296100Y-108295200D01*
G75*
G02*
X123194500Y-108193600I0J101600D01*
G01*
X123194500Y-106193600D01*
G75*
G02*
X123296100Y-106092000I101600J0D01*
G01*
X124196100Y-106092000D01*
G75*
G02*
X124297700Y-106193600I0J-101600D01*
G01*
G37*
G36*
G01*
X125567700Y-106193600D02*
X125567700Y-108193600D01*
G75*
G02*
X125466100Y-108295200I-101600J0D01*
G01*
X124566100Y-108295200D01*
G75*
G02*
X124464500Y-108193600I0J101600D01*
G01*
X124464500Y-106193600D01*
G75*
G02*
X124566100Y-106092000I101600J0D01*
G01*
X125466100Y-106092000D01*
G75*
G02*
X125567700Y-106193600I0J-101600D01*
G01*
G37*
G36*
G01*
X126837700Y-106193600D02*
X126837700Y-108193600D01*
G75*
G02*
X126736100Y-108295200I-101600J0D01*
G01*
X125836100Y-108295200D01*
G75*
G02*
X125734500Y-108193600I0J101600D01*
G01*
X125734500Y-106193600D01*
G75*
G02*
X125836100Y-106092000I101600J0D01*
G01*
X126736100Y-106092000D01*
G75*
G02*
X126837700Y-106193600I0J-101600D01*
G01*
G37*
G36*
G01*
X128107700Y-106193600D02*
X128107700Y-108193600D01*
G75*
G02*
X128006100Y-108295200I-101600J0D01*
G01*
X127106100Y-108295200D01*
G75*
G02*
X127004500Y-108193600I0J101600D01*
G01*
X127004500Y-106193600D01*
G75*
G02*
X127106100Y-106092000I101600J0D01*
G01*
X128006100Y-106092000D01*
G75*
G02*
X128107700Y-106193600I0J-101600D01*
G01*
G37*
G36*
G01*
X131442700Y-107743600D02*
X131442700Y-108643600D01*
G75*
G02*
X131341100Y-108745200I-101600J0D01*
G01*
X129341100Y-108745200D01*
G75*
G02*
X129239500Y-108643600I0J101600D01*
G01*
X129239500Y-107743600D01*
G75*
G02*
X129341100Y-107642000I101600J0D01*
G01*
X131341100Y-107642000D01*
G75*
G02*
X131442700Y-107743600I0J-101600D01*
G01*
G37*
G36*
G01*
X131442700Y-109013600D02*
X131442700Y-109913600D01*
G75*
G02*
X131341100Y-110015200I-101600J0D01*
G01*
X129341100Y-110015200D01*
G75*
G02*
X129239500Y-109913600I0J101600D01*
G01*
X129239500Y-109013600D01*
G75*
G02*
X129341100Y-108912000I101600J0D01*
G01*
X131341100Y-108912000D01*
G75*
G02*
X131442700Y-109013600I0J-101600D01*
G01*
G37*
G36*
G01*
X131442700Y-110283600D02*
X131442700Y-111183600D01*
G75*
G02*
X131341100Y-111285200I-101600J0D01*
G01*
X129341100Y-111285200D01*
G75*
G02*
X129239500Y-111183600I0J101600D01*
G01*
X129239500Y-110283600D01*
G75*
G02*
X129341100Y-110182000I101600J0D01*
G01*
X131341100Y-110182000D01*
G75*
G02*
X131442700Y-110283600I0J-101600D01*
G01*
G37*
G36*
G01*
X131442700Y-111553600D02*
X131442700Y-112453600D01*
G75*
G02*
X131341100Y-112555200I-101600J0D01*
G01*
X129341100Y-112555200D01*
G75*
G02*
X129239500Y-112453600I0J101600D01*
G01*
X129239500Y-111553600D01*
G75*
G02*
X129341100Y-111452000I101600J0D01*
G01*
X131341100Y-111452000D01*
G75*
G02*
X131442700Y-111553600I0J-101600D01*
G01*
G37*
G36*
G01*
X131442700Y-112823600D02*
X131442700Y-113723600D01*
G75*
G02*
X131341100Y-113825200I-101600J0D01*
G01*
X129341100Y-113825200D01*
G75*
G02*
X129239500Y-113723600I0J101600D01*
G01*
X129239500Y-112823600D01*
G75*
G02*
X129341100Y-112722000I101600J0D01*
G01*
X131341100Y-112722000D01*
G75*
G02*
X131442700Y-112823600I0J-101600D01*
G01*
G37*
G36*
G01*
X131442700Y-114093600D02*
X131442700Y-114993600D01*
G75*
G02*
X131341100Y-115095200I-101600J0D01*
G01*
X129341100Y-115095200D01*
G75*
G02*
X129239500Y-114993600I0J101600D01*
G01*
X129239500Y-114093600D01*
G75*
G02*
X129341100Y-113992000I101600J0D01*
G01*
X131341100Y-113992000D01*
G75*
G02*
X131442700Y-114093600I0J-101600D01*
G01*
G37*
G36*
G01*
X131442700Y-115363600D02*
X131442700Y-116263600D01*
G75*
G02*
X131341100Y-116365200I-101600J0D01*
G01*
X129341100Y-116365200D01*
G75*
G02*
X129239500Y-116263600I0J101600D01*
G01*
X129239500Y-115363600D01*
G75*
G02*
X129341100Y-115262000I101600J0D01*
G01*
X131341100Y-115262000D01*
G75*
G02*
X131442700Y-115363600I0J-101600D01*
G01*
G37*
G36*
G01*
X131442700Y-116633600D02*
X131442700Y-117533600D01*
G75*
G02*
X131341100Y-117635200I-101600J0D01*
G01*
X129341100Y-117635200D01*
G75*
G02*
X129239500Y-117533600I0J101600D01*
G01*
X129239500Y-116633600D01*
G75*
G02*
X129341100Y-116532000I101600J0D01*
G01*
X131341100Y-116532000D01*
G75*
G02*
X131442700Y-116633600I0J-101600D01*
G01*
G37*
G36*
G01*
X131442700Y-117903600D02*
X131442700Y-118803600D01*
G75*
G02*
X131341100Y-118905200I-101600J0D01*
G01*
X129341100Y-118905200D01*
G75*
G02*
X129239500Y-118803600I0J101600D01*
G01*
X129239500Y-117903600D01*
G75*
G02*
X129341100Y-117802000I101600J0D01*
G01*
X131341100Y-117802000D01*
G75*
G02*
X131442700Y-117903600I0J-101600D01*
G01*
G37*
G36*
G01*
X131442700Y-119173600D02*
X131442700Y-120073600D01*
G75*
G02*
X131341100Y-120175200I-101600J0D01*
G01*
X129341100Y-120175200D01*
G75*
G02*
X129239500Y-120073600I0J101600D01*
G01*
X129239500Y-119173600D01*
G75*
G02*
X129341100Y-119072000I101600J0D01*
G01*
X131341100Y-119072000D01*
G75*
G02*
X131442700Y-119173600I0J-101600D01*
G01*
G37*
G36*
G01*
X131442700Y-120443600D02*
X131442700Y-121343600D01*
G75*
G02*
X131341100Y-121445200I-101600J0D01*
G01*
X129341100Y-121445200D01*
G75*
G02*
X129239500Y-121343600I0J101600D01*
G01*
X129239500Y-120443600D01*
G75*
G02*
X129341100Y-120342000I101600J0D01*
G01*
X131341100Y-120342000D01*
G75*
G02*
X131442700Y-120443600I0J-101600D01*
G01*
G37*
G36*
G01*
X131442700Y-121713600D02*
X131442700Y-122613600D01*
G75*
G02*
X131341100Y-122715200I-101600J0D01*
G01*
X129341100Y-122715200D01*
G75*
G02*
X129239500Y-122613600I0J101600D01*
G01*
X129239500Y-121713600D01*
G75*
G02*
X129341100Y-121612000I101600J0D01*
G01*
X131341100Y-121612000D01*
G75*
G02*
X131442700Y-121713600I0J-101600D01*
G01*
G37*
G36*
G01*
X131442700Y-122983600D02*
X131442700Y-123883600D01*
G75*
G02*
X131341100Y-123985200I-101600J0D01*
G01*
X129341100Y-123985200D01*
G75*
G02*
X129239500Y-123883600I0J101600D01*
G01*
X129239500Y-122983600D01*
G75*
G02*
X129341100Y-122882000I101600J0D01*
G01*
X131341100Y-122882000D01*
G75*
G02*
X131442700Y-122983600I0J-101600D01*
G01*
G37*
G36*
G01*
X131442700Y-124253600D02*
X131442700Y-125153600D01*
G75*
G02*
X131341100Y-125255200I-101600J0D01*
G01*
X129341100Y-125255200D01*
G75*
G02*
X129239500Y-125153600I0J101600D01*
G01*
X129239500Y-124253600D01*
G75*
G02*
X129341100Y-124152000I101600J0D01*
G01*
X131341100Y-124152000D01*
G75*
G02*
X131442700Y-124253600I0J-101600D01*
G01*
G37*
%TD*%
%TO.C,K1*%
G36*
G01*
X190835500Y-94927600D02*
X190835500Y-93419600D01*
G75*
G02*
X190937100Y-93318000I101600J0D01*
G01*
X192445100Y-93318000D01*
G75*
G02*
X192546700Y-93419600I0J-101600D01*
G01*
X192546700Y-94927600D01*
G75*
G02*
X192445100Y-95029200I-101600J0D01*
G01*
X190937100Y-95029200D01*
G75*
G02*
X190835500Y-94927600I0J101600D01*
G01*
G37*
D11*
X184071100Y-94173600D03*
X173911100Y-94173600D03*
X171371100Y-94173600D03*
%TD*%
D12*
%TO.C,U$1*%
X138861100Y-102183600D03*
X141401100Y-102183600D03*
X143941100Y-102183600D03*
%TD*%
D13*
%TO.C,SSR_0*%
X206931100Y-83923600D03*
X206931100Y-88923600D03*
%TD*%
%TO.C,SSR_IN1*%
X189111100Y-82613600D03*
X184111100Y-82613600D03*
%TD*%
D14*
%TO.C,F1*%
X198041100Y-97853600D03*
X187881100Y-97853600D03*
%TD*%
D15*
%TO.C,EN1*%
X109141100Y-115633600D03*
X109141100Y-113093600D03*
%TD*%
%TO.C,R6*%
G36*
G01*
X121069500Y-97583600D02*
X121069500Y-95583600D01*
G75*
G02*
X121171100Y-95482000I101600J0D01*
G01*
X122771100Y-95482000D01*
G75*
G02*
X122872700Y-95583600I0J-101600D01*
G01*
X122872700Y-97583600D01*
G75*
G02*
X122771100Y-97685200I-101600J0D01*
G01*
X121171100Y-97685200D01*
G75*
G02*
X121069500Y-97583600I0J101600D01*
G01*
G37*
G36*
G01*
X118269500Y-97583600D02*
X118269500Y-95583600D01*
G75*
G02*
X118371100Y-95482000I101600J0D01*
G01*
X119971100Y-95482000D01*
G75*
G02*
X120072700Y-95583600I0J-101600D01*
G01*
X120072700Y-97583600D01*
G75*
G02*
X119971100Y-97685200I-101600J0D01*
G01*
X118371100Y-97685200D01*
G75*
G02*
X118269500Y-97583600I0J101600D01*
G01*
G37*
%TD*%
D16*
%TO.C,BOOT1*%
X121841100Y-100393600D03*
X119301100Y-100393600D03*
%TD*%
%TO.C,T4*%
G36*
G01*
X155849500Y-93303601D02*
X155849500Y-91903599D01*
G75*
G02*
X155951099Y-91802000I101599J0D01*
G01*
X156951101Y-91802000D01*
G75*
G02*
X157052700Y-91903599I0J-101599D01*
G01*
X157052700Y-93303601D01*
G75*
G02*
X156951101Y-93405200I-101599J0D01*
G01*
X155951099Y-93405200D01*
G75*
G02*
X155849500Y-93303601I0J101599D01*
G01*
G37*
G36*
G01*
X157749500Y-93303601D02*
X157749500Y-91903599D01*
G75*
G02*
X157851099Y-91802000I101599J0D01*
G01*
X158851101Y-91802000D01*
G75*
G02*
X158952700Y-91903599I0J-101599D01*
G01*
X158952700Y-93303601D01*
G75*
G02*
X158851101Y-93405200I-101599J0D01*
G01*
X157851099Y-93405200D01*
G75*
G02*
X157749500Y-93303601I0J101599D01*
G01*
G37*
G36*
G01*
X156799500Y-91103601D02*
X156799500Y-89703599D01*
G75*
G02*
X156901099Y-89602000I101599J0D01*
G01*
X157901101Y-89602000D01*
G75*
G02*
X158002700Y-89703599I0J-101599D01*
G01*
X158002700Y-91103601D01*
G75*
G02*
X157901101Y-91205200I-101599J0D01*
G01*
X156901099Y-91205200D01*
G75*
G02*
X156799500Y-91103601I0J101599D01*
G01*
G37*
%TD*%
%TO.C,R9*%
G36*
G01*
X159724700Y-95682100D02*
X159724700Y-97485100D01*
G75*
G02*
X159623100Y-97586700I-101600J0D01*
G01*
X158023100Y-97586700D01*
G75*
G02*
X157921500Y-97485100I0J101600D01*
G01*
X157921500Y-95682100D01*
G75*
G02*
X158023100Y-95580500I101600J0D01*
G01*
X159623100Y-95580500D01*
G75*
G02*
X159724700Y-95682100I0J-101600D01*
G01*
G37*
G36*
G01*
X156880700Y-95682100D02*
X156880700Y-97485100D01*
G75*
G02*
X156779100Y-97586700I-101600J0D01*
G01*
X155179100Y-97586700D01*
G75*
G02*
X155077500Y-97485100I0J101600D01*
G01*
X155077500Y-95682100D01*
G75*
G02*
X155179100Y-95580500I101600J0D01*
G01*
X156779100Y-95580500D01*
G75*
G02*
X156880700Y-95682100I0J-101600D01*
G01*
G37*
%TD*%
%TO.C,R10*%
G36*
G01*
X152689600Y-92990000D02*
X154492600Y-92990000D01*
G75*
G02*
X154594200Y-93091600I0J-101600D01*
G01*
X154594200Y-94691600D01*
G75*
G02*
X154492600Y-94793200I-101600J0D01*
G01*
X152689600Y-94793200D01*
G75*
G02*
X152588000Y-94691600I0J101600D01*
G01*
X152588000Y-93091600D01*
G75*
G02*
X152689600Y-92990000I101600J0D01*
G01*
G37*
G36*
G01*
X152689600Y-95834000D02*
X154492600Y-95834000D01*
G75*
G02*
X154594200Y-95935600I0J-101600D01*
G01*
X154594200Y-97535600D01*
G75*
G02*
X154492600Y-97637200I-101600J0D01*
G01*
X152689600Y-97637200D01*
G75*
G02*
X152588000Y-97535600I0J101600D01*
G01*
X152588000Y-95935600D01*
G75*
G02*
X152689600Y-95834000I101600J0D01*
G01*
G37*
%TD*%
D17*
%TO.C,C1*%
X138351100Y-113093600D03*
X143431100Y-113093600D03*
%TD*%
%TO.C,LED4*%
G36*
G01*
X161629500Y-94003600D02*
X161629500Y-92503600D01*
G75*
G02*
X161731100Y-92402000I101600J0D01*
G01*
X163231100Y-92402000D01*
G75*
G02*
X163332700Y-92503600I0J-101600D01*
G01*
X163332700Y-94003600D01*
G75*
G02*
X163231100Y-94105200I-101600J0D01*
G01*
X161731100Y-94105200D01*
G75*
G02*
X161629500Y-94003600I0J101600D01*
G01*
G37*
G36*
G01*
X161629500Y-90503600D02*
X161629500Y-89003600D01*
G75*
G02*
X161731100Y-88902000I101600J0D01*
G01*
X163231100Y-88902000D01*
G75*
G02*
X163332700Y-89003600I0J-101600D01*
G01*
X163332700Y-90503600D01*
G75*
G02*
X163231100Y-90605200I-101600J0D01*
G01*
X161731100Y-90605200D01*
G75*
G02*
X161629500Y-90503600I0J101600D01*
G01*
G37*
%TD*%
%TO.C,R11*%
G36*
G01*
X161427500Y-97485100D02*
X161427500Y-95682100D01*
G75*
G02*
X161529100Y-95580500I101600J0D01*
G01*
X163129100Y-95580500D01*
G75*
G02*
X163230700Y-95682100I0J-101600D01*
G01*
X163230700Y-97485100D01*
G75*
G02*
X163129100Y-97586700I-101600J0D01*
G01*
X161529100Y-97586700D01*
G75*
G02*
X161427500Y-97485100I0J101600D01*
G01*
G37*
G36*
G01*
X164271500Y-97485100D02*
X164271500Y-95682100D01*
G75*
G02*
X164373100Y-95580500I101600J0D01*
G01*
X165973100Y-95580500D01*
G75*
G02*
X166074700Y-95682100I0J-101600D01*
G01*
X166074700Y-97485100D01*
G75*
G02*
X165973100Y-97586700I-101600J0D01*
G01*
X164373100Y-97586700D01*
G75*
G02*
X164271500Y-97485100I0J101600D01*
G01*
G37*
%TD*%
%TO.C,K2*%
G36*
G01*
X190835500Y-105087600D02*
X190835500Y-103579600D01*
G75*
G02*
X190937100Y-103478000I101600J0D01*
G01*
X192445100Y-103478000D01*
G75*
G02*
X192546700Y-103579600I0J-101600D01*
G01*
X192546700Y-105087600D01*
G75*
G02*
X192445100Y-105189200I-101600J0D01*
G01*
X190937100Y-105189200D01*
G75*
G02*
X190835500Y-105087600I0J101600D01*
G01*
G37*
D11*
X184071100Y-104333600D03*
X173911100Y-104333600D03*
X171371100Y-104333600D03*
%TD*%
D13*
%TO.C,SSR_1*%
X206931100Y-96623600D03*
X206931100Y-101623600D03*
%TD*%
D14*
%TO.C,F2*%
X198041100Y-108013600D03*
X187881100Y-108013600D03*
%TD*%
%TO.C,T1*%
G36*
G01*
X155849500Y-103463601D02*
X155849500Y-102063599D01*
G75*
G02*
X155951099Y-101962000I101599J0D01*
G01*
X156951101Y-101962000D01*
G75*
G02*
X157052700Y-102063599I0J-101599D01*
G01*
X157052700Y-103463601D01*
G75*
G02*
X156951101Y-103565200I-101599J0D01*
G01*
X155951099Y-103565200D01*
G75*
G02*
X155849500Y-103463601I0J101599D01*
G01*
G37*
G36*
G01*
X157749500Y-103463601D02*
X157749500Y-102063599D01*
G75*
G02*
X157851099Y-101962000I101599J0D01*
G01*
X158851101Y-101962000D01*
G75*
G02*
X158952700Y-102063599I0J-101599D01*
G01*
X158952700Y-103463601D01*
G75*
G02*
X158851101Y-103565200I-101599J0D01*
G01*
X157851099Y-103565200D01*
G75*
G02*
X157749500Y-103463601I0J101599D01*
G01*
G37*
G36*
G01*
X156799500Y-101263601D02*
X156799500Y-99863599D01*
G75*
G02*
X156901099Y-99762000I101599J0D01*
G01*
X157901101Y-99762000D01*
G75*
G02*
X158002700Y-99863599I0J-101599D01*
G01*
X158002700Y-101263601D01*
G75*
G02*
X157901101Y-101365200I-101599J0D01*
G01*
X156901099Y-101365200D01*
G75*
G02*
X156799500Y-101263601I0J101599D01*
G01*
G37*
%TD*%
%TO.C,R1*%
G36*
G01*
X159724700Y-105842100D02*
X159724700Y-107645100D01*
G75*
G02*
X159623100Y-107746700I-101600J0D01*
G01*
X158023100Y-107746700D01*
G75*
G02*
X157921500Y-107645100I0J101600D01*
G01*
X157921500Y-105842100D01*
G75*
G02*
X158023100Y-105740500I101600J0D01*
G01*
X159623100Y-105740500D01*
G75*
G02*
X159724700Y-105842100I0J-101600D01*
G01*
G37*
G36*
G01*
X156880700Y-105842100D02*
X156880700Y-107645100D01*
G75*
G02*
X156779100Y-107746700I-101600J0D01*
G01*
X155179100Y-107746700D01*
G75*
G02*
X155077500Y-107645100I0J101600D01*
G01*
X155077500Y-105842100D01*
G75*
G02*
X155179100Y-105740500I101600J0D01*
G01*
X156779100Y-105740500D01*
G75*
G02*
X156880700Y-105842100I0J-101600D01*
G01*
G37*
%TD*%
%TO.C,R2*%
G36*
G01*
X152689600Y-103150000D02*
X154492600Y-103150000D01*
G75*
G02*
X154594200Y-103251600I0J-101600D01*
G01*
X154594200Y-104851600D01*
G75*
G02*
X154492600Y-104953200I-101600J0D01*
G01*
X152689600Y-104953200D01*
G75*
G02*
X152588000Y-104851600I0J101600D01*
G01*
X152588000Y-103251600D01*
G75*
G02*
X152689600Y-103150000I101600J0D01*
G01*
G37*
G36*
G01*
X152689600Y-105994000D02*
X154492600Y-105994000D01*
G75*
G02*
X154594200Y-106095600I0J-101600D01*
G01*
X154594200Y-107695600D01*
G75*
G02*
X154492600Y-107797200I-101600J0D01*
G01*
X152689600Y-107797200D01*
G75*
G02*
X152588000Y-107695600I0J101600D01*
G01*
X152588000Y-106095600D01*
G75*
G02*
X152689600Y-105994000I101600J0D01*
G01*
G37*
%TD*%
%TO.C,LED1*%
G36*
G01*
X161629500Y-104163600D02*
X161629500Y-102663600D01*
G75*
G02*
X161731100Y-102562000I101600J0D01*
G01*
X163231100Y-102562000D01*
G75*
G02*
X163332700Y-102663600I0J-101600D01*
G01*
X163332700Y-104163600D01*
G75*
G02*
X163231100Y-104265200I-101600J0D01*
G01*
X161731100Y-104265200D01*
G75*
G02*
X161629500Y-104163600I0J101600D01*
G01*
G37*
G36*
G01*
X161629500Y-100663600D02*
X161629500Y-99163600D01*
G75*
G02*
X161731100Y-99062000I101600J0D01*
G01*
X163231100Y-99062000D01*
G75*
G02*
X163332700Y-99163600I0J-101600D01*
G01*
X163332700Y-100663600D01*
G75*
G02*
X163231100Y-100765200I-101600J0D01*
G01*
X161731100Y-100765200D01*
G75*
G02*
X161629500Y-100663600I0J101600D01*
G01*
G37*
%TD*%
%TO.C,R3*%
G36*
G01*
X161427500Y-107645100D02*
X161427500Y-105842100D01*
G75*
G02*
X161529100Y-105740500I101600J0D01*
G01*
X163129100Y-105740500D01*
G75*
G02*
X163230700Y-105842100I0J-101600D01*
G01*
X163230700Y-107645100D01*
G75*
G02*
X163129100Y-107746700I-101600J0D01*
G01*
X161529100Y-107746700D01*
G75*
G02*
X161427500Y-107645100I0J101600D01*
G01*
G37*
G36*
G01*
X164271500Y-107645100D02*
X164271500Y-105842100D01*
G75*
G02*
X164373100Y-105740500I101600J0D01*
G01*
X165973100Y-105740500D01*
G75*
G02*
X166074700Y-105842100I0J-101600D01*
G01*
X166074700Y-107645100D01*
G75*
G02*
X165973100Y-107746700I-101600J0D01*
G01*
X164373100Y-107746700D01*
G75*
G02*
X164271500Y-107645100I0J101600D01*
G01*
G37*
%TD*%
%TO.C,K3*%
G36*
G01*
X190835500Y-115247600D02*
X190835500Y-113739600D01*
G75*
G02*
X190937100Y-113638000I101600J0D01*
G01*
X192445100Y-113638000D01*
G75*
G02*
X192546700Y-113739600I0J-101600D01*
G01*
X192546700Y-115247600D01*
G75*
G02*
X192445100Y-115349200I-101600J0D01*
G01*
X190937100Y-115349200D01*
G75*
G02*
X190835500Y-115247600I0J101600D01*
G01*
G37*
D11*
X184071100Y-114493600D03*
X173911100Y-114493600D03*
X171371100Y-114493600D03*
%TD*%
D13*
%TO.C,SSR_2*%
X206931100Y-109323600D03*
X206931100Y-114323600D03*
%TD*%
D14*
%TO.C,F3*%
X198041100Y-118173600D03*
X187881100Y-118173600D03*
%TD*%
%TO.C,T2*%
G36*
G01*
X155849500Y-113623601D02*
X155849500Y-112223599D01*
G75*
G02*
X155951099Y-112122000I101599J0D01*
G01*
X156951101Y-112122000D01*
G75*
G02*
X157052700Y-112223599I0J-101599D01*
G01*
X157052700Y-113623601D01*
G75*
G02*
X156951101Y-113725200I-101599J0D01*
G01*
X155951099Y-113725200D01*
G75*
G02*
X155849500Y-113623601I0J101599D01*
G01*
G37*
G36*
G01*
X157749500Y-113623601D02*
X157749500Y-112223599D01*
G75*
G02*
X157851099Y-112122000I101599J0D01*
G01*
X158851101Y-112122000D01*
G75*
G02*
X158952700Y-112223599I0J-101599D01*
G01*
X158952700Y-113623601D01*
G75*
G02*
X158851101Y-113725200I-101599J0D01*
G01*
X157851099Y-113725200D01*
G75*
G02*
X157749500Y-113623601I0J101599D01*
G01*
G37*
G36*
G01*
X156799500Y-111423601D02*
X156799500Y-110023599D01*
G75*
G02*
X156901099Y-109922000I101599J0D01*
G01*
X157901101Y-109922000D01*
G75*
G02*
X158002700Y-110023599I0J-101599D01*
G01*
X158002700Y-111423601D01*
G75*
G02*
X157901101Y-111525200I-101599J0D01*
G01*
X156901099Y-111525200D01*
G75*
G02*
X156799500Y-111423601I0J101599D01*
G01*
G37*
%TD*%
%TO.C,R4*%
G36*
G01*
X159724700Y-116002100D02*
X159724700Y-117805100D01*
G75*
G02*
X159623100Y-117906700I-101600J0D01*
G01*
X158023100Y-117906700D01*
G75*
G02*
X157921500Y-117805100I0J101600D01*
G01*
X157921500Y-116002100D01*
G75*
G02*
X158023100Y-115900500I101600J0D01*
G01*
X159623100Y-115900500D01*
G75*
G02*
X159724700Y-116002100I0J-101600D01*
G01*
G37*
G36*
G01*
X156880700Y-116002100D02*
X156880700Y-117805100D01*
G75*
G02*
X156779100Y-117906700I-101600J0D01*
G01*
X155179100Y-117906700D01*
G75*
G02*
X155077500Y-117805100I0J101600D01*
G01*
X155077500Y-116002100D01*
G75*
G02*
X155179100Y-115900500I101600J0D01*
G01*
X156779100Y-115900500D01*
G75*
G02*
X156880700Y-116002100I0J-101600D01*
G01*
G37*
%TD*%
%TO.C,R7*%
G36*
G01*
X152689600Y-113310000D02*
X154492600Y-113310000D01*
G75*
G02*
X154594200Y-113411600I0J-101600D01*
G01*
X154594200Y-115011600D01*
G75*
G02*
X154492600Y-115113200I-101600J0D01*
G01*
X152689600Y-115113200D01*
G75*
G02*
X152588000Y-115011600I0J101600D01*
G01*
X152588000Y-113411600D01*
G75*
G02*
X152689600Y-113310000I101600J0D01*
G01*
G37*
G36*
G01*
X152689600Y-116154000D02*
X154492600Y-116154000D01*
G75*
G02*
X154594200Y-116255600I0J-101600D01*
G01*
X154594200Y-117855600D01*
G75*
G02*
X154492600Y-117957200I-101600J0D01*
G01*
X152689600Y-117957200D01*
G75*
G02*
X152588000Y-117855600I0J101600D01*
G01*
X152588000Y-116255600D01*
G75*
G02*
X152689600Y-116154000I101600J0D01*
G01*
G37*
%TD*%
%TO.C,LED2*%
G36*
G01*
X161629500Y-114323600D02*
X161629500Y-112823600D01*
G75*
G02*
X161731100Y-112722000I101600J0D01*
G01*
X163231100Y-112722000D01*
G75*
G02*
X163332700Y-112823600I0J-101600D01*
G01*
X163332700Y-114323600D01*
G75*
G02*
X163231100Y-114425200I-101600J0D01*
G01*
X161731100Y-114425200D01*
G75*
G02*
X161629500Y-114323600I0J101600D01*
G01*
G37*
G36*
G01*
X161629500Y-110823600D02*
X161629500Y-109323600D01*
G75*
G02*
X161731100Y-109222000I101600J0D01*
G01*
X163231100Y-109222000D01*
G75*
G02*
X163332700Y-109323600I0J-101600D01*
G01*
X163332700Y-110823600D01*
G75*
G02*
X163231100Y-110925200I-101600J0D01*
G01*
X161731100Y-110925200D01*
G75*
G02*
X161629500Y-110823600I0J101600D01*
G01*
G37*
%TD*%
%TO.C,R8*%
G36*
G01*
X161427500Y-117805100D02*
X161427500Y-116002100D01*
G75*
G02*
X161529100Y-115900500I101600J0D01*
G01*
X163129100Y-115900500D01*
G75*
G02*
X163230700Y-116002100I0J-101600D01*
G01*
X163230700Y-117805100D01*
G75*
G02*
X163129100Y-117906700I-101600J0D01*
G01*
X161529100Y-117906700D01*
G75*
G02*
X161427500Y-117805100I0J101600D01*
G01*
G37*
G36*
G01*
X164271500Y-117805100D02*
X164271500Y-116002100D01*
G75*
G02*
X164373100Y-115900500I101600J0D01*
G01*
X165973100Y-115900500D01*
G75*
G02*
X166074700Y-116002100I0J-101600D01*
G01*
X166074700Y-117805100D01*
G75*
G02*
X165973100Y-117906700I-101600J0D01*
G01*
X164373100Y-117906700D01*
G75*
G02*
X164271500Y-117805100I0J101600D01*
G01*
G37*
%TD*%
%TO.C,K4*%
G36*
G01*
X190835500Y-125407600D02*
X190835500Y-123899600D01*
G75*
G02*
X190937100Y-123798000I101600J0D01*
G01*
X192445100Y-123798000D01*
G75*
G02*
X192546700Y-123899600I0J-101600D01*
G01*
X192546700Y-125407600D01*
G75*
G02*
X192445100Y-125509200I-101600J0D01*
G01*
X190937100Y-125509200D01*
G75*
G02*
X190835500Y-125407600I0J101600D01*
G01*
G37*
D11*
X184071100Y-124653600D03*
X173911100Y-124653600D03*
X171371100Y-124653600D03*
%TD*%
D13*
%TO.C,SSR_3*%
X206931100Y-122023600D03*
X206931100Y-127023600D03*
%TD*%
D14*
%TO.C,F4*%
X198041100Y-128333600D03*
X187881100Y-128333600D03*
%TD*%
%TO.C,T3*%
G36*
G01*
X155849500Y-123783601D02*
X155849500Y-122383599D01*
G75*
G02*
X155951099Y-122282000I101599J0D01*
G01*
X156951101Y-122282000D01*
G75*
G02*
X157052700Y-122383599I0J-101599D01*
G01*
X157052700Y-123783601D01*
G75*
G02*
X156951101Y-123885200I-101599J0D01*
G01*
X155951099Y-123885200D01*
G75*
G02*
X155849500Y-123783601I0J101599D01*
G01*
G37*
G36*
G01*
X157749500Y-123783601D02*
X157749500Y-122383599D01*
G75*
G02*
X157851099Y-122282000I101599J0D01*
G01*
X158851101Y-122282000D01*
G75*
G02*
X158952700Y-122383599I0J-101599D01*
G01*
X158952700Y-123783601D01*
G75*
G02*
X158851101Y-123885200I-101599J0D01*
G01*
X157851099Y-123885200D01*
G75*
G02*
X157749500Y-123783601I0J101599D01*
G01*
G37*
G36*
G01*
X156799500Y-121583601D02*
X156799500Y-120183599D01*
G75*
G02*
X156901099Y-120082000I101599J0D01*
G01*
X157901101Y-120082000D01*
G75*
G02*
X158002700Y-120183599I0J-101599D01*
G01*
X158002700Y-121583601D01*
G75*
G02*
X157901101Y-121685200I-101599J0D01*
G01*
X156901099Y-121685200D01*
G75*
G02*
X156799500Y-121583601I0J101599D01*
G01*
G37*
%TD*%
%TO.C,R12*%
G36*
G01*
X159724700Y-126162100D02*
X159724700Y-127965100D01*
G75*
G02*
X159623100Y-128066700I-101600J0D01*
G01*
X158023100Y-128066700D01*
G75*
G02*
X157921500Y-127965100I0J101600D01*
G01*
X157921500Y-126162100D01*
G75*
G02*
X158023100Y-126060500I101600J0D01*
G01*
X159623100Y-126060500D01*
G75*
G02*
X159724700Y-126162100I0J-101600D01*
G01*
G37*
G36*
G01*
X156880700Y-126162100D02*
X156880700Y-127965100D01*
G75*
G02*
X156779100Y-128066700I-101600J0D01*
G01*
X155179100Y-128066700D01*
G75*
G02*
X155077500Y-127965100I0J101600D01*
G01*
X155077500Y-126162100D01*
G75*
G02*
X155179100Y-126060500I101600J0D01*
G01*
X156779100Y-126060500D01*
G75*
G02*
X156880700Y-126162100I0J-101600D01*
G01*
G37*
%TD*%
%TO.C,R13*%
G36*
G01*
X152689600Y-123470000D02*
X154492600Y-123470000D01*
G75*
G02*
X154594200Y-123571600I0J-101600D01*
G01*
X154594200Y-125171600D01*
G75*
G02*
X154492600Y-125273200I-101600J0D01*
G01*
X152689600Y-125273200D01*
G75*
G02*
X152588000Y-125171600I0J101600D01*
G01*
X152588000Y-123571600D01*
G75*
G02*
X152689600Y-123470000I101600J0D01*
G01*
G37*
G36*
G01*
X152689600Y-126314000D02*
X154492600Y-126314000D01*
G75*
G02*
X154594200Y-126415600I0J-101600D01*
G01*
X154594200Y-128015600D01*
G75*
G02*
X154492600Y-128117200I-101600J0D01*
G01*
X152689600Y-128117200D01*
G75*
G02*
X152588000Y-128015600I0J101600D01*
G01*
X152588000Y-126415600D01*
G75*
G02*
X152689600Y-126314000I101600J0D01*
G01*
G37*
%TD*%
%TO.C,LED3*%
G36*
G01*
X161629500Y-124483600D02*
X161629500Y-122983600D01*
G75*
G02*
X161731100Y-122882000I101600J0D01*
G01*
X163231100Y-122882000D01*
G75*
G02*
X163332700Y-122983600I0J-101600D01*
G01*
X163332700Y-124483600D01*
G75*
G02*
X163231100Y-124585200I-101600J0D01*
G01*
X161731100Y-124585200D01*
G75*
G02*
X161629500Y-124483600I0J101600D01*
G01*
G37*
G36*
G01*
X161629500Y-120983600D02*
X161629500Y-119483600D01*
G75*
G02*
X161731100Y-119382000I101600J0D01*
G01*
X163231100Y-119382000D01*
G75*
G02*
X163332700Y-119483600I0J-101600D01*
G01*
X163332700Y-120983600D01*
G75*
G02*
X163231100Y-121085200I-101600J0D01*
G01*
X161731100Y-121085200D01*
G75*
G02*
X161629500Y-120983600I0J101600D01*
G01*
G37*
%TD*%
%TO.C,R14*%
G36*
G01*
X161427500Y-127965100D02*
X161427500Y-126162100D01*
G75*
G02*
X161529100Y-126060500I101600J0D01*
G01*
X163129100Y-126060500D01*
G75*
G02*
X163230700Y-126162100I0J-101600D01*
G01*
X163230700Y-127965100D01*
G75*
G02*
X163129100Y-128066700I-101600J0D01*
G01*
X161529100Y-128066700D01*
G75*
G02*
X161427500Y-127965100I0J101600D01*
G01*
G37*
G36*
G01*
X164271500Y-127965100D02*
X164271500Y-126162100D01*
G75*
G02*
X164373100Y-126060500I101600J0D01*
G01*
X165973100Y-126060500D01*
G75*
G02*
X166074700Y-126162100I0J-101600D01*
G01*
X166074700Y-127965100D01*
G75*
G02*
X165973100Y-128066700I-101600J0D01*
G01*
X164373100Y-128066700D01*
G75*
G02*
X164271500Y-127965100I0J101600D01*
G01*
G37*
%TD*%
%TO.C,U2*%
G36*
G01*
X135649210Y-124975200D02*
X134362990Y-124975200D01*
G75*
G02*
X134249500Y-124861710I0J113490D01*
G01*
X134249500Y-121645490D01*
G75*
G02*
X134362990Y-121532000I113490J0D01*
G01*
X135649210Y-121532000D01*
G75*
G02*
X135762700Y-121645490I0J-113490D01*
G01*
X135762700Y-124861710D01*
G75*
G02*
X135649210Y-124975200I-113490J0D01*
G01*
G37*
G36*
G01*
X142367710Y-121530200D02*
X141024490Y-121530200D01*
G75*
G02*
X140939500Y-121445210I0J84990D01*
G01*
X140939500Y-120481990D01*
G75*
G02*
X141024490Y-120397000I84990J0D01*
G01*
X142367710Y-120397000D01*
G75*
G02*
X142452700Y-120481990I0J-84990D01*
G01*
X142452700Y-121445210D01*
G75*
G02*
X142367710Y-121530200I-84990J0D01*
G01*
G37*
G36*
G01*
X142367710Y-123820200D02*
X141024490Y-123820200D01*
G75*
G02*
X140939500Y-123735210I0J84990D01*
G01*
X140939500Y-122771990D01*
G75*
G02*
X141024490Y-122687000I84990J0D01*
G01*
X142367710Y-122687000D01*
G75*
G02*
X142452700Y-122771990I0J-84990D01*
G01*
X142452700Y-123735210D01*
G75*
G02*
X142367710Y-123820200I-84990J0D01*
G01*
G37*
G36*
G01*
X142367710Y-126110200D02*
X141024490Y-126110200D01*
G75*
G02*
X140939500Y-126025210I0J84990D01*
G01*
X140939500Y-125061990D01*
G75*
G02*
X141024490Y-124977000I84990J0D01*
G01*
X142367710Y-124977000D01*
G75*
G02*
X142452700Y-125061990I0J-84990D01*
G01*
X142452700Y-126025210D01*
G75*
G02*
X142367710Y-126110200I-84990J0D01*
G01*
G37*
%TD*%
%TO.C,C2*%
G36*
G01*
X145399600Y-123723500D02*
X146847400Y-123723500D01*
G75*
G02*
X146949000Y-123825100I0J-101600D01*
G01*
X146949000Y-125222100D01*
G75*
G02*
X146847400Y-125323700I-101600J0D01*
G01*
X145399600Y-125323700D01*
G75*
G02*
X145298000Y-125222100I0J101600D01*
G01*
X145298000Y-123825100D01*
G75*
G02*
X145399600Y-123723500I101600J0D01*
G01*
G37*
G36*
G01*
X147634800Y-123723500D02*
X149082600Y-123723500D01*
G75*
G02*
X149184200Y-123825100I0J-101600D01*
G01*
X149184200Y-125222100D01*
G75*
G02*
X149082600Y-125323700I-101600J0D01*
G01*
X147634800Y-125323700D01*
G75*
G02*
X147533200Y-125222100I0J101600D01*
G01*
X147533200Y-123825100D01*
G75*
G02*
X147634800Y-123723500I101600J0D01*
G01*
G37*
%TD*%
%TO.C,C3*%
G36*
G01*
X147739500Y-121613600D02*
X147739500Y-119813600D01*
G75*
G02*
X147841100Y-119712000I101600J0D01*
G01*
X149441100Y-119712000D01*
G75*
G02*
X149542700Y-119813600I0J-101600D01*
G01*
X149542700Y-121613600D01*
G75*
G02*
X149441100Y-121715200I-101600J0D01*
G01*
X147841100Y-121715200D01*
G75*
G02*
X147739500Y-121613600I0J101600D01*
G01*
G37*
G36*
G01*
X144939500Y-121613600D02*
X144939500Y-119813600D01*
G75*
G02*
X145041100Y-119712000I101600J0D01*
G01*
X146641100Y-119712000D01*
G75*
G02*
X146742700Y-119813600I0J-101600D01*
G01*
X146742700Y-121613600D01*
G75*
G02*
X146641100Y-121715200I-101600J0D01*
G01*
X145041100Y-121715200D01*
G75*
G02*
X144939500Y-121613600I0J101600D01*
G01*
G37*
%TD*%
D18*
%TO.C,X1*%
X165021100Y-81343600D03*
X165021100Y-83883600D03*
%TD*%
%TO.C,X2*%
X157401100Y-81343600D03*
X157401100Y-83883600D03*
%TD*%
%TO.C,X3*%
X149781100Y-81343600D03*
X149781100Y-83883600D03*
%TD*%
%TO.C,+12V-1*%
X142161100Y-81343600D03*
X142161100Y-83883600D03*
%TD*%
D19*
%TO.C,I2C1*%
X104061100Y-104203600D03*
X101521100Y-104203600D03*
X98981100Y-104203600D03*
X96441100Y-104203600D03*
%TD*%
%TO.C,X6*%
X104061100Y-111823600D03*
X101521100Y-111823600D03*
X98981100Y-111823600D03*
X96441100Y-111823600D03*
%TD*%
%TO.C,X7*%
X104061100Y-119443600D03*
X101521100Y-119443600D03*
X98981100Y-119443600D03*
X96441100Y-119443600D03*
%TD*%
%TO.C,X8*%
X104061100Y-127063600D03*
X101521100Y-127063600D03*
X98981100Y-127063600D03*
X96441100Y-127063600D03*
%TD*%
D18*
%TO.C,A0*%
X128191100Y-83883600D03*
X128191100Y-86423600D03*
X128191100Y-88963600D03*
X128191100Y-91503600D03*
%TD*%
%TO.C,A1*%
X120571100Y-91503600D03*
X120571100Y-88963600D03*
X120571100Y-86423600D03*
X120571100Y-83883600D03*
%TD*%
D16*
%TO.C,CON0_5V1*%
X139621100Y-94043600D03*
X142161100Y-94043600D03*
%TD*%
%TO.C,-5V+1*%
X139621100Y-90233600D03*
X142161100Y-90233600D03*
%TD*%
%TO.C,R19*%
G36*
G01*
X113722700Y-95583600D02*
X113722700Y-97583600D01*
G75*
G02*
X113621100Y-97685200I-101600J0D01*
G01*
X112021100Y-97685200D01*
G75*
G02*
X111919500Y-97583600I0J101600D01*
G01*
X111919500Y-95583600D01*
G75*
G02*
X112021100Y-95482000I101600J0D01*
G01*
X113621100Y-95482000D01*
G75*
G02*
X113722700Y-95583600I0J-101600D01*
G01*
G37*
G36*
G01*
X116522700Y-95583600D02*
X116522700Y-97583600D01*
G75*
G02*
X116421100Y-97685200I-101600J0D01*
G01*
X114821100Y-97685200D01*
G75*
G02*
X114719500Y-97583600I0J101600D01*
G01*
X114719500Y-95583600D01*
G75*
G02*
X114821100Y-95482000I101600J0D01*
G01*
X116421100Y-95482000D01*
G75*
G02*
X116522700Y-95583600I0J-101600D01*
G01*
G37*
%TD*%
%TO.C,OTA1*%
X112951100Y-100393600D03*
X115491100Y-100393600D03*
%TD*%
%TO.C,D1*%
G36*
G01*
X131492700Y-95753599D02*
X131492700Y-96753601D01*
G75*
G02*
X131391101Y-96855200I-101599J0D01*
G01*
X129891099Y-96855200D01*
G75*
G02*
X129789500Y-96753601I0J101599D01*
G01*
X129789500Y-95753599D01*
G75*
G02*
X129891099Y-95652000I101599J0D01*
G01*
X131391101Y-95652000D01*
G75*
G02*
X131492700Y-95753599I0J-101599D01*
G01*
G37*
G36*
G01*
X131492700Y-97353599D02*
X131492700Y-98353601D01*
G75*
G02*
X131391101Y-98455200I-101599J0D01*
G01*
X129891099Y-98455200D01*
G75*
G02*
X129789500Y-98353601I0J101599D01*
G01*
X129789500Y-97353599D01*
G75*
G02*
X129891099Y-97252000I101599J0D01*
G01*
X131391101Y-97252000D01*
G75*
G02*
X131492700Y-97353599I0J-101599D01*
G01*
G37*
G36*
G01*
X131492700Y-98953599D02*
X131492700Y-99953601D01*
G75*
G02*
X131391101Y-100055200I-101599J0D01*
G01*
X129891099Y-100055200D01*
G75*
G02*
X129789500Y-99953601I0J101599D01*
G01*
X129789500Y-98953599D01*
G75*
G02*
X129891099Y-98852000I101599J0D01*
G01*
X131391101Y-98852000D01*
G75*
G02*
X131492700Y-98953599I0J-101599D01*
G01*
G37*
G36*
G01*
X124889500Y-99953601D02*
X124889500Y-98953599D01*
G75*
G02*
X124991099Y-98852000I101599J0D01*
G01*
X126491101Y-98852000D01*
G75*
G02*
X126592700Y-98953599I0J-101599D01*
G01*
X126592700Y-99953601D01*
G75*
G02*
X126491101Y-100055200I-101599J0D01*
G01*
X124991099Y-100055200D01*
G75*
G02*
X124889500Y-99953601I0J101599D01*
G01*
G37*
G36*
G01*
X124889500Y-98353601D02*
X124889500Y-97353599D01*
G75*
G02*
X124991099Y-97252000I101599J0D01*
G01*
X126491101Y-97252000D01*
G75*
G02*
X126592700Y-97353599I0J-101599D01*
G01*
X126592700Y-98353601D01*
G75*
G02*
X126491101Y-98455200I-101599J0D01*
G01*
X124991099Y-98455200D01*
G75*
G02*
X124889500Y-98353601I0J101599D01*
G01*
G37*
G36*
G01*
X124889500Y-96753601D02*
X124889500Y-95753599D01*
G75*
G02*
X124991099Y-95652000I101599J0D01*
G01*
X126491101Y-95652000D01*
G75*
G02*
X126592700Y-95753599I0J-101599D01*
G01*
X126592700Y-96753601D01*
G75*
G02*
X126491101Y-96855200I-101599J0D01*
G01*
X124991099Y-96855200D01*
G75*
G02*
X124889500Y-96753601I0J101599D01*
G01*
G37*
%TD*%
%TO.C,U$2*%
G36*
G01*
X93565650Y-90100300D02*
X92966550Y-90100300D01*
G75*
G02*
X92864950Y-89998700I0J101600D01*
G01*
X92864950Y-88097700D01*
G75*
G02*
X92966550Y-87996100I101600J0D01*
G01*
X93565650Y-87996100D01*
G75*
G02*
X93667250Y-88097700I0J-101600D01*
G01*
X93667250Y-89998700D01*
G75*
G02*
X93565650Y-90100300I-101600J0D01*
G01*
G37*
G36*
G01*
X94835650Y-90100300D02*
X94236550Y-90100300D01*
G75*
G02*
X94134950Y-89998700I0J101600D01*
G01*
X94134950Y-88097700D01*
G75*
G02*
X94236550Y-87996100I101600J0D01*
G01*
X94835650Y-87996100D01*
G75*
G02*
X94937250Y-88097700I0J-101600D01*
G01*
X94937250Y-89998700D01*
G75*
G02*
X94835650Y-90100300I-101600J0D01*
G01*
G37*
G36*
G01*
X96105650Y-90100300D02*
X95506550Y-90100300D01*
G75*
G02*
X95404950Y-89998700I0J101600D01*
G01*
X95404950Y-88097700D01*
G75*
G02*
X95506550Y-87996100I101600J0D01*
G01*
X96105650Y-87996100D01*
G75*
G02*
X96207250Y-88097700I0J-101600D01*
G01*
X96207250Y-89998700D01*
G75*
G02*
X96105650Y-90100300I-101600J0D01*
G01*
G37*
G36*
G01*
X97375650Y-90100300D02*
X96776550Y-90100300D01*
G75*
G02*
X96674950Y-89998700I0J101600D01*
G01*
X96674950Y-88097700D01*
G75*
G02*
X96776550Y-87996100I101600J0D01*
G01*
X97375650Y-87996100D01*
G75*
G02*
X97477250Y-88097700I0J-101600D01*
G01*
X97477250Y-89998700D01*
G75*
G02*
X97375650Y-90100300I-101600J0D01*
G01*
G37*
G36*
G01*
X97375650Y-95011100D02*
X96776550Y-95011100D01*
G75*
G02*
X96674950Y-94909500I0J101600D01*
G01*
X96674950Y-93008500D01*
G75*
G02*
X96776550Y-92906900I101600J0D01*
G01*
X97375650Y-92906900D01*
G75*
G02*
X97477250Y-93008500I0J-101600D01*
G01*
X97477250Y-94909500D01*
G75*
G02*
X97375650Y-95011100I-101600J0D01*
G01*
G37*
G36*
G01*
X96105650Y-95011100D02*
X95506550Y-95011100D01*
G75*
G02*
X95404950Y-94909500I0J101600D01*
G01*
X95404950Y-93008500D01*
G75*
G02*
X95506550Y-92906900I101600J0D01*
G01*
X96105650Y-92906900D01*
G75*
G02*
X96207250Y-93008500I0J-101600D01*
G01*
X96207250Y-94909500D01*
G75*
G02*
X96105650Y-95011100I-101600J0D01*
G01*
G37*
G36*
G01*
X94835650Y-95011100D02*
X94236550Y-95011100D01*
G75*
G02*
X94134950Y-94909500I0J101600D01*
G01*
X94134950Y-93008500D01*
G75*
G02*
X94236550Y-92906900I101600J0D01*
G01*
X94835650Y-92906900D01*
G75*
G02*
X94937250Y-93008500I0J-101600D01*
G01*
X94937250Y-94909500D01*
G75*
G02*
X94835650Y-95011100I-101600J0D01*
G01*
G37*
G36*
G01*
X93565650Y-95011100D02*
X92966550Y-95011100D01*
G75*
G02*
X92864950Y-94909500I0J101600D01*
G01*
X92864950Y-93008500D01*
G75*
G02*
X92966550Y-92906900I101600J0D01*
G01*
X93565650Y-92906900D01*
G75*
G02*
X93667250Y-93008500I0J-101600D01*
G01*
X93667250Y-94909500D01*
G75*
G02*
X93565650Y-95011100I-101600J0D01*
G01*
G37*
%TD*%
%TO.C,R20*%
G36*
G01*
X90459600Y-89180000D02*
X92262600Y-89180000D01*
G75*
G02*
X92364200Y-89281600I0J-101600D01*
G01*
X92364200Y-90881600D01*
G75*
G02*
X92262600Y-90983200I-101600J0D01*
G01*
X90459600Y-90983200D01*
G75*
G02*
X90358000Y-90881600I0J101600D01*
G01*
X90358000Y-89281600D01*
G75*
G02*
X90459600Y-89180000I101600J0D01*
G01*
G37*
G36*
G01*
X90459600Y-92024000D02*
X92262600Y-92024000D01*
G75*
G02*
X92364200Y-92125600I0J-101600D01*
G01*
X92364200Y-93725600D01*
G75*
G02*
X92262600Y-93827200I-101600J0D01*
G01*
X90459600Y-93827200D01*
G75*
G02*
X90358000Y-93725600I0J101600D01*
G01*
X90358000Y-92125600D01*
G75*
G02*
X90459600Y-92024000I101600J0D01*
G01*
G37*
%TD*%
%TO.C,R21*%
G36*
G01*
X88551100Y-91005200D02*
X86551100Y-91005200D01*
G75*
G02*
X86449500Y-90903600I0J101600D01*
G01*
X86449500Y-89303600D01*
G75*
G02*
X86551100Y-89202000I101600J0D01*
G01*
X88551100Y-89202000D01*
G75*
G02*
X88652700Y-89303600I0J-101600D01*
G01*
X88652700Y-90903600D01*
G75*
G02*
X88551100Y-91005200I-101600J0D01*
G01*
G37*
G36*
G01*
X88551100Y-93805200D02*
X86551100Y-93805200D01*
G75*
G02*
X86449500Y-93703600I0J101600D01*
G01*
X86449500Y-92103600D01*
G75*
G02*
X86551100Y-92002000I101600J0D01*
G01*
X88551100Y-92002000D01*
G75*
G02*
X88652700Y-92103600I0J-101600D01*
G01*
X88652700Y-93703600D01*
G75*
G02*
X88551100Y-93805200I-101600J0D01*
G01*
G37*
%TD*%
%TO.C,R22*%
G36*
G01*
X92847500Y-97485100D02*
X92847500Y-95682100D01*
G75*
G02*
X92949100Y-95580500I101600J0D01*
G01*
X94549100Y-95580500D01*
G75*
G02*
X94650700Y-95682100I0J-101600D01*
G01*
X94650700Y-97485100D01*
G75*
G02*
X94549100Y-97586700I-101600J0D01*
G01*
X92949100Y-97586700D01*
G75*
G02*
X92847500Y-97485100I0J101600D01*
G01*
G37*
G36*
G01*
X95691500Y-97485100D02*
X95691500Y-95682100D01*
G75*
G02*
X95793100Y-95580500I101600J0D01*
G01*
X97393100Y-95580500D01*
G75*
G02*
X97494700Y-95682100I0J-101600D01*
G01*
X97494700Y-97485100D01*
G75*
G02*
X97393100Y-97586700I-101600J0D01*
G01*
X95793100Y-97586700D01*
G75*
G02*
X95691500Y-97485100I0J101600D01*
G01*
G37*
%TD*%
%TO.C,R23*%
G36*
G01*
X88322700Y-95583600D02*
X88322700Y-97583600D01*
G75*
G02*
X88221100Y-97685200I-101600J0D01*
G01*
X86621100Y-97685200D01*
G75*
G02*
X86519500Y-97583600I0J101600D01*
G01*
X86519500Y-95583600D01*
G75*
G02*
X86621100Y-95482000I101600J0D01*
G01*
X88221100Y-95482000D01*
G75*
G02*
X88322700Y-95583600I0J-101600D01*
G01*
G37*
G36*
G01*
X91122700Y-95583600D02*
X91122700Y-97583600D01*
G75*
G02*
X91021100Y-97685200I-101600J0D01*
G01*
X89421100Y-97685200D01*
G75*
G02*
X89319500Y-97583600I0J101600D01*
G01*
X89319500Y-95583600D01*
G75*
G02*
X89421100Y-95482000I101600J0D01*
G01*
X91021100Y-95482000D01*
G75*
G02*
X91122700Y-95583600I0J-101600D01*
G01*
G37*
%TD*%
%TO.C,U$3*%
G36*
G01*
X106265650Y-90100300D02*
X105666550Y-90100300D01*
G75*
G02*
X105564950Y-89998700I0J101600D01*
G01*
X105564950Y-88097700D01*
G75*
G02*
X105666550Y-87996100I101600J0D01*
G01*
X106265650Y-87996100D01*
G75*
G02*
X106367250Y-88097700I0J-101600D01*
G01*
X106367250Y-89998700D01*
G75*
G02*
X106265650Y-90100300I-101600J0D01*
G01*
G37*
G36*
G01*
X107535650Y-90100300D02*
X106936550Y-90100300D01*
G75*
G02*
X106834950Y-89998700I0J101600D01*
G01*
X106834950Y-88097700D01*
G75*
G02*
X106936550Y-87996100I101600J0D01*
G01*
X107535650Y-87996100D01*
G75*
G02*
X107637250Y-88097700I0J-101600D01*
G01*
X107637250Y-89998700D01*
G75*
G02*
X107535650Y-90100300I-101600J0D01*
G01*
G37*
G36*
G01*
X108805650Y-90100300D02*
X108206550Y-90100300D01*
G75*
G02*
X108104950Y-89998700I0J101600D01*
G01*
X108104950Y-88097700D01*
G75*
G02*
X108206550Y-87996100I101600J0D01*
G01*
X108805650Y-87996100D01*
G75*
G02*
X108907250Y-88097700I0J-101600D01*
G01*
X108907250Y-89998700D01*
G75*
G02*
X108805650Y-90100300I-101600J0D01*
G01*
G37*
G36*
G01*
X110075650Y-90100300D02*
X109476550Y-90100300D01*
G75*
G02*
X109374950Y-89998700I0J101600D01*
G01*
X109374950Y-88097700D01*
G75*
G02*
X109476550Y-87996100I101600J0D01*
G01*
X110075650Y-87996100D01*
G75*
G02*
X110177250Y-88097700I0J-101600D01*
G01*
X110177250Y-89998700D01*
G75*
G02*
X110075650Y-90100300I-101600J0D01*
G01*
G37*
G36*
G01*
X110075650Y-95011100D02*
X109476550Y-95011100D01*
G75*
G02*
X109374950Y-94909500I0J101600D01*
G01*
X109374950Y-93008500D01*
G75*
G02*
X109476550Y-92906900I101600J0D01*
G01*
X110075650Y-92906900D01*
G75*
G02*
X110177250Y-93008500I0J-101600D01*
G01*
X110177250Y-94909500D01*
G75*
G02*
X110075650Y-95011100I-101600J0D01*
G01*
G37*
G36*
G01*
X108805650Y-95011100D02*
X108206550Y-95011100D01*
G75*
G02*
X108104950Y-94909500I0J101600D01*
G01*
X108104950Y-93008500D01*
G75*
G02*
X108206550Y-92906900I101600J0D01*
G01*
X108805650Y-92906900D01*
G75*
G02*
X108907250Y-93008500I0J-101600D01*
G01*
X108907250Y-94909500D01*
G75*
G02*
X108805650Y-95011100I-101600J0D01*
G01*
G37*
G36*
G01*
X107535650Y-95011100D02*
X106936550Y-95011100D01*
G75*
G02*
X106834950Y-94909500I0J101600D01*
G01*
X106834950Y-93008500D01*
G75*
G02*
X106936550Y-92906900I101600J0D01*
G01*
X107535650Y-92906900D01*
G75*
G02*
X107637250Y-93008500I0J-101600D01*
G01*
X107637250Y-94909500D01*
G75*
G02*
X107535650Y-95011100I-101600J0D01*
G01*
G37*
G36*
G01*
X106265650Y-95011100D02*
X105666550Y-95011100D01*
G75*
G02*
X105564950Y-94909500I0J101600D01*
G01*
X105564950Y-93008500D01*
G75*
G02*
X105666550Y-92906900I101600J0D01*
G01*
X106265650Y-92906900D01*
G75*
G02*
X106367250Y-93008500I0J-101600D01*
G01*
X106367250Y-94909500D01*
G75*
G02*
X106265650Y-95011100I-101600J0D01*
G01*
G37*
%TD*%
%TO.C,R24*%
G36*
G01*
X103159600Y-89180000D02*
X104962600Y-89180000D01*
G75*
G02*
X105064200Y-89281600I0J-101600D01*
G01*
X105064200Y-90881600D01*
G75*
G02*
X104962600Y-90983200I-101600J0D01*
G01*
X103159600Y-90983200D01*
G75*
G02*
X103058000Y-90881600I0J101600D01*
G01*
X103058000Y-89281600D01*
G75*
G02*
X103159600Y-89180000I101600J0D01*
G01*
G37*
G36*
G01*
X103159600Y-92024000D02*
X104962600Y-92024000D01*
G75*
G02*
X105064200Y-92125600I0J-101600D01*
G01*
X105064200Y-93725600D01*
G75*
G02*
X104962600Y-93827200I-101600J0D01*
G01*
X103159600Y-93827200D01*
G75*
G02*
X103058000Y-93725600I0J101600D01*
G01*
X103058000Y-92125600D01*
G75*
G02*
X103159600Y-92024000I101600J0D01*
G01*
G37*
%TD*%
%TO.C,R25*%
G36*
G01*
X101251100Y-91005200D02*
X99251100Y-91005200D01*
G75*
G02*
X99149500Y-90903600I0J101600D01*
G01*
X99149500Y-89303600D01*
G75*
G02*
X99251100Y-89202000I101600J0D01*
G01*
X101251100Y-89202000D01*
G75*
G02*
X101352700Y-89303600I0J-101600D01*
G01*
X101352700Y-90903600D01*
G75*
G02*
X101251100Y-91005200I-101600J0D01*
G01*
G37*
G36*
G01*
X101251100Y-93805200D02*
X99251100Y-93805200D01*
G75*
G02*
X99149500Y-93703600I0J101600D01*
G01*
X99149500Y-92103600D01*
G75*
G02*
X99251100Y-92002000I101600J0D01*
G01*
X101251100Y-92002000D01*
G75*
G02*
X101352700Y-92103600I0J-101600D01*
G01*
X101352700Y-93703600D01*
G75*
G02*
X101251100Y-93805200I-101600J0D01*
G01*
G37*
%TD*%
%TO.C,R26*%
G36*
G01*
X105547500Y-97485100D02*
X105547500Y-95682100D01*
G75*
G02*
X105649100Y-95580500I101600J0D01*
G01*
X107249100Y-95580500D01*
G75*
G02*
X107350700Y-95682100I0J-101600D01*
G01*
X107350700Y-97485100D01*
G75*
G02*
X107249100Y-97586700I-101600J0D01*
G01*
X105649100Y-97586700D01*
G75*
G02*
X105547500Y-97485100I0J101600D01*
G01*
G37*
G36*
G01*
X108391500Y-97485100D02*
X108391500Y-95682100D01*
G75*
G02*
X108493100Y-95580500I101600J0D01*
G01*
X110093100Y-95580500D01*
G75*
G02*
X110194700Y-95682100I0J-101600D01*
G01*
X110194700Y-97485100D01*
G75*
G02*
X110093100Y-97586700I-101600J0D01*
G01*
X108493100Y-97586700D01*
G75*
G02*
X108391500Y-97485100I0J101600D01*
G01*
G37*
%TD*%
%TO.C,R27*%
G36*
G01*
X101022700Y-95583600D02*
X101022700Y-97583600D01*
G75*
G02*
X100921100Y-97685200I-101600J0D01*
G01*
X99321100Y-97685200D01*
G75*
G02*
X99219500Y-97583600I0J101600D01*
G01*
X99219500Y-95583600D01*
G75*
G02*
X99321100Y-95482000I101600J0D01*
G01*
X100921100Y-95482000D01*
G75*
G02*
X101022700Y-95583600I0J-101600D01*
G01*
G37*
G36*
G01*
X103822700Y-95583600D02*
X103822700Y-97583600D01*
G75*
G02*
X103721100Y-97685200I-101600J0D01*
G01*
X102121100Y-97685200D01*
G75*
G02*
X102019500Y-97583600I0J101600D01*
G01*
X102019500Y-95583600D01*
G75*
G02*
X102121100Y-95482000I101600J0D01*
G01*
X103721100Y-95482000D01*
G75*
G02*
X103822700Y-95583600I0J-101600D01*
G01*
G37*
%TD*%
D19*
%TO.C,PWM0*%
X87551100Y-83883600D03*
X90091100Y-83883600D03*
%TD*%
%TO.C,PWM1*%
X93901100Y-83883600D03*
X96441100Y-83883600D03*
%TD*%
%TO.C,PWM2*%
X100251100Y-83883600D03*
X102791100Y-83883600D03*
%TD*%
%TO.C,PWM3*%
X106601100Y-83883600D03*
X109141100Y-83883600D03*
%TD*%
D15*
%TO.C,UART0*%
X109141100Y-120713600D03*
X109141100Y-123253600D03*
X109141100Y-125793600D03*
X109141100Y-128333600D03*
%TD*%
D20*
%TO.C,D2*%
X112951100Y-81343600D03*
X112951100Y-91503600D03*
%TD*%
M02*
