%TF.GenerationSoftware,KiCad,Pcbnew,5.1.9-73d0e3b20d~88~ubuntu18.04.1*%
%TF.CreationDate,2021-01-30T02:03:27+01:00*%
%TF.ProjectId,terraesp,74657272-6165-4737-902e-6b696361645f,rev?*%
%TF.SameCoordinates,Original*%
%TF.FileFunction,Soldermask,Bot*%
%TF.FilePolarity,Negative*%
%FSLAX46Y46*%
G04 Gerber Fmt 4.6, Leading zero omitted, Abs format (unit mm)*
G04 Created by KiCad (PCBNEW 5.1.9-73d0e3b20d~88~ubuntu18.04.1) date 2021-01-30 02:03:27*
%MOMM*%
%LPD*%
G01*
G04 APERTURE LIST*
%ADD10C,3.200000*%
%ADD11C,1.711200*%
%ADD12C,1.625600*%
%ADD13C,2.453200*%
%ADD14C,1.524000*%
%ADD15O,3.251200X1.727200*%
%ADD16O,1.727200X3.251200*%
%ADD17C,2.743200*%
%ADD18O,3.219200X1.711200*%
%ADD19O,1.711200X3.219200*%
%ADD20C,1.879600*%
G04 APERTURE END LIST*
D10*
%TO.C,@HOLE0*%
X173911100Y-82613600D03*
%TD*%
%TO.C,@HOLE1*%
X173911100Y-129603600D03*
%TD*%
%TO.C,@HOLE2*%
X88821100Y-128333600D03*
%TD*%
%TO.C,@HOLE3*%
X88821100Y-102933600D03*
%TD*%
%TO.C,K1*%
G36*
G01*
X190835500Y-94927600D02*
X190835500Y-93419600D01*
G75*
G02*
X190937100Y-93318000I101600J0D01*
G01*
X192445100Y-93318000D01*
G75*
G02*
X192546700Y-93419600I0J-101600D01*
G01*
X192546700Y-94927600D01*
G75*
G02*
X192445100Y-95029200I-101600J0D01*
G01*
X190937100Y-95029200D01*
G75*
G02*
X190835500Y-94927600I0J101600D01*
G01*
G37*
D11*
X184071100Y-94173600D03*
X173911100Y-94173600D03*
X171371100Y-94173600D03*
%TD*%
D12*
%TO.C,U$1*%
X138861100Y-102183600D03*
X141401100Y-102183600D03*
X143941100Y-102183600D03*
%TD*%
D13*
%TO.C,SSR_0*%
X206931100Y-83923600D03*
X206931100Y-88923600D03*
%TD*%
%TO.C,SSR_IN1*%
X189111100Y-82613600D03*
X184111100Y-82613600D03*
%TD*%
D14*
%TO.C,F1*%
X198041100Y-97853600D03*
X187881100Y-97853600D03*
%TD*%
D15*
%TO.C,EN1*%
X109141100Y-115633600D03*
X109141100Y-113093600D03*
%TD*%
%TO.C,R5*%
G36*
G01*
X126651100Y-121485200D02*
X124651100Y-121485200D01*
G75*
G02*
X124549500Y-121383600I0J101600D01*
G01*
X124549500Y-119783600D01*
G75*
G02*
X124651100Y-119682000I101600J0D01*
G01*
X126651100Y-119682000D01*
G75*
G02*
X126752700Y-119783600I0J-101600D01*
G01*
X126752700Y-121383600D01*
G75*
G02*
X126651100Y-121485200I-101600J0D01*
G01*
G37*
G36*
G01*
X126651100Y-124285200D02*
X124651100Y-124285200D01*
G75*
G02*
X124549500Y-124183600I0J101600D01*
G01*
X124549500Y-122583600D01*
G75*
G02*
X124651100Y-122482000I101600J0D01*
G01*
X126651100Y-122482000D01*
G75*
G02*
X126752700Y-122583600I0J-101600D01*
G01*
X126752700Y-124183600D01*
G75*
G02*
X126651100Y-124285200I-101600J0D01*
G01*
G37*
%TD*%
D16*
%TO.C,BOOT1*%
X121841100Y-100393600D03*
X119301100Y-100393600D03*
%TD*%
D17*
%TO.C,C1*%
X138351100Y-113093600D03*
X143431100Y-113093600D03*
%TD*%
%TO.C,K2*%
G36*
G01*
X190835500Y-105087600D02*
X190835500Y-103579600D01*
G75*
G02*
X190937100Y-103478000I101600J0D01*
G01*
X192445100Y-103478000D01*
G75*
G02*
X192546700Y-103579600I0J-101600D01*
G01*
X192546700Y-105087600D01*
G75*
G02*
X192445100Y-105189200I-101600J0D01*
G01*
X190937100Y-105189200D01*
G75*
G02*
X190835500Y-105087600I0J101600D01*
G01*
G37*
D11*
X184071100Y-104333600D03*
X173911100Y-104333600D03*
X171371100Y-104333600D03*
%TD*%
D13*
%TO.C,SSR_1*%
X206931100Y-96623600D03*
X206931100Y-101623600D03*
%TD*%
D14*
%TO.C,F2*%
X198041100Y-108013600D03*
X187881100Y-108013600D03*
%TD*%
%TO.C,K3*%
G36*
G01*
X190835500Y-115247600D02*
X190835500Y-113739600D01*
G75*
G02*
X190937100Y-113638000I101600J0D01*
G01*
X192445100Y-113638000D01*
G75*
G02*
X192546700Y-113739600I0J-101600D01*
G01*
X192546700Y-115247600D01*
G75*
G02*
X192445100Y-115349200I-101600J0D01*
G01*
X190937100Y-115349200D01*
G75*
G02*
X190835500Y-115247600I0J101600D01*
G01*
G37*
D11*
X184071100Y-114493600D03*
X173911100Y-114493600D03*
X171371100Y-114493600D03*
%TD*%
D13*
%TO.C,SSR_2*%
X206931100Y-109323600D03*
X206931100Y-114323600D03*
%TD*%
D14*
%TO.C,F3*%
X198041100Y-118173600D03*
X187881100Y-118173600D03*
%TD*%
%TO.C,K4*%
G36*
G01*
X190835500Y-125407600D02*
X190835500Y-123899600D01*
G75*
G02*
X190937100Y-123798000I101600J0D01*
G01*
X192445100Y-123798000D01*
G75*
G02*
X192546700Y-123899600I0J-101600D01*
G01*
X192546700Y-125407600D01*
G75*
G02*
X192445100Y-125509200I-101600J0D01*
G01*
X190937100Y-125509200D01*
G75*
G02*
X190835500Y-125407600I0J101600D01*
G01*
G37*
D11*
X184071100Y-124653600D03*
X173911100Y-124653600D03*
X171371100Y-124653600D03*
%TD*%
D13*
%TO.C,SSR_3*%
X206931100Y-122023600D03*
X206931100Y-127023600D03*
%TD*%
D14*
%TO.C,F4*%
X198041100Y-128333600D03*
X187881100Y-128333600D03*
%TD*%
D18*
%TO.C,X1*%
X165021100Y-81343600D03*
X165021100Y-83883600D03*
%TD*%
%TO.C,X2*%
X157401100Y-81343600D03*
X157401100Y-83883600D03*
%TD*%
%TO.C,X3*%
X149781100Y-81343600D03*
X149781100Y-83883600D03*
%TD*%
%TO.C,+12V-1*%
X142161100Y-81343600D03*
X142161100Y-83883600D03*
%TD*%
D19*
%TO.C,I2C1*%
X104061100Y-104203600D03*
X101521100Y-104203600D03*
X98981100Y-104203600D03*
X96441100Y-104203600D03*
%TD*%
%TO.C,X6*%
X104061100Y-111823600D03*
X101521100Y-111823600D03*
X98981100Y-111823600D03*
X96441100Y-111823600D03*
%TD*%
%TO.C,X7*%
X104061100Y-119443600D03*
X101521100Y-119443600D03*
X98981100Y-119443600D03*
X96441100Y-119443600D03*
%TD*%
%TO.C,X8*%
X104061100Y-127063600D03*
X101521100Y-127063600D03*
X98981100Y-127063600D03*
X96441100Y-127063600D03*
%TD*%
D18*
%TO.C,A0*%
X128191100Y-83883600D03*
X128191100Y-86423600D03*
X128191100Y-88963600D03*
X128191100Y-91503600D03*
%TD*%
%TO.C,R15*%
G36*
G01*
X123381100Y-90732000D02*
X125381100Y-90732000D01*
G75*
G02*
X125482700Y-90833600I0J-101600D01*
G01*
X125482700Y-92433600D01*
G75*
G02*
X125381100Y-92535200I-101600J0D01*
G01*
X123381100Y-92535200D01*
G75*
G02*
X123279500Y-92433600I0J101600D01*
G01*
X123279500Y-90833600D01*
G75*
G02*
X123381100Y-90732000I101600J0D01*
G01*
G37*
G36*
G01*
X123381100Y-87932000D02*
X125381100Y-87932000D01*
G75*
G02*
X125482700Y-88033600I0J-101600D01*
G01*
X125482700Y-89633600D01*
G75*
G02*
X125381100Y-89735200I-101600J0D01*
G01*
X123381100Y-89735200D01*
G75*
G02*
X123279500Y-89633600I0J101600D01*
G01*
X123279500Y-88033600D01*
G75*
G02*
X123381100Y-87932000I101600J0D01*
G01*
G37*
%TD*%
%TO.C,R16*%
G36*
G01*
X125381100Y-84655200D02*
X123381100Y-84655200D01*
G75*
G02*
X123279500Y-84553600I0J101600D01*
G01*
X123279500Y-82953600D01*
G75*
G02*
X123381100Y-82852000I101600J0D01*
G01*
X125381100Y-82852000D01*
G75*
G02*
X125482700Y-82953600I0J-101600D01*
G01*
X125482700Y-84553600D01*
G75*
G02*
X125381100Y-84655200I-101600J0D01*
G01*
G37*
G36*
G01*
X125381100Y-87455200D02*
X123381100Y-87455200D01*
G75*
G02*
X123279500Y-87353600I0J101600D01*
G01*
X123279500Y-85753600D01*
G75*
G02*
X123381100Y-85652000I101600J0D01*
G01*
X125381100Y-85652000D01*
G75*
G02*
X125482700Y-85753600I0J-101600D01*
G01*
X125482700Y-87353600D01*
G75*
G02*
X125381100Y-87455200I-101600J0D01*
G01*
G37*
%TD*%
%TO.C,A1*%
X120571100Y-91503600D03*
X120571100Y-88963600D03*
X120571100Y-86423600D03*
X120571100Y-83883600D03*
%TD*%
%TO.C,R17*%
G36*
G01*
X114491100Y-90732000D02*
X116491100Y-90732000D01*
G75*
G02*
X116592700Y-90833600I0J-101600D01*
G01*
X116592700Y-92433600D01*
G75*
G02*
X116491100Y-92535200I-101600J0D01*
G01*
X114491100Y-92535200D01*
G75*
G02*
X114389500Y-92433600I0J101600D01*
G01*
X114389500Y-90833600D01*
G75*
G02*
X114491100Y-90732000I101600J0D01*
G01*
G37*
G36*
G01*
X114491100Y-87932000D02*
X116491100Y-87932000D01*
G75*
G02*
X116592700Y-88033600I0J-101600D01*
G01*
X116592700Y-89633600D01*
G75*
G02*
X116491100Y-89735200I-101600J0D01*
G01*
X114491100Y-89735200D01*
G75*
G02*
X114389500Y-89633600I0J101600D01*
G01*
X114389500Y-88033600D01*
G75*
G02*
X114491100Y-87932000I101600J0D01*
G01*
G37*
%TD*%
%TO.C,R18*%
G36*
G01*
X116491100Y-84655200D02*
X114491100Y-84655200D01*
G75*
G02*
X114389500Y-84553600I0J101600D01*
G01*
X114389500Y-82953600D01*
G75*
G02*
X114491100Y-82852000I101600J0D01*
G01*
X116491100Y-82852000D01*
G75*
G02*
X116592700Y-82953600I0J-101600D01*
G01*
X116592700Y-84553600D01*
G75*
G02*
X116491100Y-84655200I-101600J0D01*
G01*
G37*
G36*
G01*
X116491100Y-87455200D02*
X114491100Y-87455200D01*
G75*
G02*
X114389500Y-87353600I0J101600D01*
G01*
X114389500Y-85753600D01*
G75*
G02*
X114491100Y-85652000I101600J0D01*
G01*
X116491100Y-85652000D01*
G75*
G02*
X116592700Y-85753600I0J-101600D01*
G01*
X116592700Y-87353600D01*
G75*
G02*
X116491100Y-87455200I-101600J0D01*
G01*
G37*
%TD*%
D16*
%TO.C,CON0_5V1*%
X139621100Y-94043600D03*
X142161100Y-94043600D03*
%TD*%
%TO.C,-5V+1*%
X139621100Y-90233600D03*
X142161100Y-90233600D03*
%TD*%
%TO.C,OTA1*%
X112951100Y-100393600D03*
X115491100Y-100393600D03*
%TD*%
D19*
%TO.C,PWM0*%
X87551100Y-83883600D03*
X90091100Y-83883600D03*
%TD*%
%TO.C,PWM1*%
X93901100Y-83883600D03*
X96441100Y-83883600D03*
%TD*%
%TO.C,PWM2*%
X100251100Y-83883600D03*
X102791100Y-83883600D03*
%TD*%
%TO.C,PWM3*%
X106601100Y-83883600D03*
X109141100Y-83883600D03*
%TD*%
D15*
%TO.C,UART0*%
X109141100Y-120713600D03*
X109141100Y-123253600D03*
X109141100Y-125793600D03*
X109141100Y-128333600D03*
%TD*%
D20*
%TO.C,D2*%
X112951100Y-81343600D03*
X112951100Y-91503600D03*
%TD*%
M02*
